<svg xmlns="http://www.w3.org/2000/svg" xmlns:xlink="http://www.w3.org/1999/xlink" version="1.1" data-diagram-type="ACTIVITY" style="width:3021px;height:2649px;background:#FFFFFF;" width="3021.042px" height="2649.167px" viewBox="0 0 3021 2649" zoomAndPan="magnify" preserveAspectRatio="none" contentStyleType="text/css"><?plantuml 1.2026.8?><defs/><g font-family="sans-serif" lengthAdjust="spacing"><g class="title" data-source-line="2"><text x="999.534" y="67.902" fill="#1E3A8A" font-size="30.104" textLength="1018.97" font-weight="700" font-family="'Segoe UI'">Saving patients and screenings with or without internet (activity, FR-03)</text></g><rect x="35.417" y="106.912" width="2938.35" height="30.62" fill="none" style="stroke:none;"/><ellipse cx="324.297" cy="164.094" rx="17.708" ry="17.708" fill="#1D4ED8" style="stroke:#222;stroke-width:1.771;"/><rect x="46.042" y="217.219" width="556.51" height="127.275" fill="#EFF6FF" style="stroke:#2563EB;stroke-width:0.885;" rx="10.625" ry="10.625"/><text x="63.75" y="259.769" fill="#0F172A" font-size="23.021" textLength="478.256" font-family="'Segoe UI'">Register or edit a patient, or record a screening</text><text x="63.75" y="290.389" fill="#0F172A" font-size="23.021" textLength="501.647" font-family="'Segoe UI'">for one (registered on this phone, or downloaded</text><text x="63.75" y="321.009" fill="#0F172A" font-size="23.021" textLength="521.094" font-family="'Segoe UI'">earlier): PSA, free PSA, DRE, PI-RADS, volume, notes</text><line x1="35.417" y1="106.912" x2="35.417" y2="2612.5" style="stroke:#000;stroke-width:2.656;"/><rect x="845.579" y="379.911" width="450.871" height="66.036" fill="#EFF6FF" style="stroke:#2563EB;stroke-width:0.885;" rx="10.625" ry="10.625"/><text x="863.288" y="422.461" fill="#0F172A" font-size="23.021" textLength="415.454" font-family="'Segoe UI'">Check the values (ranges, required fields)</text><rect x="787.881" y="481.364" width="566.267" height="127.275" fill="#EFF6FF" style="stroke:#2563EB;stroke-width:0.885;" rx="10.625" ry="10.625"/><text x="805.59" y="523.914" fill="#0F172A" font-size="23.021" textLength="530.851" font-family="'Segoe UI'">Save in the phone's encrypted database (SQLCipher)</text><text x="805.59" y="554.534" fill="#0F172A" font-size="23.021" textLength="369.424" font-family="'Segoe UI'">and add an operation to the outbox,</text><text x="805.59" y="585.153" fill="#0F172A" font-size="23.021" textLength="288.963" font-family="'Segoe UI'">with a new idempotency key</text><rect x="907.42" y="644.056" width="327.19" height="66.036" fill="#EFF6FF" style="stroke:#2563EB;stroke-width:0.885;" rx="10.625" ry="10.625"/><text x="925.128" y="686.606" fill="#0F172A" font-size="23.021" textLength="291.773" font-family="'Segoe UI'">Show it as "Saved on device"</text><rect x="946.273" y="832.838" width="249.483" height="66.036" fill="#EFF6FF" style="stroke:#2563EB;stroke-width:0.885;" rx="10.625" ry="10.625"/><text x="963.981" y="875.388" fill="#0F172A" font-size="23.021" textLength="214.067" font-family="'Segoe UI'">Keep it on the phone</text><rect x="844.596" y="955.283" width="452.838" height="96.656" fill="#EFF6FF" style="stroke:#2563EB;stroke-width:0.885;" rx="10.625" ry="10.625"/><text x="862.304" y="997.833" fill="#0F172A" font-size="23.021" textLength="417.421" font-family="'Segoe UI'">Retry later (2 s, doubling, at most 15 min,</text><text x="862.304" y="1028.453" fill="#0F172A" font-size="23.021" textLength="387.386" font-family="'Segoe UI'">with jitter), or at once with "Sync now"</text><polygon points="1032.555,745.509,1109.475,745.509,1130.725,766.759,1109.475,788.009,1032.555,788.009,1011.305,766.759,1032.555,745.509" fill="#FEF3C7" style="stroke:#B45309;stroke-width:0.885;stroke-linejoin:miter;stroke-miterlimit:10;"/><text x="1078.098" y="809.029" fill="#334155" font-size="19.479" textLength="22.437" font-family="'Segoe UI'">no</text><text x="1032.555" y="776.291" fill="#0F172A" font-size="23.021" textLength="76.92" font-family="'Segoe UI'">Online?</text><rect x="832.726" y="1126.314" width="476.578" height="96.656" fill="#EFF6FF" style="stroke:#2563EB;stroke-width:0.885;" rx="10.625" ry="10.625"/><text x="850.434" y="1168.864" fill="#0F172A" font-size="23.021" textLength="441.161" font-family="'Segoe UI'">Send the oldest operations in batches of 50</text><text x="850.434" y="1199.484" fill="#0F172A" font-size="23.021" textLength="321.066" font-family="'Segoe UI'">(POST /sync), marked "sending"</text><polygon points="1034.865,1987.382,1107.165,1987.382,1128.415,2008.632,1107.165,2029.882,1034.865,2029.882,1013.615,2008.632,1034.865,1987.382" fill="#FEF3C7" style="stroke:#B45309;stroke-width:0.885;stroke-linejoin:miter;stroke-miterlimit:10;"/><text x="1034.865" y="2018.164" fill="#0F172A" font-size="23.021" textLength="72.3" font-family="'Segoe UI'">Result?</text><rect x="620.26" y="2099.408" width="294.817" height="96.656" fill="#EFF6FF" style="stroke:#2563EB;stroke-width:0.885;" rx="10.625" ry="10.625"/><text x="637.969" y="2141.958" fill="#0F172A" font-size="23.021" textLength="259.4" font-family="'Segoe UI'">Remove from the outbox,</text><text x="637.969" y="2172.577" fill="#0F172A" font-size="23.021" textLength="149.905" font-family="'Segoe UI'">show "Synced"</text><rect x="966.006" y="2099.408" width="275.899" height="96.656" fill="#EFF6FF" style="stroke:#2563EB;stroke-width:0.885;" rx="10.625" ry="10.625"/><text x="983.714" y="2141.958" fill="#0F172A" font-size="23.021" textLength="181.458" font-family="'Segoe UI'">Keep both copies,</text><text x="983.714" y="2172.577" fill="#0F172A" font-size="23.021" textLength="240.482" font-family="'Segoe UI'">show "Needs attention"</text><rect x="950.494" y="2231.48" width="306.923" height="96.656" fill="#EFF6FF" style="stroke:#2563EB;stroke-width:0.885;" rx="10.625" ry="10.625"/><text x="968.202" y="2274.03" fill="#0F172A" font-size="23.021" textLength="271.506" font-family="'Segoe UI'">Clinician keeps the server's</text><text x="968.202" y="2304.65" fill="#0F172A" font-size="23.021" textLength="178.805" font-family="'Segoe UI'">copy or their own</text><rect x="1298.965" y="2099.408" width="216.672" height="96.656" fill="#EFF6FF" style="stroke:#2563EB;stroke-width:0.885;" rx="10.625" ry="10.625"/><text x="1316.674" y="2141.958" fill="#0F172A" font-size="23.021" textLength="173.893" font-family="'Segoe UI'">Show the reason,</text><text x="1316.674" y="2172.577" fill="#0F172A" font-size="23.021" textLength="181.255" font-family="'Segoe UI'">"Needs attention"</text><rect x="1292.834" y="2231.48" width="228.936" height="66.036" fill="#EFF6FF" style="stroke:#2563EB;stroke-width:0.885;" rx="10.625" ry="10.625"/><text x="1310.542" y="2274.03" fill="#0F172A" font-size="23.021" textLength="193.519" font-family="'Segoe UI'">Clinician discards it</text><polygon points="1071.015,2363.552,1071.015,2363.552,1092.265,2384.802,1071.015,2406.052,1071.015,2406.052,1049.765,2384.802,1071.015,2363.552" fill="#FEF3C7" style="stroke:#B45309;stroke-width:0.885;stroke-linejoin:miter;stroke-miterlimit:10;"/><rect x="883.606" y="2441.469" width="374.817" height="96.656" fill="#EFF6FF" style="stroke:#2563EB;stroke-width:0.885;" rx="10.625" ry="10.625"/><text x="901.315" y="2484.019" fill="#0F172A" font-size="23.021" textLength="339.4" font-family="'Segoe UI'">Download changes for the facility</text><text x="901.315" y="2514.639" fill="#0F172A" font-size="23.021" textLength="311.175" font-family="'Segoe UI'">(GET /sync/changes, by cursor)</text><ellipse cx="1071.015" cy="2593.021" rx="19.479" ry="19.479" fill="none" style="stroke:#222;stroke-width:1.771;"/><ellipse cx="1071.015" cy="2593.021" rx="10.625" ry="10.625" fill="#222" style="stroke:#222;stroke-width:1.771;"/><line x1="609.635" y1="106.912" x2="609.635" y2="2612.5" style="stroke:#000;stroke-width:2.656;"/><rect x="1857.594" y="1258.386" width="432.02" height="96.656" fill="#EFF6FF" style="stroke:#2563EB;stroke-width:0.885;" rx="10.625" ry="10.625"/><text x="1875.302" y="1300.936" fill="#0F172A" font-size="23.021" textLength="287.715" font-family="'Segoe UI'">For each operation, in order:</text><text x="1875.302" y="1331.556" fill="#0F172A" font-size="23.021" textLength="396.604" font-family="'Segoe UI'">was this idempotency key seen before?</text><polygon points="2043.777,1390.459,2103.431,1390.459,2124.681,1411.709,2103.431,1432.959,2043.777,1432.959,2022.527,1411.709,2043.777,1390.459" fill="#FEF3C7" style="stroke:#B45309;stroke-width:0.885;stroke-linejoin:miter;stroke-miterlimit:10;"/><text x="2043.777" y="1421.241" fill="#0F172A" font-size="23.021" textLength="59.654" font-family="'Segoe UI'">Seen?</text><text x="1994.649" y="1406.82" fill="#334155" font-size="19.479" textLength="27.878" font-family="'Segoe UI'">yes</text><text x="2124.681" y="1406.82" fill="#334155" font-size="19.479" textLength="22.437" font-family="'Segoe UI'">no</text><rect x="1539.478" y="1450.667" width="337.633" height="96.656" fill="#EFF6FF" style="stroke:#2563EB;stroke-width:0.885;" rx="10.625" ry="10.625"/><text x="1557.186" y="1493.217" fill="#0F172A" font-size="23.021" textLength="302.216" font-family="'Segoe UI'">Return the stored result again</text><text x="1557.186" y="1523.837" fill="#0F172A" font-size="23.021" textLength="260.951" font-family="'Segoe UI'">(a retry never saves twice)</text><rect x="2234.813" y="1450.667" width="408.201" height="66.036" fill="#EFF6FF" style="stroke:#2563EB;stroke-width:0.885;" rx="10.625" ry="10.625"/><text x="2252.522" y="1493.217" fill="#0F172A" font-size="23.021" textLength="372.785" font-family="'Segoe UI'">Check the permission and the facility</text><polygon points="1958.011,1582.739,2148.54,1582.739,2169.79,1603.989,2148.54,1625.239,1958.011,1625.239,1936.761,1603.989,1958.011,1582.739" fill="#FEF3C7" style="stroke:#B45309;stroke-width:0.885;stroke-linejoin:miter;stroke-miterlimit:10;"/><text x="2060.359" y="1646.259" fill="#334155" font-size="19.479" textLength="22.437" font-family="'Segoe UI'">no</text><text x="1958.011" y="1613.521" fill="#0F172A" font-size="23.021" textLength="190.529" font-family="'Segoe UI'">Valid and allowed?</text><rect x="1912.527" y="1686.565" width="281.497" height="66.036" fill="#EFF6FF" style="stroke:#2563EB;stroke-width:0.885;" rx="10.625" ry="10.625"/><text x="1930.235" y="1729.115" fill="#0F172A" font-size="23.021" textLength="246.08" font-family="'Segoe UI'">REJECTED, with a reason</text><polygon points="2279.898,1573.37,2548.606,1573.37,2569.856,1603.989,2548.606,1634.609,2279.898,1634.609,2258.648,1603.989,2279.898,1573.37" fill="#FEF3C7" style="stroke:#B45309;stroke-width:0.885;stroke-linejoin:miter;stroke-miterlimit:10;"/><text x="2421.335" y="1655.629" fill="#334155" font-size="19.479" textLength="27.878" font-family="'Segoe UI'">yes</text><text x="2279.898" y="1598.212" fill="#0F172A" font-size="23.021" textLength="268.708" font-family="'Segoe UI'">A patient edit based on an</text><text x="2279.898" y="1628.831" fill="#0F172A" font-size="23.021" textLength="209.402" font-family="'Segoe UI'">older server version?</text><rect x="2229.44" y="1695.934" width="369.623" height="66.036" fill="#EFF6FF" style="stroke:#2563EB;stroke-width:0.885;" rx="10.625" ry="10.625"/><text x="2247.149" y="1738.484" fill="#0F172A" font-size="23.021" textLength="334.207" font-family="'Segoe UI'">CONFLICT, with the server's copy</text><rect x="2634.48" y="1663.613" width="330.821" height="96.656" fill="#EFF6FF" style="stroke:#2563EB;stroke-width:0.885;" rx="10.625" ry="10.625"/><text x="2652.189" y="1706.163" fill="#0F172A" font-size="23.021" textLength="295.404" font-family="'Segoe UI'">APPLIED: save in PostgreSQL,</text><text x="2652.189" y="1736.783" fill="#0F172A" font-size="23.021" textLength="238.909" font-family="'Segoe UI'">version + 1, audit event</text><rect x="2270.547" y="1832.804" width="336.733" height="66.036" fill="#EFF6FF" style="stroke:#2563EB;stroke-width:0.885;" rx="10.625" ry="10.625"/><text x="2288.256" y="1875.354" fill="#0F172A" font-size="23.021" textLength="301.317" font-family="'Segoe UI'">Store the result under the key</text><polygon points="2073.604,1909.465,2094.854,1930.715,2073.604,1951.965,2052.354,1930.715,2073.604,1909.465" fill="#FEF3C7" style="stroke:#B45309;stroke-width:0.885;stroke-linejoin:miter;stroke-miterlimit:10;"/><line x1="1528.853" y1="106.912" x2="1528.853" y2="2612.5" style="stroke:#000;stroke-width:2.656;"/><line x1="2972.384" y1="106.912" x2="2972.384" y2="2612.5" style="stroke:#000;stroke-width:2.656;"/><line x1="324.297" y1="181.803" x2="324.297" y2="217.219" style="stroke:#475569;stroke-width:2.125;"/><polygon points="317.213,199.511,324.297,217.219,331.38,199.511,324.297,206.594" fill="#475569" style="stroke:#475569;stroke-width:1.771;stroke-linejoin:miter;stroke-miterlimit:10;"/><line x1="1071.015" y1="445.947" x2="1071.015" y2="481.364" style="stroke:#475569;stroke-width:2.125;"/><polygon points="1063.931,463.656,1071.015,481.364,1078.098,463.656,1071.015,470.739" fill="#475569" style="stroke:#475569;stroke-width:1.771;stroke-linejoin:miter;stroke-miterlimit:10;"/><line x1="1071.015" y1="608.639" x2="1071.015" y2="644.056" style="stroke:#475569;stroke-width:2.125;"/><polygon points="1063.931,626.348,1071.015,644.056,1078.098,626.348,1071.015,633.431" fill="#475569" style="stroke:#475569;stroke-width:1.771;stroke-linejoin:miter;stroke-miterlimit:10;"/><line x1="1071.015" y1="898.874" x2="1071.015" y2="955.283" style="stroke:#475569;stroke-width:2.125;"/><polygon points="1063.931,937.575,1071.015,955.283,1078.098,937.575,1071.015,944.658" fill="#475569" style="stroke:#475569;stroke-width:1.771;stroke-linejoin:miter;stroke-miterlimit:10;"/><line x1="1071.015" y1="788.009" x2="1071.015" y2="832.838" style="stroke:#475569;stroke-width:2.125;"/><polygon points="1063.931,815.13,1071.015,832.838,1078.098,815.13,1071.015,822.213" fill="#475569" style="stroke:#475569;stroke-width:1.771;stroke-linejoin:miter;stroke-miterlimit:10;"/><line x1="1130.725" y1="766.759" x2="1315.142" y2="766.759" style="stroke:#475569;stroke-width:2.125;"/><polygon points="1308.059,916.583,1315.142,934.291,1322.225,916.583,1315.142,923.666" fill="#475569" style="stroke:#475569;stroke-width:2.125;stroke-linejoin:miter;stroke-miterlimit:10;"/><line x1="1315.142" y1="766.759" x2="1315.142" y2="1090.897" style="stroke:#475569;stroke-width:2.125;"/><line x1="1315.142" y1="1090.897" x2="1071.015" y2="1090.897" style="stroke:#475569;stroke-width:2.125;"/><line x1="1071.015" y1="1090.897" x2="1071.015" y2="1126.314" style="stroke:#475569;stroke-width:2.125;"/><polygon points="1063.931,1108.606,1071.015,1126.314,1078.098,1108.606,1071.015,1115.689" fill="#475569" style="stroke:#475569;stroke-width:1.771;stroke-linejoin:miter;stroke-miterlimit:10;"/><line x1="1071.015" y1="710.092" x2="1071.015" y2="745.509" style="stroke:#475569;stroke-width:2.125;"/><polygon points="1063.931,727.8,1071.015,745.509,1078.098,727.8,1071.015,734.884" fill="#475569" style="stroke:#475569;stroke-width:1.771;stroke-linejoin:miter;stroke-miterlimit:10;"/><line x1="1103.955" y1="2196.063" x2="1103.955" y2="2231.48" style="stroke:#475569;stroke-width:2.125;"/><polygon points="1096.872,2213.772,1103.955,2231.48,1111.039,2213.772,1103.955,2220.855" fill="#475569" style="stroke:#475569;stroke-width:1.771;stroke-linejoin:miter;stroke-miterlimit:10;"/><line x1="1407.301" y1="2196.063" x2="1407.301" y2="2231.48" style="stroke:#475569;stroke-width:2.125;"/><polygon points="1400.218,2213.772,1407.301,2231.48,1414.385,2213.772,1407.301,2220.855" fill="#475569" style="stroke:#475569;stroke-width:1.771;stroke-linejoin:miter;stroke-miterlimit:10;"/><line x1="1013.615" y1="2008.632" x2="767.669" y2="2008.632" style="stroke:#475569;stroke-width:2.125;"/><line x1="767.669" y1="2008.632" x2="767.669" y2="2099.408" style="stroke:#475569;stroke-width:2.125;"/><polygon points="760.585,2081.699,767.669,2099.408,774.752,2081.699,767.669,2088.783" fill="#475569" style="stroke:#475569;stroke-width:1.771;stroke-linejoin:miter;stroke-miterlimit:10;"/><text x="767.669" y="2062.085" fill="#334155" font-size="19.479" textLength="72.248" font-family="'Segoe UI'">APPLIED</text><line x1="1128.415" y1="2008.632" x2="1407.301" y2="2008.632" style="stroke:#475569;stroke-width:2.125;"/><line x1="1407.301" y1="2008.632" x2="1407.301" y2="2099.408" style="stroke:#475569;stroke-width:2.125;"/><polygon points="1400.218,2081.699,1407.301,2099.408,1414.385,2081.699,1407.301,2088.783" fill="#475569" style="stroke:#475569;stroke-width:1.771;stroke-linejoin:miter;stroke-miterlimit:10;"/><text x="1407.301" y="2062.085" fill="#334155" font-size="19.479" textLength="84.09" font-family="'Segoe UI'">REJECTED</text><line x1="1071.015" y1="2029.882" x2="1071.015" y2="2053.057" style="stroke:#475569;stroke-width:2.125;"/><line x1="1071.015" y1="2053.057" x2="1103.955" y2="2053.057" style="stroke:#475569;stroke-width:2.125;"/><line x1="1103.955" y1="2053.057" x2="1103.955" y2="2099.408" style="stroke:#475569;stroke-width:2.125;"/><polygon points="1096.872,2081.699,1103.955,2099.408,1111.039,2081.699,1103.955,2088.783" fill="#475569" style="stroke:#475569;stroke-width:1.771;stroke-linejoin:miter;stroke-miterlimit:10;"/><text x="1071.015" y="2063.856" fill="#334155" font-size="19.479" textLength="87.447" font-family="'Segoe UI'">CONFLICT</text><line x1="767.669" y1="2196.063" x2="767.669" y2="2384.802" style="stroke:#475569;stroke-width:2.125;"/><line x1="767.669" y1="2384.802" x2="1049.765" y2="2384.802" style="stroke:#475569;stroke-width:2.125;"/><polygon points="1032.056,2377.719,1049.765,2384.802,1032.056,2391.886,1039.14,2384.802" fill="#475569" style="stroke:#475569;stroke-width:1.771;stroke-linejoin:miter;stroke-miterlimit:10;"/><line x1="1407.301" y1="2297.516" x2="1407.301" y2="2384.802" style="stroke:#475569;stroke-width:2.125;"/><line x1="1407.301" y1="2384.802" x2="1092.265" y2="2384.802" style="stroke:#475569;stroke-width:2.125;"/><polygon points="1109.973,2377.719,1092.265,2384.802,1109.973,2391.886,1102.89,2384.802" fill="#475569" style="stroke:#475569;stroke-width:1.771;stroke-linejoin:miter;stroke-miterlimit:10;"/><line x1="1103.955" y1="2328.136" x2="1103.955" y2="2336.99" style="stroke:#475569;stroke-width:2.125;"/><line x1="1103.955" y1="2336.99" x2="1071.015" y2="2336.99" style="stroke:#475569;stroke-width:2.125;"/><line x1="1071.015" y1="2336.99" x2="1071.015" y2="2363.552" style="stroke:#475569;stroke-width:2.125;"/><polygon points="1063.931,2345.844,1071.015,2363.552,1078.098,2345.844,1071.015,2352.927" fill="#475569" style="stroke:#475569;stroke-width:1.771;stroke-linejoin:miter;stroke-miterlimit:10;"/><line x1="1071.015" y1="2406.052" x2="1071.015" y2="2441.469" style="stroke:#475569;stroke-width:2.125;"/><polygon points="1063.931,2423.761,1071.015,2441.469,1078.098,2423.761,1071.015,2430.844" fill="#475569" style="stroke:#475569;stroke-width:1.771;stroke-linejoin:miter;stroke-miterlimit:10;"/><line x1="1071.015" y1="2538.125" x2="1071.015" y2="2573.541" style="stroke:#475569;stroke-width:2.125;"/><polygon points="1063.931,2555.833,1071.015,2573.541,1078.098,2555.833,1071.015,2562.916" fill="#475569" style="stroke:#475569;stroke-width:1.771;stroke-linejoin:miter;stroke-miterlimit:10;"/><line x1="2053.275" y1="1625.239" x2="2053.275" y2="1686.565" style="stroke:#475569;stroke-width:2.125;"/><polygon points="2046.192,1668.857,2053.275,1686.565,2060.359,1668.857,2053.275,1675.94" fill="#475569" style="stroke:#475569;stroke-width:1.771;stroke-linejoin:miter;stroke-miterlimit:10;"/><line x1="2053.275" y1="1752.601" x2="2053.275" y2="1797.387" style="stroke:#475569;stroke-width:2.125;"/><polygon points="2046.192,1779.679,2053.275,1797.387,2060.359,1779.679,2053.275,1786.762" fill="#475569" style="stroke:#475569;stroke-width:1.771;stroke-linejoin:miter;stroke-miterlimit:10;"/><line x1="2414.252" y1="1634.609" x2="2414.252" y2="1695.934" style="stroke:#475569;stroke-width:2.125;"/><polygon points="2407.169,1678.226,2414.252,1695.934,2421.335,1678.226,2414.252,1685.309" fill="#475569" style="stroke:#475569;stroke-width:1.771;stroke-linejoin:miter;stroke-miterlimit:10;"/><line x1="2414.252" y1="1761.971" x2="2414.252" y2="1797.387" style="stroke:#475569;stroke-width:2.125;"/><polygon points="2407.169,1779.679,2414.252,1797.387,2421.335,1779.679,2414.252,1786.762" fill="#475569" style="stroke:#475569;stroke-width:1.771;stroke-linejoin:miter;stroke-miterlimit:10;"/><line x1="2169.79" y1="1603.989" x2="2258.648" y2="1603.989" style="stroke:#475569;stroke-width:2.125;"/><polygon points="2240.94,1596.906,2258.648,1603.989,2240.94,1611.073,2248.023,1603.989" fill="#475569" style="stroke:#475569;stroke-width:1.771;stroke-linejoin:miter;stroke-miterlimit:10;"/><line x1="2438.914" y1="1516.703" x2="2438.914" y2="1556.177" style="stroke:#475569;stroke-width:2.125;"/><line x1="2438.914" y1="1556.177" x2="2053.275" y2="1556.177" style="stroke:#475569;stroke-width:2.125;"/><line x1="2053.275" y1="1556.177" x2="2053.275" y2="1582.739" style="stroke:#475569;stroke-width:2.125;"/><polygon points="2046.192,1565.031,2053.275,1582.739,2060.359,1565.031,2053.275,1572.114" fill="#475569" style="stroke:#475569;stroke-width:1.771;stroke-linejoin:miter;stroke-miterlimit:10;"/><line x1="2569.856" y1="1603.989" x2="2799.891" y2="1603.989" style="stroke:#475569;stroke-width:2.125;"/><line x1="2799.891" y1="1603.989" x2="2799.891" y2="1663.613" style="stroke:#475569;stroke-width:2.125;"/><polygon points="2792.807,1645.905,2799.891,1663.613,2806.974,1645.905,2799.891,1652.988" fill="#475569" style="stroke:#475569;stroke-width:1.771;stroke-linejoin:miter;stroke-miterlimit:10;"/><line x1="2799.891" y1="1760.269" x2="2799.891" y2="1797.387" style="stroke:#475569;stroke-width:2.125;"/><polygon points="2792.807,1779.679,2799.891,1797.387,2806.974,1779.679,2799.891,1786.762" fill="#475569" style="stroke:#475569;stroke-width:1.771;stroke-linejoin:miter;stroke-miterlimit:10;"/><line x1="2053.275" y1="1797.387" x2="2799.891" y2="1797.387" style="stroke:#475569;stroke-width:2.125;"/><line x1="2438.914" y1="1797.387" x2="2438.914" y2="1832.804" style="stroke:#475569;stroke-width:2.125;"/><polygon points="2431.831,1815.096,2438.914,1832.804,2445.997,1815.096,2438.914,1822.179" fill="#475569" style="stroke:#475569;stroke-width:1.771;stroke-linejoin:miter;stroke-miterlimit:10;"/><line x1="2022.527" y1="1411.709" x2="1708.294" y2="1411.709" style="stroke:#475569;stroke-width:2.125;"/><line x1="1708.294" y1="1411.709" x2="1708.294" y2="1450.667" style="stroke:#475569;stroke-width:2.125;"/><polygon points="1701.211,1432.959,1708.294,1450.667,1715.377,1432.959,1708.294,1440.042" fill="#475569" style="stroke:#475569;stroke-width:1.771;stroke-linejoin:miter;stroke-miterlimit:10;"/><line x1="2124.681" y1="1411.709" x2="2438.914" y2="1411.709" style="stroke:#475569;stroke-width:2.125;"/><line x1="2438.914" y1="1411.709" x2="2438.914" y2="1450.667" style="stroke:#475569;stroke-width:2.125;"/><polygon points="2431.831,1432.959,2438.914,1450.667,2445.997,1432.959,2438.914,1440.042" fill="#475569" style="stroke:#475569;stroke-width:1.771;stroke-linejoin:miter;stroke-miterlimit:10;"/><line x1="1708.294" y1="1547.323" x2="1708.294" y2="1930.715" style="stroke:#475569;stroke-width:2.125;"/><line x1="1708.294" y1="1930.715" x2="2052.354" y2="1930.715" style="stroke:#475569;stroke-width:2.125;"/><polygon points="2034.646,1923.632,2052.354,1930.715,2034.646,1937.798,2041.729,1930.715" fill="#475569" style="stroke:#475569;stroke-width:1.771;stroke-linejoin:miter;stroke-miterlimit:10;"/><line x1="2438.914" y1="1898.84" x2="2438.914" y2="1930.715" style="stroke:#475569;stroke-width:2.125;"/><line x1="2438.914" y1="1930.715" x2="2094.854" y2="1930.715" style="stroke:#475569;stroke-width:2.125;"/><polygon points="2112.562,1923.632,2094.854,1930.715,2112.562,1937.798,2105.479,1930.715" fill="#475569" style="stroke:#475569;stroke-width:1.771;stroke-linejoin:miter;stroke-miterlimit:10;"/><line x1="2073.604" y1="1355.042" x2="2073.604" y2="1390.459" style="stroke:#475569;stroke-width:2.125;"/><polygon points="2066.521,1372.75,2073.604,1390.459,2080.687,1372.75,2073.604,1379.834" fill="#475569" style="stroke:#475569;stroke-width:1.771;stroke-linejoin:miter;stroke-miterlimit:10;"/><line x1="324.297" y1="344.495" x2="324.297" y2="353.349" style="stroke:#475569;stroke-width:2.125;"/><line x1="324.297" y1="353.349" x2="1071.015" y2="353.349" style="stroke:#475569;stroke-width:2.125;"/><line x1="1071.015" y1="353.349" x2="1071.015" y2="379.911" style="stroke:#475569;stroke-width:2.125;"/><polygon points="1063.931,362.203,1071.015,379.911,1078.098,362.203,1071.015,369.286" fill="#475569" style="stroke:#475569;stroke-width:1.771;stroke-linejoin:miter;stroke-miterlimit:10;"/><line x1="1071.015" y1="1222.97" x2="1071.015" y2="1231.824" style="stroke:#475569;stroke-width:2.125;"/><line x1="1071.015" y1="1231.824" x2="2073.604" y2="1231.824" style="stroke:#475569;stroke-width:2.125;"/><line x1="2073.604" y1="1231.824" x2="2073.604" y2="1258.386" style="stroke:#475569;stroke-width:2.125;"/><polygon points="2066.521,1240.678,2073.604,1258.386,2080.687,1240.678,2073.604,1247.761" fill="#475569" style="stroke:#475569;stroke-width:1.771;stroke-linejoin:miter;stroke-miterlimit:10;"/><line x1="2073.604" y1="1951.965" x2="2073.604" y2="1960.819" style="stroke:#475569;stroke-width:2.125;"/><line x1="2073.604" y1="1960.819" x2="1071.015" y2="1960.819" style="stroke:#475569;stroke-width:2.125;"/><line x1="1071.015" y1="1960.819" x2="1071.015" y2="1987.382" style="stroke:#475569;stroke-width:2.125;"/><polygon points="1063.931,1969.673,1071.015,1987.382,1078.098,1969.673,1071.015,1976.757" fill="#475569" style="stroke:#475569;stroke-width:1.771;stroke-linejoin:miter;stroke-miterlimit:10;"/><text x="280.048" y="131.754" fill="#0F172A" font-size="23.021" textLength="84.957" font-family="'Segoe UI'">Clinician</text><text x="1014.463" y="131.754" fill="#0F172A" font-size="23.021" textLength="109.563" font-family="'Segoe UI'">Phone app</text><text x="2207.814" y="131.754" fill="#0F172A" font-size="23.021" textLength="85.609" font-family="'Segoe UI'">Backend</text><?plantuml-src XLJ1SY8t4BthApfS0hMpsTsaze8FBWTmoebhJS2LKov2Qa3n84qa3MIg-FYyrWnurvSzK42hrU_rwzVwmNbJjvOfvQxcdrnxg5LskMPQwwFpEsfqTknp8kqj9HEPFSA9JYxlASJo7TfCpcUEdZEDjSdkw79NqVtg_STV9agTPxNppZZjpofb7REQhdZd4cv82ROkaxuWLHAAR4Aq25uHrHRXu9d6SRZA5lyfxrsYPe-JSj66aw-3jcmLwrWxZfCfBTTt5MrHgFyrNoqgMZwyNztDrnKTGzqUSDc7pEb6dPTIYtJJdDLqjcVp0WYcewvRJW3NViUf0i5_MoSKjevhcoOtQWh163AKz4BenqJiJUoQZ3ohizxe1FxhFnzdhjc3cH9DjSN7KsWuGW3fA9GI47KJ_gjK4LgJvnCvouS6DBtfw8KxmTm7XA5Uef7W5qai7vtXqOroMne_UMZFjnEfwMdimqGHJVzWRkHU-8hkZHoiECUEQYsZ6VzCwDI6TeCIkufqfaD8cJvzfeFp5T8BjtzSHlQaoA-bfE7-OBJkl86kfv6KjforsIlsrcr17DzzcxLbrBosdqJ2ZSvc3xd3bZv_LEFbq_gPFYHK0yf1nnVqEKfIoUzG-_ohDY_uXu7TYvq0yrgladhm4iUfEa6cufStGbA2nsZ3i1ZVzhAj4RcArd6Q3EAqiLSivI3JZvpQ6lBljFF866j4H43FHmYOC14WdZ0D68HhcVumW5TdWUZ1fIIJruCcMsrSZGqIsOJCNxfsjfpgkWudjc_6ATGMlozcpujvHODV8kiKl5GGNAboTzcmVk74ZCKksl_jPGhWor5euoDqthOlh9--t3y-p9u7b294kGEhcz1q5xW--swvV7nOpAT51nd34kxPHSO2L2LZ0A9tz0dkQeKLTFEvb2a-GPMrA5sW1h5RBrmbK7QWJ_nwRHF8mGBZLSc_dIXJzcwWCqpo4C1f6yFXcsKZIh9HnRbiuQt-wgNlrztP1FIFbXqUW-kjBymM3oNMmOlrYksdrxSFTBb9tuY6Sv5DDWTXXmVkv2-ObuaMpBBdlGOoLe7y7ffroUY839UBIBqgQZeVNaWo-_AMqRP7lxfEZNzR3ElsOSYfQDEHQMCA4KQ6zvl_0G00?></g></svg>