<svg xmlns="http://www.w3.org/2000/svg" xmlns:xlink="http://www.w3.org/1999/xlink" version="1.1" data-diagram-type="DESCRIPTION" style="width:2921px;height:1763px;background:#FFFFFF;" width="2921.875px" height="1763.75px" viewBox="0 0 2921 1763" zoomAndPan="magnify" preserveAspectRatio="none" contentStyleType="text/css"><?plantuml 1.2026.8?><defs/><g font-family="sans-serif" lengthAdjust="spacing"><g class="title" data-source-line="2"><text x="945.813" y="50.194" fill="#1E3A8A" font-size="30.104" textLength="1017.853" font-weight="700" font-family="'Segoe UI'">Backend modules and their dependencies (NestJS, component diagram)</text></g><!--cluster gateway--><g class="cluster" data-qualified-name="gateway" id="ent0001" data-source-line="6"><path d="M1655.729,87.853 L1736.288,87.853 A15.938,15.938 0 0 1 1746.913,98.478 L1759.309,129.098 L2884.688,129.098 A10.625,10.625 0 0 1 2895.313,139.723 L2895.313,314.29 A10.625,10.625 0 0 1 2884.688,324.915 L1655.729,324.915 A10.625,10.625 0 0 1 1645.104,314.29 L1645.104,98.478 A10.625,10.625 0 0 1 1655.729,87.853" style="stroke:#94A3B8;stroke-width:2.656;" fill="#F8FAFC"/><line x1="1645.104" y1="129.098" x2="1759.309" y2="129.098" style="stroke:#94A3B8;stroke-width:2.656;"/><text x="1652.188" y="116.237" fill="#1E3A8A" font-size="23.021" textLength="91.184" font-weight="700" font-family="'Segoe UI'">gateway</text></g><!--cluster services--><g class="cluster" data-qualified-name="services" id="ent0005" data-source-line="12"><path d="M575.521,103.171 L649.291,103.171 A15.938,15.938 0 0 1 659.916,113.796 L672.311,144.416 L1591.979,144.416 A10.625,10.625 0 0 1 1602.604,155.041 L1602.604,1006.757 A10.625,10.625 0 0 1 1591.979,1017.382 L575.521,1017.382 A10.625,10.625 0 0 1 564.896,1006.757 L564.896,113.796 A10.625,10.625 0 0 1 575.521,103.171" style="stroke:#94A3B8;stroke-width:2.656;" fill="#F8FAFC"/><line x1="564.896" y1="144.416" x2="672.311" y2="144.416" style="stroke:#94A3B8;stroke-width:2.656;"/><text x="571.979" y="131.555" fill="#1E3A8A" font-size="23.021" textLength="84.395" font-weight="700" font-family="'Segoe UI'">services</text></g><!--cluster persistence and shared--><g class="cluster" data-qualified-name="persistence and shared" id="ent0017" data-source-line="26"><path d="M21.25,1075.819 L257.672,1075.819 A15.938,15.938 0 0 1 268.297,1086.444 L280.693,1117.064 L1032.396,1117.064 A10.625,10.625 0 0 1 1043.021,1127.689 L1043.021,1728.07 A10.625,10.625 0 0 1 1032.396,1738.695 L21.25,1738.695 A10.625,10.625 0 0 1 10.625,1728.07 L10.625,1086.444 A10.625,10.625 0 0 1 21.25,1075.819" style="stroke:#94A3B8;stroke-width:2.656;" fill="#F8FAFC"/><line x1="10.625" y1="1117.064" x2="280.693" y2="1117.064" style="stroke:#94A3B8;stroke-width:2.656;"/><text x="17.708" y="1104.203" fill="#1E3A8A" font-size="23.021" textLength="247.047" font-weight="700" font-family="'Segoe UI'">persistence and shared</text></g><!--entity guards--><g class="entity" data-qualified-name="gateway.guards" id="ent0002" data-source-line="7"><rect x="1673.916" y="151.603" width="487.794" height="144.984" fill="#EFF6FF" style="stroke:#2563EB;stroke-width:0.885;" rx="10.625" ry="10.625"/><rect x="2126.293" y="160.458" width="26.563" height="17.708" fill="#EFF6FF" style="stroke:#2563EB;stroke-width:0.885;"/><rect x="2122.751" y="163.999" width="7.083" height="3.542" fill="#EFF6FF" style="stroke:#2563EB;stroke-width:0.885;"/><rect x="2122.751" y="171.083" width="7.083" height="3.542" fill="#EFF6FF" style="stroke:#2563EB;stroke-width:0.885;"/><text x="1700.478" y="211.862" fill="#0F172A" font-size="23.021" textLength="168.149" font-family="'Segoe UI'">Guards, in order:</text><text x="1700.478" y="242.481" fill="#0F172A" font-size="23.021" textLength="393.906" font-family="'Segoe UI'">AppThrottlerGuard → JwtAuthGuard →</text><text x="1700.478" y="273.101" fill="#0F172A" font-size="23.021" textLength="416.96" font-family="'Segoe UI'">UserRateLimitGuard → PermissionsGuard</text></g><!--entity http--><g class="entity" data-qualified-name="gateway.http" id="ent0003" data-source-line="8"><rect x="2201.181" y="166.921" width="336.393" height="114.364" fill="#EFF6FF" style="stroke:#2563EB;stroke-width:0.885;" rx="10.625" ry="10.625"/><rect x="2502.158" y="175.775" width="26.563" height="17.708" fill="#EFF6FF" style="stroke:#2563EB;stroke-width:0.885;"/><rect x="2498.616" y="179.317" width="7.083" height="3.542" fill="#EFF6FF" style="stroke:#2563EB;stroke-width:0.885;"/><rect x="2498.616" y="186.4" width="7.083" height="3.542" fill="#EFF6FF" style="stroke:#2563EB;stroke-width:0.885;"/><text x="2227.744" y="227.18" fill="#0F172A" font-size="23.021" textLength="242.416" font-family="'Segoe UI'">Validation, error bodies,</text><text x="2227.744" y="257.799" fill="#0F172A" font-size="23.021" textLength="265.56" font-family="'Segoe UI'">security headers, OpenAPI</text></g><!--entity health--><g class="entity" data-qualified-name="gateway.health" id="ent0004" data-source-line="9"><rect x="2575.836" y="166.921" width="291.858" height="114.364" fill="#EFF6FF" style="stroke:#2563EB;stroke-width:0.885;" rx="10.625" ry="10.625"/><rect x="2832.278" y="175.775" width="26.563" height="17.708" fill="#EFF6FF" style="stroke:#2563EB;stroke-width:0.885;"/><rect x="2828.736" y="179.317" width="7.083" height="3.542" fill="#EFF6FF" style="stroke:#2563EB;stroke-width:0.885;"/><rect x="2828.736" y="186.4" width="7.083" height="3.542" fill="#EFF6FF" style="stroke:#2563EB;stroke-width:0.885;"/><text x="2602.399" y="227.18" fill="#0F172A" font-size="23.021" textLength="66.5" font-family="'Segoe UI'">Health</text><text x="2602.399" y="257.799" fill="#0F172A" font-size="23.021" textLength="221.025" font-family="'Segoe UI'">/health, /health/ready</text></g><!--entity auth--><g class="entity" data-qualified-name="services.auth" id="ent0006" data-source-line="13"><rect x="592.645" y="422.311" width="231.372" height="144.984" fill="#EFF6FF" style="stroke:#2563EB;stroke-width:0.885;" rx="10.625" ry="10.625"/><rect x="788.6" y="431.165" width="26.563" height="17.708" fill="#EFF6FF" style="stroke:#2563EB;stroke-width:0.885;"/><rect x="785.059" y="434.707" width="7.083" height="3.542" fill="#EFF6FF" style="stroke:#2563EB;stroke-width:0.885;"/><rect x="785.059" y="441.79" width="7.083" height="3.542" fill="#EFF6FF" style="stroke:#2563EB;stroke-width:0.885;"/><text x="619.207" y="482.569" fill="#0F172A" font-size="23.021" textLength="48.706" font-family="'Segoe UI'">Auth</text><text x="619.207" y="513.189" fill="#0F172A" font-size="23.021" textLength="160.539" font-family="'Segoe UI'">(sign-in, tokens,</text><text x="619.207" y="543.808" fill="#0F172A" font-size="23.021" textLength="159.37" font-family="'Segoe UI'">password reset)</text></g><!--entity users--><g class="entity" data-qualified-name="services.users" id="ent0007" data-source-line="14"><rect x="946.262" y="182.221" width="126.227" height="83.745" fill="#EFF6FF" style="stroke:#2563EB;stroke-width:0.885;" rx="10.625" ry="10.625"/><rect x="1037.073" y="191.075" width="26.563" height="17.708" fill="#EFF6FF" style="stroke:#2563EB;stroke-width:0.885;"/><rect x="1033.531" y="194.617" width="7.083" height="3.542" fill="#EFF6FF" style="stroke:#2563EB;stroke-width:0.885;"/><rect x="1033.531" y="201.7" width="7.083" height="3.542" fill="#EFF6FF" style="stroke:#2563EB;stroke-width:0.885;"/><text x="972.825" y="242.48" fill="#0F172A" font-size="23.021" textLength="55.394" font-family="'Segoe UI'">Users</text></g><!--entity admin--><g class="entity" data-qualified-name="services.admin" id="ent0008" data-source-line="15"><rect x="968.486" y="677.098" width="283.641" height="144.984" fill="#EFF6FF" style="stroke:#2563EB;stroke-width:0.885;" rx="10.625" ry="10.625"/><rect x="1216.711" y="685.952" width="26.563" height="17.708" fill="#EFF6FF" style="stroke:#2563EB;stroke-width:0.885;"/><rect x="1213.169" y="689.494" width="7.083" height="3.542" fill="#EFF6FF" style="stroke:#2563EB;stroke-width:0.885;"/><rect x="1213.169" y="696.577" width="7.083" height="3.542" fill="#EFF6FF" style="stroke:#2563EB;stroke-width:0.885;"/><text x="995.049" y="737.357" fill="#0F172A" font-size="23.021" textLength="66.837" font-family="'Segoe UI'">Admin</text><text x="995.049" y="767.976" fill="#0F172A" font-size="23.021" textLength="117.498" font-family="'Segoe UI'">(roles, links,</text><text x="995.049" y="798.596" fill="#0F172A" font-size="23.021" textLength="212.808" font-family="'Segoe UI'">activity, audit viewer)</text></g><!--entity patients--><g class="entity" data-qualified-name="services.patients" id="ent0009" data-source-line="16"><rect x="660.946" y="905.305" width="151.451" height="83.745" fill="#EFF6FF" style="stroke:#2563EB;stroke-width:0.885;" rx="10.625" ry="10.625"/><rect x="776.98" y="914.16" width="26.563" height="17.708" fill="#EFF6FF" style="stroke:#2563EB;stroke-width:0.885;"/><rect x="773.439" y="917.701" width="7.083" height="3.542" fill="#EFF6FF" style="stroke:#2563EB;stroke-width:0.885;"/><rect x="773.439" y="924.785" width="7.083" height="3.542" fill="#EFF6FF" style="stroke:#2563EB;stroke-width:0.885;"/><text x="687.508" y="965.564" fill="#0F172A" font-size="23.021" textLength="80.618" font-family="'Segoe UI'">Patients</text></g><!--entity clinical--><g class="entity" data-qualified-name="services.clinical" id="ent0010" data-source-line="17"><rect x="635.8" y="692.398" width="251.302" height="114.364" fill="#EFF6FF" style="stroke:#2563EB;stroke-width:0.885;" rx="10.625" ry="10.625"/><rect x="851.685" y="701.252" width="26.563" height="17.708" fill="#EFF6FF" style="stroke:#2563EB;stroke-width:0.885;"/><rect x="848.143" y="704.794" width="7.083" height="3.542" fill="#EFF6FF" style="stroke:#2563EB;stroke-width:0.885;"/><rect x="848.143" y="711.877" width="7.083" height="3.542" fill="#EFF6FF" style="stroke:#2563EB;stroke-width:0.885;"/><text x="662.363" y="752.657" fill="#0F172A" font-size="23.021" textLength="71.929" font-family="'Segoe UI'">Clinical</text><text x="662.363" y="783.276" fill="#0F172A" font-size="23.021" textLength="180.468" font-family="'Segoe UI'">(records, consent)</text></g><!--entity sync--><g class="entity" data-qualified-name="services.sync" id="ent0011" data-source-line="18"><rect x="1166.483" y="452.946" width="117.864" height="83.745" fill="#EFF6FF" style="stroke:#2563EB;stroke-width:0.885;" rx="10.625" ry="10.625"/><rect x="1248.931" y="461.8" width="26.563" height="17.708" fill="#EFF6FF" style="stroke:#2563EB;stroke-width:0.885;"/><rect x="1245.389" y="465.342" width="7.083" height="3.542" fill="#EFF6FF" style="stroke:#2563EB;stroke-width:0.885;"/><rect x="1245.389" y="472.425" width="7.083" height="3.542" fill="#EFF6FF" style="stroke:#2563EB;stroke-width:0.885;"/><text x="1193.046" y="513.205" fill="#0F172A" font-size="23.021" textLength="47.031" font-family="'Segoe UI'">Sync</text></g><!--entity imaging--><g class="entity" data-qualified-name="services.imaging" id="ent0012" data-source-line="19"><rect x="1290.69" y="692.398" width="283.832" height="114.364" fill="#EFF6FF" style="stroke:#2563EB;stroke-width:0.885;" rx="10.625" ry="10.625"/><rect x="1539.105" y="701.252" width="26.563" height="17.708" fill="#EFF6FF" style="stroke:#2563EB;stroke-width:0.885;"/><rect x="1535.563" y="704.794" width="7.083" height="3.542" fill="#EFF6FF" style="stroke:#2563EB;stroke-width:0.885;"/><rect x="1535.563" y="711.877" width="7.083" height="3.542" fill="#EFF6FF" style="stroke:#2563EB;stroke-width:0.885;"/><text x="1317.252" y="752.657" fill="#0F172A" font-size="23.021" textLength="83.383" font-family="'Segoe UI'">Imaging</text><text x="1317.252" y="783.276" fill="#0F172A" font-size="23.021" textLength="212.999" font-family="'Segoe UI'">(scans, slides, review)</text></g><!--entity ai--><g class="entity" data-qualified-name="services.ai" id="ent0013" data-source-line="20"><rect x="863.618" y="422.311" width="263.172" height="144.984" fill="#EFF6FF" style="stroke:#2563EB;stroke-width:0.885;" rx="10.625" ry="10.625"/><rect x="1091.373" y="431.165" width="26.563" height="17.708" fill="#EFF6FF" style="stroke:#2563EB;stroke-width:0.885;"/><rect x="1087.831" y="434.707" width="7.083" height="3.542" fill="#EFF6FF" style="stroke:#2563EB;stroke-width:0.885;"/><rect x="1087.831" y="441.79" width="7.083" height="3.542" fill="#EFF6FF" style="stroke:#2563EB;stroke-width:0.885;"/><text x="890.18" y="482.569" fill="#0F172A" font-size="23.021" textLength="20.975" font-family="'Segoe UI'">AI</text><text x="890.18" y="513.189" fill="#0F172A" font-size="23.021" textLength="192.339" font-family="'Segoe UI'">(broker, job queue,</text><text x="890.18" y="543.808" fill="#0F172A" font-size="23.021" textLength="84.046" font-family="'Segoe UI'">fairness)</text></g><!--entity chatbot--><g class="entity" data-qualified-name="services.chatbot" id="ent0014" data-source-line="21"><rect x="1111.995" y="182.221" width="152.452" height="83.745" fill="#EFF6FF" style="stroke:#2563EB;stroke-width:0.885;" rx="10.625" ry="10.625"/><rect x="1229.03" y="191.075" width="26.563" height="17.708" fill="#EFF6FF" style="stroke:#2563EB;stroke-width:0.885;"/><rect x="1225.488" y="194.617" width="7.083" height="3.542" fill="#EFF6FF" style="stroke:#2563EB;stroke-width:0.885;"/><rect x="1225.488" y="201.7" width="7.083" height="3.542" fill="#EFF6FF" style="stroke:#2563EB;stroke-width:0.885;"/><text x="1138.557" y="242.48" fill="#0F172A" font-size="23.021" textLength="81.618" font-family="'Segoe UI'">Chatbot</text></g><!--entity fhir--><g class="entity" data-qualified-name="services.fhir" id="ent0015" data-source-line="22"><rect x="593.831" y="166.921" width="314.013" height="114.364" fill="#EFF6FF" style="stroke:#2563EB;stroke-width:0.885;" rx="10.625" ry="10.625"/><rect x="872.428" y="175.775" width="26.563" height="17.708" fill="#EFF6FF" style="stroke:#2563EB;stroke-width:0.885;"/><rect x="868.886" y="179.317" width="7.083" height="3.542" fill="#EFF6FF" style="stroke:#2563EB;stroke-width:0.885;"/><rect x="868.886" y="186.4" width="7.083" height="3.542" fill="#EFF6FF" style="stroke:#2563EB;stroke-width:0.885;"/><text x="620.394" y="227.18" fill="#0F172A" font-size="23.021" textLength="119.218" font-family="'Segoe UI'">FHIR export</text><text x="620.394" y="257.799" fill="#0F172A" font-size="23.021" textLength="243.18" font-family="'Segoe UI'">(+ SmartCare Pro client)</text></g><!--entity notifications--><g class="entity" data-qualified-name="services.notifications" id="ent0016" data-source-line="23"><rect x="851.08" y="905.305" width="199.707" height="83.745" fill="#EFF6FF" style="stroke:#2563EB;stroke-width:0.885;" rx="10.625" ry="10.625"/><rect x="1015.371" y="914.16" width="26.563" height="17.708" fill="#EFF6FF" style="stroke:#2563EB;stroke-width:0.885;"/><rect x="1011.829" y="917.701" width="7.083" height="3.542" fill="#EFF6FF" style="stroke:#2563EB;stroke-width:0.885;"/><rect x="1011.829" y="924.785" width="7.083" height="3.542" fill="#EFF6FF" style="stroke:#2563EB;stroke-width:0.885;"/><text x="877.643" y="965.564" fill="#0F172A" font-size="23.021" textLength="128.874" font-family="'Segoe UI'">Notifications</text></g><!--entity audit--><g class="entity" data-qualified-name="persistence and shared.audit" id="ent0018" data-source-line="27"><rect x="38.569" y="1154.887" width="333.684" height="114.364" fill="#EFF6FF" style="stroke:#2563EB;stroke-width:0.885;" rx="10.625" ry="10.625"/><rect x="336.837" y="1163.741" width="26.563" height="17.708" fill="#EFF6FF" style="stroke:#2563EB;stroke-width:0.885;"/><rect x="333.295" y="1167.283" width="7.083" height="3.542" fill="#EFF6FF" style="stroke:#2563EB;stroke-width:0.885;"/><rect x="333.295" y="1174.366" width="7.083" height="3.542" fill="#EFF6FF" style="stroke:#2563EB;stroke-width:0.885;"/><text x="65.131" y="1215.145" fill="#0F172A" font-size="23.021" textLength="54.809" font-family="'Segoe UI'">Audit</text><text x="65.131" y="1245.765" fill="#0F172A" font-size="23.021" textLength="262.851" font-family="'Segoe UI'">(append-only, hash chain)</text></g><!--entity crypto--><g class="entity" data-qualified-name="persistence and shared.crypto" id="ent0019" data-source-line="28"><rect x="412.108" y="1139.569" width="287.879" height="144.984" fill="#EFF6FF" style="stroke:#2563EB;stroke-width:0.885;" rx="10.625" ry="10.625"/><rect x="664.571" y="1148.423" width="26.563" height="17.708" fill="#EFF6FF" style="stroke:#2563EB;stroke-width:0.885;"/><rect x="661.029" y="1151.965" width="7.083" height="3.542" fill="#EFF6FF" style="stroke:#2563EB;stroke-width:0.885;"/><rect x="661.029" y="1159.048" width="7.083" height="3.542" fill="#EFF6FF" style="stroke:#2563EB;stroke-width:0.885;"/><text x="438.671" y="1199.828" fill="#0F172A" font-size="23.021" textLength="68.219" font-family="'Segoe UI'">Crypto</text><text x="438.671" y="1230.447" fill="#0F172A" font-size="23.021" textLength="217.046" font-family="'Segoe UI'">(AES-256-GCM fields,</text><text x="438.671" y="1261.067" fill="#0F172A" font-size="23.021" textLength="159.696" font-family="'Segoe UI'">HMAC lookups)</text></g><!--entity storage--><g class="entity" data-qualified-name="persistence and shared.storage" id="ent0020" data-source-line="29"><rect x="739.164" y="1154.887" width="274.795" height="114.364" fill="#EFF6FF" style="stroke:#2563EB;stroke-width:0.885;" rx="10.625" ry="10.625"/><rect x="978.542" y="1163.741" width="26.563" height="17.708" fill="#EFF6FF" style="stroke:#2563EB;stroke-width:0.885;"/><rect x="975" y="1167.283" width="7.083" height="3.542" fill="#EFF6FF" style="stroke:#2563EB;stroke-width:0.885;"/><rect x="975" y="1174.366" width="7.083" height="3.542" fill="#EFF6FF" style="stroke:#2563EB;stroke-width:0.885;"/><text x="765.726" y="1215.145" fill="#0F172A" font-size="23.021" textLength="78.831" font-family="'Segoe UI'">Storage</text><text x="765.726" y="1245.765" fill="#0F172A" font-size="23.021" textLength="203.961" font-family="'Segoe UI'">(local or S3 / MinIO)</text></g><!--entity db--><g class="entity" data-qualified-name="persistence and shared.db" id="ent0021" data-source-line="30"><rect x="39.773" y="1367.776" width="359.605" height="144.984" fill="#EFF6FF" style="stroke:#2563EB;stroke-width:0.885;" rx="10.625" ry="10.625"/><rect x="363.962" y="1376.63" width="26.563" height="17.708" fill="#EFF6FF" style="stroke:#2563EB;stroke-width:0.885;"/><rect x="360.42" y="1380.172" width="7.083" height="3.542" fill="#EFF6FF" style="stroke:#2563EB;stroke-width:0.885;"/><rect x="360.42" y="1387.255" width="7.083" height="3.542" fill="#EFF6FF" style="stroke:#2563EB;stroke-width:0.885;"/><text x="66.335" y="1428.035" fill="#0F172A" font-size="23.021" textLength="94.421" font-family="'Segoe UI'">Database</text><text x="66.335" y="1458.654" fill="#0F172A" font-size="23.021" textLength="230.163" font-family="'Segoe UI'">(Prisma → PostgreSQL,</text><text x="66.335" y="1489.274" fill="#0F172A" font-size="23.021" textLength="288.772" font-family="'Segoe UI'">MongoService → MongoDB)</text></g><!--entity config--><g class="entity" data-qualified-name="persistence and shared.config" id="ent0022" data-source-line="31"><rect x="66.141" y="1596.001" width="306.876" height="114.364" fill="#EFF6FF" style="stroke:#2563EB;stroke-width:0.885;" rx="10.625" ry="10.625"/><rect x="337.6" y="1604.855" width="26.563" height="17.708" fill="#EFF6FF" style="stroke:#2563EB;stroke-width:0.885;"/><rect x="334.058" y="1608.397" width="7.083" height="3.542" fill="#EFF6FF" style="stroke:#2563EB;stroke-width:0.885;"/><rect x="334.058" y="1615.48" width="7.083" height="3.542" fill="#EFF6FF" style="stroke:#2563EB;stroke-width:0.885;"/><text x="92.703" y="1656.26" fill="#0F172A" font-size="23.021" textLength="67.107" font-family="'Segoe UI'">Config</text><text x="92.703" y="1686.879" fill="#0F172A" font-size="23.021" textLength="236.042" font-family="'Segoe UI'">(.env, validated at start)</text></g><g class="entity" data-qualified-name="GMN44" id="ent0045" data-source-line="57"><path d="M1070.788,1171.444 L1070.788,1252.695 A10.625,10.625 0 0 0 1081.413,1263.32 L1457.967,1263.32 A10.625,10.625 0 0 0 1468.592,1252.695 L1468.592,1178.527 L1450.884,1160.819 L1081.413,1160.819 A10.625,10.625 0 0 0 1070.788,1171.444" style="stroke:#D97706;stroke-width:0.885;" fill="#FFFBEB"/><path d="M1450.884,1160.819 L1450.884,1173.215 A5.313,5.313 0 0 0 1456.196,1178.527 L1468.592,1178.527 L1450.884,1160.819" style="stroke:#D97706;stroke-width:1.771;" fill="#FFFBEB"/><text x="1081.413" y="1192.604" fill="#0F172A" font-size="21.25" textLength="346.008" font-family="'Segoe UI'">Used by every service module except</text><text x="1081.413" y="1220.868" fill="#0F172A" font-size="21.25" textLength="360.617" font-family="'Segoe UI'">Notifications. Database and Config are</text><text x="1081.413" y="1249.132" fill="#0F172A" font-size="21.25" textLength="338.672" font-family="'Segoe UI'">used by all of them (arrows left out).</text></g><!--link guards to auth--><g class="link" data-entity-1="ent0002" data-entity-2="ent0006" id="lnk23" data-source-line="34" data-link-type="dependency"><path d="M1738.586,297.308 C1693.094,313.192 1643.882,328.439 1597.292,339.082 C1515.284,357.852 925.207,397.909 844.688,422.311 C838.047,424.329 839.617,423.488 832.941,426.056" style="stroke:#475569;stroke-width:2.125;stroke-dasharray:12.396,12.396;" fill="none" id="guards-to-auth"/><polygon points="824.677,429.235,842.095,430.125,832.941,426.056,837.01,416.902,824.677,429.235" fill="#475569" style="stroke:#475569;stroke-width:2.125;stroke-linejoin:miter;stroke-miterlimit:10;"/><text x="1481.993" y="376.039" fill="#334155" font-size="19.479" textLength="207.622" font-family="'Segoe UI'">verifies the access token</text></g><!--link users to auth--><g class="link" data-entity-1="ent0007" data-entity-2="ent0006" id="lnk24" data-source-line="35" data-link-type="dependency"><path d="M984.831,266.672 C970.009,289.445 949.786,317.477 927.917,339.082 C897.122,369.522 867.002,393.143 831.869,417.279" style="stroke:#475569;stroke-width:2.125;" fill="none" id="users-to-auth"/><polygon points="824.571,422.293,841.718,419.107,831.869,417.279,833.696,407.43,824.571,422.293" fill="#475569" style="stroke:#475569;stroke-width:2.125;stroke-linejoin:miter;stroke-miterlimit:10;"/><text x="913.927" y="376.039" fill="#334155" font-size="19.479" textLength="154.397" font-family="'Segoe UI'">password hashing</text></g><!--link admin to notifications--><g class="link" data-entity-1="ent0008" data-entity-2="ent0016" id="lnk25" data-source-line="36" data-link-type="dependency"><path d="M1051.875,822.519 C1029.137,850.197 1009.523,874.079 989.973,897.879" style="stroke:#475569;stroke-width:2.125;" fill="none" id="admin-to-notifications"/><polygon points="984.353,904.721,999.943,896.902,989.973,897.879,988.996,887.91,984.353,904.721" fill="#475569" style="stroke:#475569;stroke-width:2.125;stroke-linejoin:miter;stroke-miterlimit:10;"/></g><!--link clinical to patients--><g class="link" data-entity-1="ent0010" data-entity-2="ent0009" id="lnk26" data-source-line="37" data-link-type="dependency"><path d="M754.286,807.485 C750.32,838.598 746.569,867.799 742.974,896.026" style="stroke:#475569;stroke-width:2.125;" fill="none" id="clinical-to-patients"/><polygon points="741.855,904.81,750.895,889.895,742.974,896.026,736.842,888.105,741.855,904.81" fill="#475569" style="stroke:#475569;stroke-width:2.125;stroke-linejoin:miter;stroke-miterlimit:10;"/></g><!--link clinical to notifications--><g class="link" data-entity-1="ent0010" data-entity-2="ent0016" id="lnk27" data-source-line="38" data-link-type="dependency"><path d="M816.266,807.485 C846.653,838.598 877.547,870.249 905.119,898.476" style="stroke:#475569;stroke-width:2.125;" fill="none" id="clinical-to-notifications"/><polygon points="911.306,904.81,905.237,888.459,905.119,898.476,895.103,898.358,911.306,904.81" fill="#475569" style="stroke:#475569;stroke-width:2.125;stroke-linejoin:miter;stroke-miterlimit:10;"/></g><!--link sync to patients--><g class="link" data-entity-1="ent0011" data-entity-2="ent0009" id="lnk28" data-source-line="39" data-link-type="dependency"><path d="M1182.988,537.273 C1171.335,547.597 1158.391,558.311 1145.729,567.307 C1064.147,625.248 1011.571,598.863 949.167,677.098 C907.304,729.586 945.359,767.198 906.667,822.076 C882.495,856.342 853.245,879.997 820.077,900.857" style="stroke:#475569;stroke-width:2.125;" fill="none" id="sync-to-patients"/><polygon points="812.582,905.571,829.844,903.082,820.077,900.857,822.302,891.09,812.582,905.571" fill="#475569" style="stroke:#475569;stroke-width:2.125;stroke-linejoin:miter;stroke-miterlimit:10;"/></g><!--link sync to clinical--><g class="link" data-entity-1="ent0011" data-entity-2="ent0010" id="lnk29" data-source-line="40" data-link-type="dependency"><path d="M1188.07,537.326 C1175.639,548.66 1161.047,559.887 1145.729,567.307 C1052.92,612.268 1003.974,552.166 917.292,608.036 C904.453,616.305 908.154,625.124 897.813,636.369 C879.803,655.937 865.154,669.49 844.595,686.224" style="stroke:#475569;stroke-width:2.125;" fill="none" id="sync-to-clinical"/><polygon points="837.728,691.814,854.56,687.246,844.595,686.224,845.617,676.259,837.728,691.814" fill="#475569" style="stroke:#475569;stroke-width:2.125;stroke-linejoin:miter;stroke-miterlimit:10;"/></g><!--link imaging to patients--><g class="link" data-entity-1="ent0012" data-entity-2="ent0009" id="lnk30" data-source-line="41" data-link-type="dependency"><path d="M1312.294,807.644 C1298.694,812.974 1284.881,817.915 1271.458,822.076 C1081.696,880.868 1022.532,848.09 832.292,905.305 C825.917,907.218 827.709,906.422 821.193,908.777" style="stroke:#475569;stroke-width:2.125;" fill="none" id="imaging-to-patients"/><polygon points="812.866,911.787,830.262,913.031,821.193,908.777,825.447,899.708,812.866,911.787" fill="#475569" style="stroke:#475569;stroke-width:2.125;stroke-linejoin:miter;stroke-miterlimit:10;"/></g><!--link ai to patients--><g class="link" data-entity-1="ent0013" data-entity-2="ent0009" id="lnk31" data-source-line="42" data-link-type="dependency"><path d="M863.21,558.063 C856.34,561.197 849.557,564.296 842.917,567.307 C740.97,613.525 674.599,581.562 616.25,677.098 C582.657,732.083 591.954,762.399 616.25,822.076 C629.46,854.5 649.06,877.235 673.71,898.679" style="stroke:#475569;stroke-width:2.125;" fill="none" id="ai-to-patients"/><polygon points="680.39,904.491,673.015,888.686,673.71,898.679,663.716,899.374,680.39,904.491" fill="#475569" style="stroke:#475569;stroke-width:2.125;stroke-linejoin:miter;stroke-miterlimit:10;"/></g><!--link ai to clinical--><g class="link" data-entity-1="ent0013" data-entity-2="ent0010" id="lnk32" data-source-line="43" data-link-type="dependency"><path d="M862.874,559.462 C816.691,582.004 775.395,603.113 772.083,608.036 C755.792,632.278 752.113,655.66 753.14,683.054" style="stroke:#475569;stroke-width:2.125;" fill="none" id="ai-to-clinical"/><polygon points="753.472,691.902,759.953,675.711,753.14,683.054,745.796,676.241,753.472,691.902" fill="#475569" style="stroke:#475569;stroke-width:2.125;stroke-linejoin:miter;stroke-miterlimit:10;"/><text x="773.854" y="630.827" fill="#334155" font-size="19.479" textLength="121.735" font-family="'Segoe UI'">consent check</text></g><!--link chatbot to ai--><g class="link" data-entity-1="ent0014" data-entity-2="ent0013" id="lnk33" data-source-line="44" data-link-type="dependency"><path d="M1158.922,266.442 C1129.172,307.614 1087.713,365.001 1051.818,414.691" style="stroke:#475569;stroke-width:2.125;" fill="none" id="chatbot-to-ai"/><polygon points="1046.633,421.868,1061.708,413.097,1051.818,414.691,1050.224,404.801,1046.633,421.868" fill="#475569" style="stroke:#475569;stroke-width:2.125;stroke-linejoin:miter;stroke-miterlimit:10;"/><text x="1093.49" y="376.039" fill="#334155" font-size="19.479" textLength="79.362" font-family="'Segoe UI'">AI broker</text></g><!--link patients to crypto--><g class="link" data-entity-1="ent0009" data-entity-2="ent0019" id="lnk34" data-source-line="45" data-link-type="dependency"><path d="M708.44,989.792 C680.956,1029.547 643.632,1083.552 610.553,1131.417" style="stroke:#475569;stroke-width:2.125;" fill="none" id="patients-to-crypto"/><polygon points="605.519,1138.701,620.407,1129.617,610.553,1131.417,608.752,1121.563,605.519,1138.701" fill="#475569" style="stroke:#475569;stroke-width:2.125;stroke-linejoin:miter;stroke-miterlimit:10;"/></g><!--link auth to crypto--><g class="link" data-entity-1="ent0006" data-entity-2="ent0019" id="lnk35" data-source-line="46" data-link-type="dependency"><path d="M592.415,510.303 C530.683,524.169 459.779,552.024 421.458,608.036 C311.153,769.217 355.335,863.709 421.458,1047.486 C433.624,1081.309 450.346,1106.454 473.58,1132.804" style="stroke:#475569;stroke-width:2.125;" fill="none" id="auth-to-crypto"/><polygon points="479.435,1139.445,474.208,1122.806,473.58,1132.804,463.582,1132.175,479.435,1139.445" fill="#475569" style="stroke:#475569;stroke-width:2.125;stroke-linejoin:miter;stroke-miterlimit:10;"/></g><!--link admin to crypto--><g class="link" data-entity-1="ent0008" data-entity-2="ent0019" id="lnk36" data-source-line="47" data-link-type="dependency"><path d="M1122.124,822.749 C1128.269,886.995 1125.188,979.114 1069.583,1031.548 C1012.686,1085.204 790.606,1030.291 718.958,1061.652 C679.327,1079.007 649.094,1103.634 620.814,1132.853" style="stroke:#475569;stroke-width:2.125;" fill="none" id="admin-to-crypto"/><polygon points="614.656,1139.215,630.83,1132.689,620.814,1132.853,620.651,1122.837,614.656,1139.215" fill="#475569" style="stroke:#475569;stroke-width:2.125;stroke-linejoin:miter;stroke-miterlimit:10;"/></g><!--link imaging to crypto--><g class="link" data-entity-1="ent0012" data-entity-2="ent0019" id="lnk37" data-source-line="48" data-link-type="dependency"><path d="M1385.819,807.467 C1330.179,870.721 1231.508,972.438 1126.25,1031.548 C1104.097,1043.997 1096.429,1043.413 1071.354,1047.486 C1032.679,1053.79 755.207,1046.76 718.958,1061.652 C678.583,1078.245 647.976,1103.137 619.66,1132.745" style="stroke:#475569;stroke-width:2.125;" fill="none" id="imaging-to-crypto"/><polygon points="613.541,1139.144,629.675,1132.522,619.66,1132.745,619.437,1122.73,613.541,1139.144" fill="#475569" style="stroke:#475569;stroke-width:2.125;stroke-linejoin:miter;stroke-miterlimit:10;"/></g><!--link ai to crypto--><g class="link" data-entity-1="ent0013" data-entity-2="ent0019" id="lnk38" data-source-line="49" data-link-type="dependency"><path d="M863.157,560.453 C856.375,562.933 849.593,565.235 842.917,567.307 C707.572,609.169 590.325,543.329 543.646,677.098 C488.732,834.454 515.373,1025.464 537.101,1130.156" style="stroke:#475569;stroke-width:2.125;" fill="none" id="ai-to-crypto"/><polygon points="538.9,1138.825,542.597,1121.781,537.101,1130.156,528.726,1124.66,538.9,1138.825" fill="#475569" style="stroke:#475569;stroke-width:2.125;stroke-linejoin:miter;stroke-miterlimit:10;"/></g><!--link fhir to crypto--><g class="link" data-entity-1="ent0015" data-entity-2="ent0019" id="lnk39" data-source-line="50" data-link-type="dependency"><path d="M593.07,250.434 C459.177,281.299 288.646,348.91 288.646,493.038 C288.646,493.038 288.646,493.038 288.646,948.957 C288.646,998.345 328.33,996.379 363.021,1031.548 C398.933,1067.974 433.823,1100.778 469.08,1132.866" style="stroke:#475569;stroke-width:2.125;" fill="none" id="fhir-to-crypto"/><polygon points="475.628,1138.825,468.609,1122.859,469.08,1132.866,459.074,1133.337,475.628,1138.825" fill="#475569" style="stroke:#475569;stroke-width:2.125;stroke-linejoin:miter;stroke-miterlimit:10;"/></g><!--link imaging to storage--><g class="link" data-entity-1="ent0012" data-entity-2="ent0020" id="lnk40" data-source-line="51" data-link-type="dependency"><path d="M1425.432,807.095 C1413.267,876.352 1381.533,992.129 1301.563,1047.486 C1255.857,1079.113 1103.495,1041.04 1051.875,1061.652 C1002.221,1081.486 962.666,1114.907 930.384,1148.34" style="stroke:#475569;stroke-width:2.125;" fill="none" id="imaging-to-storage"/><polygon points="924.233,1154.71,940.399,1148.165,930.384,1148.34,930.208,1138.324,924.233,1154.71" fill="#475569" style="stroke:#475569;stroke-width:2.125;stroke-linejoin:miter;stroke-miterlimit:10;"/></g><!--link ai to storage--><g class="link" data-entity-1="ent0013" data-entity-2="ent0020" id="lnk41" data-source-line="52" data-link-type="dependency"><path d="M863.069,560.188 C856.304,562.738 849.557,565.128 842.917,567.307 C724.979,605.982 627.052,559.904 586.146,677.098 C533.623,827.601 534.827,912.672 641.042,1031.548 C665.78,1059.244 687.544,1041.854 718.958,1061.652 C759.369,1087.117 792.362,1117.486 821.51,1148.086" style="stroke:#475569;stroke-width:2.125;" fill="none" id="ai-to-storage"/><polygon points="827.617,1154.497,821.753,1138.072,821.51,1148.086,811.495,1147.843,827.617,1154.497" fill="#475569" style="stroke:#475569;stroke-width:2.125;stroke-linejoin:miter;stroke-miterlimit:10;"/></g><!--link audit to db--><g class="link" data-entity-1="ent0018" data-entity-2="ent0021" id="lnk42" data-source-line="53" data-link-type="dependency"><path d="M208.958,1269.955 C210.8,1299.316 212.549,1326.763 214.514,1358.143" style="stroke:#475569;stroke-width:2.125;" fill="none" id="audit-to-db"/><polygon points="215.068,1366.979,221.141,1350.63,214.514,1358.143,207.002,1351.516,215.068,1366.979" fill="#475569" style="stroke:#475569;stroke-width:2.125;stroke-linejoin:miter;stroke-miterlimit:10;"/></g><!--link db to config--><g class="link" data-entity-1="ent0021" data-entity-2="ent0022" id="lnk43" data-source-line="54" data-link-type="dependency"><path d="M219.583,1513.516 C219.583,1540.291 219.583,1561.435 219.583,1586.598" style="stroke:#475569;stroke-width:2.125;" fill="none" id="db-to-config"/><polygon points="219.583,1595.452,226.667,1579.515,219.583,1586.598,212.5,1579.515,219.583,1595.452" fill="#475569" style="stroke:#475569;stroke-width:2.125;stroke-linejoin:miter;stroke-miterlimit:10;"/></g><!--link audit to GMN44--><g class="link" data-entity-1="ent0018" data-entity-2="ent0045" id="lnk46" data-source-line="57" data-link-type="association"><path d="M256.098,1154.586 C294.56,1115.627 351.174,1067.567 412.604,1046.6 C444.444,1035.727 986,1036.949 1018.229,1046.6 C1092.073,1068.718 1164.305,1120.285 1212.259,1160.004" style="stroke:#475569;stroke-width:2.125;stroke-dasharray:12.396,12.396;" fill="none" id="audit-GMN44"/></g><?plantuml-src TLNDakCq4BxxAPevpHHEfcfWESo1gkmix6HhPpTiW5Ck7QjZDx4b8ya9AOeh3y0ZyYIq9CT4ORd9hQ-__ltaBrXNxQ08d3-rDEUXQmlFlYLuZTMUj8BEgA4b1oXdtn1RKDJB1UcAnNpxWPn_jowXCbrlD6aFYh6ssDqLRi-wHpc2DeeSzV3mS66qgFV1-FMhekWb6jO4DpLwEkBf1dulu8Bpvks0LhaIM8EnYkpZHY_w_iV66Y_PsdWDV__v5xmx-iNWcycmqJyvif-4zZrtxFy5hiXsx1mRxQBn1j117SFaeN_6bXLw0PP0rXeBMwEazdAZ7LM3PN-2Xb2Ialm-IcyMgsKaQxplSwfdmjOt6ttVn4C9u-7UYlyfEKL3yST5JoJ_0rVa_jEKKEX6tpgkzOmbEszaP26l7fqxIf_0IjlzNIH60UVkeJ4ktWtXTCMjEjP2RerCluIMPLZ2Z9NdWrHS2fzY3mUc8zanGd39MLRIDpcaAFtuaKEUX9ehR4CigaoSSYL3aSj4Mus0t6rzqbMyTdB8hvOTrgphq9aAfH_WP82X24iXtSJA2NHLz5ASjbRQQ4lunMpXru46ah9to5QJSsEXV5L2WtvhVCesdNF0zy_BJq2_zSPw2V0bh3kq_WajmSgQKE1KxAvXc_j-C9vtKdzOmDH7VMd9DgMNCRBpeasAWdMDn52VsHiPdII2VL3opEXMvjcWQqBshC_x8g2hEksfzqOS5z-jPm-llfczVNg17LEhmceylooUe3LcF_HZdwg8lvgRDrPo5PBMo515pR3-2kxXXVNoOt9p2PBxlK6FMtJ1SMNPTPX4R9olBQr_U2y9l1XTctKIIxoDXZUl4wlQNXLZz8x3ain97qeu99MJ0lIIWSndh272GfVJsm3p-RTHI_081x8o27a5vM44h4IYBccmY8A2sMo2JeeCRGvx5yKI4VaupziUhoR5PDRS8Un_3fuiatB6PSzXo9_zda8zdcKeMq7LlXWtErN5ShrOGj9ASUP816dgiV3BxwdWqN2Pr1d3brz12__dSDwHqMFwZ8zIiCYurJPvfmaMqZO2otNZmUoczPP7KC7s12J3FC7ur8v_FP5iHNr0PIASmtaPeyZI8e4eJO33I8Tj6wB8OdHmY_BNE3feQIUX1tytByAVDUJp3m00?></g></svg>