<svg xmlns="http://www.w3.org/2000/svg" xmlns:xlink="http://www.w3.org/1999/xlink" version="1.1" data-diagram-type="DESCRIPTION" style="width:1386px;height:2815px;background:#FFFFFF;" width="1386.563px" height="2815.625px" viewBox="0 0 1386 2815" zoomAndPan="magnify" preserveAspectRatio="none" contentStyleType="text/css"><?plantuml 1.2026.8?><defs/><g font-family="sans-serif" lengthAdjust="spacing"><g class="title" data-source-line="2"><text x="183.068" y="50.194" fill="#1E3A8A" font-size="30.104" textLength="1009.048" font-weight="700" font-family="'Segoe UI'">Data flow diagram, level 2: process 6.0 "Educate and answer questions"</text></g><!--entity user--><g class="entity" data-qualified-name="user" id="ent0001" data-source-line="5"><rect x="669.375" y="592.08" width="142.371" height="96.656" fill="#F1F5F9" style="stroke:#334155;stroke-width:0.885;"/><text x="687.083" y="634.631" fill="#0F172A" font-size="23.021" textLength="106.955" font-weight="700" font-family="'Segoe UI'">Patient or</text><text x="687.083" y="665.25" fill="#0F172A" font-size="23.021" textLength="88.509" font-weight="700" font-family="'Segoe UI'">clinician</text></g><!--entity phone--><g class="entity" data-qualified-name="phone" id="ent0002" data-source-line="6"><rect x="1057.4" y="592.08" width="184.445" height="96.656" fill="#F1F5F9" style="stroke:#334155;stroke-width:0.885;"/><text x="1075.108" y="634.631" fill="#0F172A" font-size="23.021" textLength="149.028" font-weight="700" font-family="'Segoe UI'">Phone speech</text><text x="1075.108" y="665.25" fill="#0F172A" font-size="23.021" textLength="84.395" font-weight="700" font-family="'Segoe UI'">services</text></g><!--entity claude--><g class="entity" data-qualified-name="claude" id="ent0003" data-source-line="7"><rect x="226.72" y="2144.783" width="223.731" height="96.656" fill="#F1F5F9" style="stroke:#334155;stroke-width:0.885;"/><text x="244.428" y="2187.333" fill="#0F172A" font-size="23.021" textLength="188.314" font-weight="700" font-family="'Segoe UI'">Anthropic Claude</text><text x="244.428" y="2217.952" fill="#0F172A" font-size="23.021" textLength="152.086" font-weight="700" font-family="'Segoe UI'">(optional, off)</text></g><!--entity p61--><g class="entity" data-qualified-name="p61" id="ent0004" data-source-line="9"><rect x="1020.992" y="805.608" width="186.423" height="157.895" fill="#EFF6FF" style="stroke:#2563EB;stroke-width:0.885;" rx="24.792" ry="24.792"/><text x="1038.7" y="848.158" fill="#0F172A" font-size="23.021" textLength="29.81" font-family="'Segoe UI'">6.1</text><text x="1038.7" y="878.777" fill="#0F172A" font-size="23.021" textLength="123.467" font-family="'Segoe UI'">Turn speech</text><text x="1038.7" y="909.397" fill="#0F172A" font-size="23.021" textLength="84.406" font-family="'Segoe UI'">into text</text><text x="1038.7" y="940.016" fill="#0F172A" font-size="23.021" textLength="151.007" font-family="'Segoe UI'">(on the phone)</text></g><!--entity p62--><g class="entity" data-qualified-name="p62" id="ent0005" data-source-line="10"><rect x="381.42" y="1080.388" width="204.734" height="127.275" fill="#EFF6FF" style="stroke:#2563EB;stroke-width:0.885;" rx="24.792" ry="24.792"/><text x="399.128" y="1122.938" fill="#0F172A" font-size="23.021" textLength="29.81" font-family="'Segoe UI'">6.2</text><text x="399.128" y="1153.557" fill="#0F172A" font-size="23.021" textLength="100.57" font-family="'Segoe UI'">Check the</text><text x="399.128" y="1184.177" fill="#0F172A" font-size="23.021" textLength="169.318" font-family="'Segoe UI'">question's safety</text></g><!--entity p63--><g class="entity" data-qualified-name="p63" id="ent0006" data-source-line="11"><rect x="330.898" y="1324.533" width="139.314" height="127.275" fill="#EFF6FF" style="stroke:#2563EB;stroke-width:0.885;" rx="24.792" ry="24.792"/><text x="348.606" y="1367.083" fill="#0F172A" font-size="23.021" textLength="29.81" font-family="'Segoe UI'">6.3</text><text x="348.606" y="1397.702" fill="#0F172A" font-size="23.021" textLength="103.897" font-family="'Segoe UI'">Recognise</text><text x="348.606" y="1428.322" fill="#0F172A" font-size="23.021" textLength="95.298" font-family="'Segoe UI'">small talk</text></g><!--entity p64--><g class="entity" data-qualified-name="p64" id="ent0007" data-source-line="12"><rect x="72.586" y="1595.24" width="206.162" height="127.275" fill="#EFF6FF" style="stroke:#2563EB;stroke-width:0.885;" rx="24.792" ry="24.792"/><text x="90.295" y="1637.79" fill="#0F172A" font-size="23.021" textLength="29.81" font-family="'Segoe UI'">6.4</text><text x="90.295" y="1668.41" fill="#0F172A" font-size="23.021" textLength="132.021" font-family="'Segoe UI'">Find the best</text><text x="90.295" y="1699.029" fill="#0F172A" font-size="23.021" textLength="170.745" font-family="'Segoe UI'">passages (BM25)</text></g><!--entity p65--><g class="entity" data-qualified-name="p65" id="ent0008" data-source-line="13"><rect x="216.325" y="1839.402" width="244.504" height="157.895" fill="#EFF6FF" style="stroke:#2563EB;stroke-width:0.885;" rx="24.792" ry="24.792"/><text x="234.033" y="1881.953" fill="#0F172A" font-size="23.021" textLength="29.81" font-family="'Segoe UI'">6.5</text><text x="234.033" y="1912.572" fill="#0F172A" font-size="23.021" textLength="176.579" font-family="'Segoe UI'">Write the answer:</text><text x="234.033" y="1943.192" fill="#0F172A" font-size="23.021" textLength="202.242" font-family="'Segoe UI'">quote the passages,</text><text x="234.033" y="1973.811" fill="#0F172A" font-size="23.021" textLength="209.087" font-family="'Segoe UI'">or Claude cites them</text></g><!--entity p66--><g class="entity" data-qualified-name="p66" id="ent0009" data-source-line="14"><rect x="522.254" y="2114.165" width="213.48" height="157.895" fill="#EFF6FF" style="stroke:#2563EB;stroke-width:0.885;" rx="24.792" ry="24.792"/><text x="539.963" y="2156.715" fill="#0F172A" font-size="23.021" textLength="29.81" font-family="'Segoe UI'">6.6</text><text x="539.963" y="2187.335" fill="#0F172A" font-size="23.021" textLength="178.063" font-family="'Segoe UI'">Check the answer</text><text x="539.963" y="2217.954" fill="#0F172A" font-size="23.021" textLength="171.869" font-family="'Segoe UI'">(source, no dose,</text><text x="539.963" y="2248.574" fill="#0F172A" font-size="23.021" textLength="71.974" font-family="'Segoe UI'">length)</text></g><!--entity p67--><g class="entity" data-qualified-name="p67" id="ent0010" data-source-line="15"><rect x="540.175" y="2388.927" width="177.633" height="127.275" fill="#EFF6FF" style="stroke:#2563EB;stroke-width:0.885;" rx="24.792" ry="24.792"/><text x="557.883" y="2431.478" fill="#0F172A" font-size="23.021" textLength="29.81" font-family="'Segoe UI'">6.7</text><text x="557.883" y="2462.097" fill="#0F172A" font-size="23.021" textLength="142.217" font-family="'Segoe UI'">Store the chat</text><text x="557.883" y="2492.717" fill="#0F172A" font-size="23.021" textLength="115.958" font-family="'Segoe UI'">and audit it</text></g><!--entity p68--><g class="entity" data-qualified-name="p68" id="ent0011" data-source-line="16"><rect x="817.045" y="317.318" width="187.019" height="157.895" fill="#EFF6FF" style="stroke:#2563EB;stroke-width:0.885;" rx="24.792" ry="24.792"/><text x="834.753" y="359.868" fill="#0F172A" font-size="23.021" textLength="29.81" font-family="'Segoe UI'">6.8</text><text x="834.753" y="390.488" fill="#0F172A" font-size="23.021" textLength="151.603" font-family="'Segoe UI'">Show and read</text><text x="834.753" y="421.107" fill="#0F172A" font-size="23.021" textLength="134.775" font-family="'Segoe UI'">articles aloud</text><text x="834.753" y="451.727" fill="#0F172A" font-size="23.021" textLength="151.007" font-family="'Segoe UI'">(on the phone)</text></g><!--entity d5--><g class="entity" data-qualified-name="d5" id="ent0012" data-source-line="18"><path d="M26.297,2677.361 C26.297,2659.652 113.686,2659.652 113.686,2659.652 C113.686,2659.652 201.075,2659.652 201.075,2677.361 L201.075,2754.537 C201.075,2772.246 113.686,2772.246 113.686,2772.246 C113.686,2772.246 26.297,2772.246 26.297,2754.537 L26.297,2677.361" style="stroke:#0E7490;stroke-width:0.885;" fill="#ECFEFF"/><path d="M26.297,2677.361 C26.297,2695.069 113.686,2695.069 113.686,2695.069 C113.686,2695.069 201.075,2695.069 201.075,2677.361" style="stroke:#0E7490;stroke-width:0.885;" fill="none"/><text x="44.005" y="2726.994" fill="#0F172A" font-size="23.021" textLength="81.652" font-family="'Segoe UI'">D5 Chat</text><text x="44.005" y="2757.614" fill="#0F172A" font-size="23.021" textLength="139.361" font-family="'Segoe UI'">conversations</text></g><!--entity d6a--><g class="entity" data-qualified-name="d6a" id="ent0013" data-source-line="19"><path d="M10.625,1349.59 C10.625,1331.882 134.934,1331.882 134.934,1331.882 C134.934,1331.882 259.243,1331.882 259.243,1349.59 L259.243,1426.766 C259.243,1444.475 134.934,1444.475 134.934,1444.475 C134.934,1444.475 10.625,1444.475 10.625,1426.766 L10.625,1349.59" style="stroke:#0E7490;stroke-width:0.885;" fill="#ECFEFF"/><path d="M10.625,1349.59 C10.625,1367.298 134.934,1367.298 134.934,1367.298 C134.934,1367.298 259.243,1367.298 259.243,1349.59" style="stroke:#0E7490;stroke-width:0.885;" fill="none"/><text x="28.333" y="1399.223" fill="#0F172A" font-size="23.021" textLength="213.201" font-family="'Segoe UI'">D6a Knowledge base</text><text x="28.333" y="1429.843" fill="#0F172A" font-size="23.021" textLength="202.972" font-family="'Segoe UI'">(reviewed passages)</text></g><!--entity d6b--><g class="entity" data-qualified-name="d6b" id="ent0014" data-source-line="20"><path d="M783.488,105.562 C783.488,87.853 910.55,87.853 910.55,87.853 C910.55,87.853 1037.613,87.853 1037.613,105.562 L1037.613,182.738 C1037.613,200.447 910.55,200.447 910.55,200.447 C910.55,200.447 783.488,200.447 783.488,182.738 L783.488,105.562" style="stroke:#0E7490;stroke-width:0.885;" fill="#ECFEFF"/><path d="M783.488,105.562 C783.488,123.27 910.55,123.27 910.55,123.27 C910.55,123.27 1037.613,123.27 1037.613,105.562" style="stroke:#0E7490;stroke-width:0.885;" fill="none"/><text x="801.196" y="155.195" fill="#0F172A" font-size="23.021" textLength="218.709" font-family="'Segoe UI'">D6b Education library</text><text x="801.196" y="185.815" fill="#0F172A" font-size="23.021" textLength="207.379" font-family="'Segoe UI'">(bundled in the app)</text></g><!--entity d7--><g class="entity" data-qualified-name="d7" id="ent0015" data-source-line="21"><path d="M546.993,2692.661 C546.993,2674.952 628.998,2674.952 628.998,2674.952 C628.998,2674.952 711.002,2674.952 711.002,2692.661 L711.002,2739.218 C711.002,2756.926 628.998,2756.926 628.998,2756.926 C628.998,2756.926 546.993,2756.926 546.993,2739.218 L546.993,2692.661" style="stroke:#0E7490;stroke-width:0.885;" fill="#ECFEFF"/><path d="M546.993,2692.661 C546.993,2710.369 628.998,2710.369 628.998,2710.369 C628.998,2710.369 711.002,2710.369 711.002,2692.661" style="stroke:#0E7490;stroke-width:0.885;" fill="none"/><text x="564.701" y="2742.294" fill="#0F172A" font-size="23.021" textLength="128.593" font-family="'Segoe UI'">D7 Audit log</text></g><!--link user to p61--><g class="link" data-entity-1="ent0001" data-entity-2="ent0004" id="lnk16" data-source-line="23" data-link-type="dependency"><path d="M812.6,688.573 C871.764,726.682 948.558,776.128 1012.981,817.619" style="stroke:#475569;stroke-width:2.125;" fill="none" id="user-to-p61"/><polygon points="1020.425,822.413,1010.861,807.828,1012.981,817.619,1003.191,819.738,1020.425,822.413" fill="#475569" style="stroke:#475569;stroke-width:2.125;stroke-linejoin:miter;stroke-miterlimit:10;"/><text x="917.947" y="755.794" fill="#334155" font-size="19.479" textLength="142.061" font-family="'Segoe UI'">spoken question</text></g><!--reverse link phone to p61--><g class="link" data-entity-1="ent0002" data-entity-2="ent0004" id="lnk17" data-source-line="24" data-link-type="dependency"><path d="M1141.412,697.9 C1136.56,730.873 1131.261,766.933 1125.63,805.165" style="stroke:#475569;stroke-width:2.125;" fill="none" id="phone-backto-p61"/><polygon points="1142.701,689.14,1133.373,703.876,1141.412,697.9,1147.389,705.939,1142.701,689.14" fill="#475569" style="stroke:#475569;stroke-width:2.125;stroke-linejoin:miter;stroke-miterlimit:10;"/><text x="1137.902" y="755.794" fill="#334155" font-size="19.479" textLength="48.536" font-family="'Segoe UI'">audio</text></g><!--link phone to p61--><g class="link" data-entity-1="ent0002" data-entity-2="ent0004" id="lnk18" data-source-line="25" data-link-type="dependency"><path d="M1188.247,689.405 C1201.263,710.939 1210.683,737.005 1202.75,761.337 C1197.809,776.477 1194.947,783.817 1186.217,797.612" style="stroke:#475569;stroke-width:2.125;" fill="none" id="phone-to-p61"/><polygon points="1181.482,805.094,1195.991,795.415,1186.217,797.612,1184.02,787.839,1181.482,805.094" fill="#475569" style="stroke:#475569;stroke-width:2.125;stroke-linejoin:miter;stroke-miterlimit:10;"/><text x="1207.407" y="755.794" fill="#334155" font-size="19.479" textLength="151.839" font-family="'Segoe UI'">recognised words</text></g><!--link p61 to p62--><g class="link" data-entity-1="ent0004" data-entity-2="ent0005" id="lnk19" data-source-line="26" data-link-type="dependency"><path d="M1020.514,924.377 C904.4,971.499 715.421,1048.21 595.129,1097.05" style="stroke:#475569;stroke-width:2.125;" fill="none" id="p61-to-p62"/><polygon points="586.925,1100.38,604.356,1100.948,595.129,1097.05,599.027,1087.822,586.925,1100.38" fill="#475569" style="stroke:#475569;stroke-width:2.125;stroke-linejoin:miter;stroke-miterlimit:10;"/><text x="800.771" y="1030.574" fill="#334155" font-size="19.479" textLength="112.367" font-family="'Segoe UI'">question text</text></g><!--link user to p62--><g class="link" data-entity-1="ent0001" data-entity-2="ent0005" id="lnk20" data-source-line="27" data-link-type="dependency"><path d="M668.614,648.375 C575.84,660.683 418.076,697.268 347.437,805.608 C309.099,864.399 324.966,897.018 347.437,963.513 C362.047,1006.774 385.95,1041.173 413.93,1072.995" style="stroke:#475569;stroke-width:2.125;" fill="none" id="user-to-p62"/><polygon points="419.776,1079.644,414.572,1062.998,413.93,1072.995,403.933,1072.352,419.776,1079.644" fill="#475569" style="stroke:#475569;stroke-width:2.125;stroke-linejoin:miter;stroke-miterlimit:10;"/><text x="349.208" y="893.193" fill="#334155" font-size="19.479" textLength="129.173" font-family="'Segoe UI'">typed question</text></g><!--link p62 to user--><g class="link" data-entity-1="ent0005" data-entity-2="ent0001" id="lnk21" data-source-line="28" data-link-type="dependency"><path d="M503.767,1079.927 C527.142,1010.705 569.199,896.699 620.146,805.608 C643.361,764.082 670.057,727.82 695.309,696.282" style="stroke:#475569;stroke-width:2.125;" fill="none" id="p62-to-user"/><polygon points="700.843,689.37,685.352,697.384,695.309,696.282,696.411,706.238,700.843,689.37" fill="#475569" style="stroke:#475569;stroke-width:2.125;stroke-linejoin:miter;stroke-miterlimit:10;"/><text x="621.917" y="879.912" fill="#334155" font-size="19.479" textLength="166.144" font-family="'Segoe UI'">urgent-care text, or</text><text x="702.321" y="905.821" fill="#334155" font-size="19.479" font-family="'Segoe UI'"> </text><text x="511.539" y="723.934" fill="#334155" font-size="19.479" textLength="164.013" font-family="'Segoe UI'">cannot answer that</text></g><!--link p62 to p63--><g class="link" data-entity-1="ent0005" data-entity-2="ent0006" id="lnk22" data-source-line="29" data-link-type="dependency"><path d="M462.134,1208.384 C449.809,1244.03 437.318,1280.165 424.993,1315.759" style="stroke:#475569;stroke-width:2.125;" fill="none" id="p62-to-p63"/><polygon points="422.096,1324.125,434.004,1311.383,424.993,1315.759,420.617,1306.747,422.096,1324.125" fill="#475569" style="stroke:#475569;stroke-width:2.125;stroke-linejoin:miter;stroke-miterlimit:10;"/><text x="446.445" y="1274.719" fill="#334155" font-size="19.479" textLength="114.497" font-family="'Segoe UI'">safe question</text></g><!--link p63 to user--><g class="link" data-entity-1="ent0006" data-entity-2="ent0001" id="lnk23" data-source-line="30" data-link-type="dependency"><path d="M330.048,1324.922 C256.877,1253.274 157.285,1129.121 189.833,1007.784 C227.694,866.63 245.526,808.83 370.458,733.003 C463.781,676.372 581.747,655.92 660.071,647.88" style="stroke:#475569;stroke-width:2.125;" fill="none" id="p63-to-user"/><polygon points="668.879,646.976,652.302,641.557,660.071,647.88,653.748,655.65,668.879,646.976" fill="#475569" style="stroke:#475569;stroke-width:2.125;stroke-linejoin:miter;stroke-miterlimit:10;"/><text x="191.604" y="1030.574" fill="#334155" font-size="19.479" textLength="159.048" font-family="'Segoe UI'">friendly fixed reply</text></g><!--link p63 to p64--><g class="link" data-entity-1="ent0006" data-entity-2="ent0007" id="lnk24" data-source-line="31" data-link-type="dependency"><path d="M347.827,1452.582 C311.861,1495.312 270.121,1544.884 234.155,1587.632" style="stroke:#475569;stroke-width:2.125;" fill="none" id="p63-to-p64"/><polygon points="228.455,1594.408,244.136,1586.772,234.155,1587.632,233.296,1577.652,228.455,1594.408" fill="#475569" style="stroke:#475569;stroke-width:2.125;stroke-linejoin:miter;stroke-miterlimit:10;"/><text x="310.02" y="1532.145" fill="#334155" font-size="19.479" textLength="133.501" font-family="'Segoe UI'">health question</text></g><!--link d6a to p64--><g class="link" data-entity-1="ent0013" data-entity-2="ent0007" id="lnk25" data-source-line="32" data-link-type="dependency"><path d="M143.367,1445.303 C150.007,1488.866 157.937,1540.799 164.825,1586.061" style="stroke:#475569;stroke-width:2.125;" fill="none" id="d6a-to-p64"/><polygon points="166.157,1594.815,170.762,1577.993,164.825,1586.061,156.757,1580.125,166.157,1594.815" fill="#475569" style="stroke:#475569;stroke-width:2.125;stroke-linejoin:miter;stroke-miterlimit:10;"/><text x="160.721" y="1532.145" fill="#334155" font-size="19.479" textLength="77.726" font-family="'Segoe UI'">passages</text></g><!--link d5 to p64--><g class="link" data-entity-1="ent0012" data-entity-2="ent0007" id="lnk26" data-source-line="33" data-link-type="dependency"><path d="M79.9,2659.121 C51.761,2607.997 16.292,2528.77 16.292,2454.342 C16.292,1916.575 16.292,1916.575 16.292,1916.575 C16.292,1841.988 59.705,1777.687 103.498,1729.538" style="stroke:#475569;stroke-width:2.125;" fill="none" id="d5-to-p64"/><polygon points="109.455,1722.988,93.492,1730.012,103.498,1729.538,103.972,1739.544,109.455,1722.988" fill="#475569" style="stroke:#475569;stroke-width:2.125;stroke-linejoin:miter;stroke-miterlimit:10;"/><text x="18.062" y="2188.452" fill="#334155" font-size="19.479" textLength="133.995" font-family="'Segoe UI'">last 6 messages</text><text x="18.89" y="2214.36" fill="#334155" font-size="19.479" textLength="132.34" font-family="'Segoe UI'">(for follow-ups)</text></g><!--link p64 to p65--><g class="link" data-entity-1="ent0007" data-entity-2="ent0008" id="lnk27" data-source-line="34" data-link-type="dependency"><path d="M215.51,1723.253 C237.646,1758.033 260.641,1794.143 284.175,1831.118" style="stroke:#475569;stroke-width:2.125;" fill="none" id="p64-to-p65"/><polygon points="288.929,1838.588,286.347,1821.339,284.175,1831.118,274.396,1828.946,288.929,1838.588" fill="#475569" style="stroke:#475569;stroke-width:2.125;stroke-linejoin:miter;stroke-miterlimit:10;"/><text x="258.896" y="1789.589" fill="#334155" font-size="19.479" textLength="119.567" font-family="'Segoe UI'">best passages</text></g><!--link p65 to claude--><g class="link" data-entity-1="ent0008" data-entity-2="ent0003" id="lnk28" data-source-line="35" data-link-type="dependency"><path d="M215.953,1954.772 C152.504,1979.635 94.031,2017.938 124.313,2069.894 C137.275,2092.153 177.588,2116.413 225.011,2140.053" style="stroke:#475569;stroke-width:2.125;" fill="none" id="p65-to-claude"/><polygon points="232.935,2144.003,221.832,2130.554,225.011,2140.053,215.512,2143.232,232.935,2144.003" fill="#475569" style="stroke:#475569;stroke-width:2.125;stroke-linejoin:miter;stroke-miterlimit:10;"/><text x="126.083" y="2064.352" fill="#334155" font-size="19.479" textLength="176.425" font-family="'Segoe UI'">passages + question</text></g><!--link claude to p65--><g class="link" data-entity-1="ent0003" data-entity-2="ent0008" id="lnk29" data-source-line="36" data-link-type="dependency"><path d="M338.583,2144.251 C338.583,2103.947 338.583,2053.974 338.583,2006.693" style="stroke:#475569;stroke-width:2.125;" fill="none" id="claude-to-p65"/><polygon points="338.583,1997.839,331.5,2013.776,338.583,2006.693,345.667,2013.776,338.583,1997.839" fill="#475569" style="stroke:#475569;stroke-width:2.125;stroke-linejoin:miter;stroke-miterlimit:10;"/><text x="340.354" y="2064.352" fill="#334155" font-size="19.479" textLength="156.48" font-family="'Segoe UI'">answer + citations</text></g><!--link p65 to p66--><g class="link" data-entity-1="ent0008" data-entity-2="ent0009" id="lnk30" data-source-line="37" data-link-type="dependency"><path d="M461.656,1996.829 C480.551,2010.748 499.216,2025.853 515.667,2041.561 C538.068,2062.952 554.201,2081.966 572.228,2106.386" style="stroke:#475569;stroke-width:2.125;" fill="none" id="p65-to-p66"/><polygon points="577.486,2113.51,573.72,2096.481,572.228,2106.386,562.322,2104.894,577.486,2113.51" fill="#475569" style="stroke:#475569;stroke-width:2.125;stroke-linejoin:miter;stroke-miterlimit:10;"/><text x="542.229" y="2064.352" fill="#334155" font-size="19.479" textLength="134.718" font-family="'Segoe UI'">answer, sources</text></g><!--link p66 to p67--><g class="link" data-entity-1="ent0009" data-entity-2="ent0010" id="lnk31" data-source-line="38" data-link-type="dependency"><path d="M629,2272.371 C629,2309.435 629,2344.391 629,2379.312" style="stroke:#475569;stroke-width:2.125;" fill="none" id="p66-to-p67"/><polygon points="629,2388.166,636.083,2372.228,629,2379.312,621.917,2372.228,629,2388.166" fill="#475569" style="stroke:#475569;stroke-width:2.125;stroke-linejoin:miter;stroke-miterlimit:10;"/><text x="630.771" y="2339.114" fill="#334155" font-size="19.479" textLength="136.116" font-family="'Segoe UI'">checked answer</text></g><!--link p67 to d5--><g class="link" data-entity-1="ent0010" data-entity-2="ent0012" id="lnk32" data-source-line="39" data-link-type="dependency"><path d="M539.821,2499.303 C445.046,2547.098 304.024,2618.195 209.674,2665.777" style="stroke:#475569;stroke-width:2.125;" fill="none" id="p67-to-d5"/><polygon points="201.769,2669.764,219.189,2668.912,209.674,2665.777,212.809,2656.263,201.769,2669.764" fill="#475569" style="stroke:#475569;stroke-width:2.125;stroke-linejoin:miter;stroke-miterlimit:10;"/><text x="419.263" y="2583.277" fill="#334155" font-size="19.479" textLength="158.934" font-family="'Segoe UI'">question + answer</text><text x="433.268" y="2609.185" fill="#334155" font-size="19.479" textLength="130.923" font-family="'Segoe UI'">(kept 180 days)</text></g><!--link p67 to d7--><g class="link" data-entity-1="ent0010" data-entity-2="ent0015" id="lnk33" data-source-line="40" data-link-type="dependency"><path d="M629,2516.587 C629,2565.533 629,2623.386 629,2665.408" style="stroke:#475569;stroke-width:2.125;" fill="none" id="p67-to-d7"/><polygon points="629,2674.262,636.083,2658.324,629,2665.408,621.917,2658.324,629,2674.262" fill="#475569" style="stroke:#475569;stroke-width:2.125;stroke-linejoin:miter;stroke-miterlimit:10;"/><text x="630.771" y="2596.558" fill="#334155" font-size="19.479" textLength="124.522" font-family="'Segoe UI'">event (no text)</text></g><!--link p67 to user--><g class="link" data-entity-1="ent0010" data-entity-2="ent0001" id="lnk34" data-source-line="41" data-link-type="dependency"><path d="M718.25,2403.324 C742.316,2387.227 766.682,2367.465 784.833,2344.657 C829.334,2288.769 843.271,2266.333 843.271,2194.879 C843.271,1020.179 843.271,1020.179 843.271,1020.179 C843.271,897.425 795.678,768.009 765.574,697.53" style="stroke:#475569;stroke-width:2.125;" fill="none" id="p67-to-user"/><polygon points="762.096,689.388,761.842,706.827,765.574,697.53,774.87,701.262,762.096,689.388" fill="#475569" style="stroke:#475569;stroke-width:2.125;stroke-linejoin:miter;stroke-miterlimit:10;"/><text x="845.042" y="1518.864" fill="#334155" font-size="19.479" textLength="138.941" font-family="'Segoe UI'">answer, sources,</text><text x="871.245" y="1544.773" fill="#334155" font-size="19.479" textLength="86.534" font-family="'Segoe UI'">disclaimer</text></g><!--link d6b to p68--><g class="link" data-entity-1="ent0014" data-entity-2="ent0011" id="lnk35" data-source-line="42" data-link-type="dependency"><path d="M910.563,201.08 C910.563,235.116 910.563,270.462 910.563,308.003" style="stroke:#475569;stroke-width:2.125;" fill="none" id="d6b-to-p68"/><polygon points="910.563,316.858,917.646,300.92,910.563,308.003,903.479,300.92,910.563,316.858" fill="#475569" style="stroke:#475569;stroke-width:2.125;stroke-linejoin:miter;stroke-miterlimit:10;"/><text x="912.333" y="267.505" fill="#334155" font-size="19.479" textLength="60.169" font-family="'Segoe UI'">articles</text></g><!--link p68 to user--><g class="link" data-entity-1="ent0011" data-entity-2="ent0001" id="lnk36" data-source-line="43" data-link-type="dependency"><path d="M855.826,475.489 C828.856,513.686 802.285,551.256 778.98,584.247" style="stroke:#475569;stroke-width:2.125;" fill="none" id="p68-to-user"/><polygon points="773.872,591.478,788.853,582.548,778.98,584.247,777.282,574.374,773.872,591.478" fill="#475569" style="stroke:#475569;stroke-width:2.125;stroke-linejoin:miter;stroke-miterlimit:10;"/><text x="822.233" y="542.267" fill="#334155" font-size="19.479" textLength="89.568" font-family="'Segoe UI'">article text</text></g><!--link p68 to phone--><g class="link" data-entity-1="ent0011" data-entity-2="ent0002" id="lnk37" data-source-line="44" data-link-type="dependency"><path d="M987.523,475.489 C1025.454,513.686 1063.75,552.207 1096.528,585.197" style="stroke:#475569;stroke-width:2.125;" fill="none" id="p68-to-phone"/><polygon points="1102.769,591.478,1096.561,575.18,1096.528,585.197,1086.511,585.165,1102.769,591.478" fill="#475569" style="stroke:#475569;stroke-width:2.125;stroke-linejoin:miter;stroke-miterlimit:10;"/><text x="1060.304" y="542.267" fill="#334155" font-size="19.479" textLength="110.512" font-family="'Segoe UI'">text to speak</text></g><?plantuml-src ZLN1ZkCs3BtxAzXSEeD91ZkPZJC81WDiPzjBKQ1e2-p55qLYOY4AvKhoPFFt9IqdiRCvz913-CX7YkIZVxAaNMiGOZewVBJjtXN99eVmLIK56-SFOApQ1hMVWiCFT31VGHEynXYXVFm4arzDgrL2K6Ju5myOuDyMOxAUugIeRKUE0NqwDbWK0NLIjEKCapzLiaW9VAYu2ajMMqKJU7rbeqt7jpTG4Tg8OHHKUsB61b7N5J7uORcMwwX6l8PXNoZLmJTMmxjJ_E2AxdmZDIet1R_Pt5ypwCvjL6_v-5JHFssWStfBoKF2xqde25ADENF7rdUfBwXy6bFDAtglKUyagA9JntwE4DK6q_46mNnCy5pHNwZzbcnaWhXNpa5IRdSZydaS-RcYtonFIyfTSzwA6XMZscA4kr_-c2zkLVzvJB6ew5kmF7NXo5DVoIjyRpeHJYloeMyvQ0w80kzl95YC4vI3zlG9kCVHjq7Z5CY3yH6PtI5jKtshud9CkApex-H3Ba_NYb_TRMnhR0ARRX0inmGlJ52p72Gge38S7vBLZf-ad6_D_rY1bw8mBAkrYipuTG7lNHdQqmU6gB9YE2fAdJd6B8OHfOBVoHyScYrFJidSxm9-M3oWERVy_fgYL2EEDMJ5SZPmTXrKE3BDkYN3l63p4rJJ_CYp7l8iuKlNEkUtruxBeX3Lmcps9diFAzQBto6TxqBHTGXUPxCUbodutdg92gVrDd3mmSH2p1cUCtnYwmGup2YW71ipICX60Jkl5RHXorgVQINxmD7JxWPDj2BowNJ54azdSeva5Sb3M9n3rkSXwoRmEJFk21lx7ML96dSy-x24sAL6vL9zOU3X3D3J20kp65YTYWbAs6C6ULWRrjJ6EpxEixQ9zuNuPVy5-ukaBrHY4opViq4IUBYKqOCNZhu53wBPl9Xd8bRMsM4AMP62bZswP5IBTF7qFIZ4AA1P3CVsSD7r3fi4Jo-VmAXZzvxUNxZueyFVY3lAX_O2zas_AeHFWh6HtsFtd9Xtjg_gHLnxlHRoTqYHxNcFJbXUnbLd1BxoVFBLxZy0?></g></svg>