<svg xmlns="http://www.w3.org/2000/svg" xmlns:xlink="http://www.w3.org/1999/xlink" version="1.1" data-diagram-type="CLASS" style="width:3630px;height:1411px;background:#FFFFFF;" width="3630.208px" height="1411.354px" viewBox="0 0 3630 1411" zoomAndPan="magnify" preserveAspectRatio="none" contentStyleType="text/css"><?plantuml 1.2026.8?><defs/><g font-family="sans-serif" lengthAdjust="spacing"><g class="title" data-source-line="7"><text x="1327.412" y="50.194" fill="#1E3A8A" font-size="30.104" textLength="963.907" font-weight="700" font-family="'Segoe UI'">PostgreSQL: AI jobs, notifications, synchronisation and the audit log</text></g><!--class ai_models--><g class="entity" data-qualified-name="ai_models" id="ent0001" data-source-line="8"><rect x="759.989" y="676.425" width="345.807" height="328.683" fill="#F5F3FF" style="stroke:#2563EB;stroke-width:0.885;" rx="10.625" ry="10.625"/><text x="886.231" y="708.21" fill="#0F172A" font-size="21.25" textLength="93.322" font-family="'Segoe UI'">ai_models</text><line x1="761.759" y1="722.398" x2="1104.025" y2="722.398" style="stroke:#2563EB;stroke-width:0.885;"/><g data-visibility-modifier="IE_MANDATORY"><ellipse cx="779.468" cy="746.269" rx="5.313" ry="5.313" fill="#000" style="stroke:#000;stroke-width:1.771;"/></g><text x="793.634" y="752.412" fill="#0F172A" font-size="21.25" textLength="127.168" font-family="'Segoe UI'">id : uuid «PK»</text><line x1="761.759" y1="764.829" x2="1104.025" y2="764.829" style="stroke:#2563EB;stroke-width:1.771;"/><g data-visibility-modifier="IE_MANDATORY"><ellipse cx="779.468" cy="788.7" rx="5.313" ry="5.313" fill="#000" style="stroke:#000;stroke-width:1.771;"/></g><text x="793.634" y="794.843" fill="#0F172A" font-size="21.25" textLength="103.77" font-family="'Segoe UI'">name : text</text><g data-visibility-modifier="IE_MANDATORY"><ellipse cx="779.468" cy="816.964" rx="5.313" ry="5.313" fill="#000" style="stroke:#000;stroke-width:1.771;"/></g><text x="793.634" y="823.107" fill="#0F172A" font-size="21.25" textLength="301.536" font-family="'Segoe UI'">architecture : ModelArchitecture</text><g data-visibility-modifier="IE_MANDATORY"><ellipse cx="779.468" cy="845.229" rx="5.313" ry="5.313" fill="#000" style="stroke:#000;stroke-width:1.771;"/></g><text x="793.634" y="851.371" fill="#0F172A" font-size="21.25" textLength="118.836" font-family="'Segoe UI'">version : text</text><g data-visibility-modifier="IE_MANDATORY"><ellipse cx="779.468" cy="873.493" rx="5.313" ry="5.313" fill="#000" style="stroke:#000;stroke-width:1.771;"/></g><text x="793.634" y="879.635" fill="#0F172A" font-size="21.25" textLength="294.792" font-family="'Segoe UI'">provenance : ModelProvenance</text><g data-visibility-modifier="IE_MANDATORY"><ellipse cx="779.468" cy="901.757" rx="5.313" ry="5.313" fill="#000" style="stroke:#000;stroke-width:1.771;"/></g><text x="793.634" y="907.899" fill="#0F172A" font-size="21.25" textLength="189.372" font-family="'Segoe UI'">status : ModelStatus</text><text x="793.634" y="936.164" fill="#0F172A" font-size="21.25" textLength="149.922" font-family="'Segoe UI'">artifact_uri : text</text><text x="793.634" y="964.428" fill="#0F172A" font-size="21.25" textLength="164.293" font-family="'Segoe UI'">evaluation : jsonb</text><g data-visibility-modifier="IE_MANDATORY"><ellipse cx="779.468" cy="986.549" rx="5.313" ry="5.313" fill="#000" style="stroke:#000;stroke-width:1.771;"/></g><text x="793.634" y="992.692" fill="#0F172A" font-size="21.25" textLength="229.434" font-family="'Segoe UI'">created_at : timestamptz</text></g><!--class ai_jobs--><g class="entity" data-qualified-name="ai_jobs" id="ent0002" data-source-line="20"><rect x="1175.957" y="619.9" width="282.42" height="441.74" fill="#F5F3FF" style="stroke:#2563EB;stroke-width:0.885;" rx="10.625" ry="10.625"/><text x="1285.225" y="651.685" fill="#0F172A" font-size="21.25" textLength="63.885" font-family="'Segoe UI'">ai_jobs</text><line x1="1177.728" y1="665.873" x2="1456.607" y2="665.873" style="stroke:#2563EB;stroke-width:0.885;"/><g data-visibility-modifier="IE_MANDATORY"><ellipse cx="1195.436" cy="689.744" rx="5.313" ry="5.313" fill="#000" style="stroke:#000;stroke-width:1.771;"/></g><text x="1209.603" y="695.887" fill="#0F172A" font-size="21.25" textLength="127.168" font-family="'Segoe UI'">id : uuid «PK»</text><line x1="1177.728" y1="708.304" x2="1456.607" y2="708.304" style="stroke:#2563EB;stroke-width:1.771;"/><g data-visibility-modifier="IE_MANDATORY"><ellipse cx="1195.436" cy="732.175" rx="5.313" ry="5.313" fill="#000" style="stroke:#000;stroke-width:1.771;"/></g><text x="1209.603" y="738.318" fill="#0F172A" font-size="21.25" textLength="200.453" font-family="'Segoe UI'">patient_id : uuid «FK»</text><g data-visibility-modifier="IE_MANDATORY"><ellipse cx="1195.436" cy="760.439" rx="5.313" ry="5.313" fill="#000" style="stroke:#000;stroke-width:1.771;"/></g><text x="1209.603" y="766.582" fill="#0F172A" font-size="21.25" textLength="210.031" font-family="'Segoe UI'">requested_by_id : uuid</text><g data-visibility-modifier="IE_MANDATORY"><ellipse cx="1195.436" cy="788.704" rx="5.313" ry="5.313" fill="#000" style="stroke:#000;stroke-width:1.771;"/></g><text x="1209.603" y="794.846" fill="#0F172A" font-size="21.25" textLength="180.449" font-family="'Segoe UI'">status : AiJobStatus</text><g data-visibility-modifier="IE_MANDATORY"><ellipse cx="1195.436" cy="816.968" rx="5.313" ry="5.313" fill="#000" style="stroke:#000;stroke-width:1.771;"/></g><text x="1209.603" y="823.11" fill="#0F172A" font-size="21.25" textLength="125.29" font-family="'Segoe UI'">inputs : jsonb</text><text x="1209.603" y="851.374" fill="#0F172A" font-size="21.25" textLength="212.064" font-family="'Segoe UI'">model_versions : jsonb</text><text x="1209.603" y="879.639" fill="#0F172A" font-size="21.25" textLength="136.029" font-family="'Segoe UI'">report_id : text</text><text x="1209.603" y="907.903" fill="#0F172A" font-size="21.25" textLength="176.9" font-family="'Segoe UI'">input_notes : jsonb</text><text x="1209.603" y="936.167" fill="#0F172A" font-size="21.25" textLength="97.244" font-family="'Segoe UI'">error : text</text><text x="1209.603" y="964.431" fill="#0F172A" font-size="21.25" textLength="224.723" font-family="'Segoe UI'">started_at : timestamptz</text><text x="1209.603" y="992.695" fill="#0F172A" font-size="21.25" textLength="233.117" font-family="'Segoe UI'">finished_at : timestamptz</text><g data-visibility-modifier="IE_MANDATORY"><ellipse cx="1195.436" cy="1014.817" rx="5.313" ry="5.313" fill="#000" style="stroke:#000;stroke-width:1.771;"/></g><text x="1209.603" y="1020.959" fill="#0F172A" font-size="21.25" textLength="229.434" font-family="'Segoe UI'">created_at : timestamptz</text><g data-visibility-modifier="IE_MANDATORY"><ellipse cx="1195.436" cy="1043.081" rx="5.313" ry="5.313" fill="#000" style="stroke:#000;stroke-width:1.771;"/></g><text x="1209.603" y="1049.224" fill="#0F172A" font-size="21.25" textLength="238.149" font-family="'Segoe UI'">updated_at : timestamptz</text></g><!--class explainability_artifacts--><g class="entity" data-qualified-name="explainability_artifacts" id="ent0003" data-source-line="36"><rect x="1180.314" y="174.412" width="273.704" height="272.155" fill="#F5F3FF" style="stroke:#2563EB;stroke-width:0.885;" rx="10.625" ry="10.625"/><text x="1214.376" y="206.197" fill="#0F172A" font-size="21.25" textLength="205.579" font-family="'Segoe UI'">explainability_artifacts</text><line x1="1182.084" y1="220.384" x2="1452.247" y2="220.384" style="stroke:#2563EB;stroke-width:0.885;"/><g data-visibility-modifier="IE_MANDATORY"><ellipse cx="1199.793" cy="244.256" rx="5.313" ry="5.313" fill="#000" style="stroke:#000;stroke-width:1.771;"/></g><text x="1213.959" y="250.398" fill="#0F172A" font-size="21.25" textLength="127.168" font-family="'Segoe UI'">id : uuid «PK»</text><line x1="1182.084" y1="262.815" x2="1452.247" y2="262.815" style="stroke:#2563EB;stroke-width:1.771;"/><g data-visibility-modifier="IE_MANDATORY"><ellipse cx="1199.793" cy="286.687" rx="5.313" ry="5.313" fill="#000" style="stroke:#000;stroke-width:1.771;"/></g><text x="1213.959" y="292.829" fill="#0F172A" font-size="21.25" textLength="164.553" font-family="'Segoe UI'">job_id : uuid «FK»</text><text x="1213.959" y="321.093" fill="#0F172A" font-size="21.25" textLength="193.989" font-family="'Segoe UI'">model_id : uuid «FK»</text><g data-visibility-modifier="IE_MANDATORY"><ellipse cx="1199.793" cy="343.215" rx="5.313" ry="5.313" fill="#000" style="stroke:#000;stroke-width:1.771;"/></g><text x="1213.959" y="349.358" fill="#0F172A" font-size="21.25" textLength="207.125" font-family="'Segoe UI'">kind : ExplanationKind</text><text x="1213.959" y="377.622" fill="#0F172A" font-size="21.25" textLength="162.789" font-family="'Segoe UI'">storage_key : text</text><text x="1213.959" y="405.886" fill="#0F172A" font-size="21.25" textLength="228.853" font-family="'Segoe UI'">unavailable_reason : text</text><g data-visibility-modifier="IE_MANDATORY"><ellipse cx="1199.793" cy="428.008" rx="5.313" ry="5.313" fill="#000" style="stroke:#000;stroke-width:1.771;"/></g><text x="1213.959" y="434.15" fill="#0F172A" font-size="21.25" textLength="229.434" font-family="'Segoe UI'">created_at : timestamptz</text></g><!--class notifications--><g class="entity" data-qualified-name="notifications" id="ent0004" data-source-line="46"><rect x="2025.001" y="174.412" width="273.704" height="272.155" fill="#FFF7ED" style="stroke:#2563EB;stroke-width:0.885;" rx="10.625" ry="10.625"/><text x="2104.308" y="206.197" fill="#0F172A" font-size="21.25" textLength="115.09" font-family="'Segoe UI'">notifications</text><line x1="2026.772" y1="220.384" x2="2296.935" y2="220.384" style="stroke:#2563EB;stroke-width:0.885;"/><g data-visibility-modifier="IE_MANDATORY"><ellipse cx="2044.48" cy="244.256" rx="5.313" ry="5.313" fill="#000" style="stroke:#000;stroke-width:1.771;"/></g><text x="2058.647" y="250.398" fill="#0F172A" font-size="21.25" textLength="127.168" font-family="'Segoe UI'">id : uuid «PK»</text><line x1="2026.772" y1="262.815" x2="2296.935" y2="262.815" style="stroke:#2563EB;stroke-width:1.771;"/><g data-visibility-modifier="IE_MANDATORY"><ellipse cx="2044.48" cy="286.687" rx="5.313" ry="5.313" fill="#000" style="stroke:#000;stroke-width:1.771;"/></g><text x="2058.647" y="292.829" fill="#0F172A" font-size="21.25" textLength="174.005" font-family="'Segoe UI'">user_id : uuid «FK»</text><g data-visibility-modifier="IE_MANDATORY"><ellipse cx="2044.48" cy="314.951" rx="5.313" ry="5.313" fill="#000" style="stroke:#000;stroke-width:1.771;"/></g><text x="2058.647" y="321.093" fill="#0F172A" font-size="21.25" textLength="92.606" font-family="'Segoe UI'">type : text</text><g data-visibility-modifier="IE_MANDATORY"><ellipse cx="2044.48" cy="343.215" rx="5.313" ry="5.313" fill="#000" style="stroke:#000;stroke-width:1.771;"/></g><text x="2058.647" y="349.358" fill="#0F172A" font-size="21.25" textLength="87.324" font-family="'Segoe UI'">title : text</text><g data-visibility-modifier="IE_MANDATORY"><ellipse cx="2044.48" cy="371.479" rx="5.313" ry="5.313" fill="#000" style="stroke:#000;stroke-width:1.771;"/></g><text x="2058.647" y="377.622" fill="#0F172A" font-size="21.25" textLength="99.257" font-family="'Segoe UI'">body : text</text><text x="2058.647" y="405.886" fill="#0F172A" font-size="21.25" textLength="201.304" font-family="'Segoe UI'">read_at : timestamptz</text><g data-visibility-modifier="IE_MANDATORY"><ellipse cx="2044.48" cy="428.008" rx="5.313" ry="5.313" fill="#000" style="stroke:#000;stroke-width:1.771;"/></g><text x="2058.647" y="434.15" fill="#0F172A" font-size="21.25" textLength="229.434" font-family="'Segoe UI'">created_at : timestamptz</text></g><!--class sync_operations--><g class="entity" data-qualified-name="sync_operations" id="ent0005" data-source-line="56"><rect x="2456.146" y="89.624" width="335.774" height="441.74" fill="#FFF7ED" style="stroke:#2563EB;stroke-width:0.885;" rx="10.625" ry="10.625"/><text x="2549.004" y="121.409" fill="#0F172A" font-size="21.25" textLength="150.057" font-family="'Segoe UI'">sync_operations</text><line x1="2457.917" y1="135.597" x2="2790.149" y2="135.597" style="stroke:#2563EB;stroke-width:0.885;"/><g data-visibility-modifier="IE_MANDATORY"><ellipse cx="2475.625" cy="159.468" rx="5.313" ry="5.313" fill="#000" style="stroke:#000;stroke-width:1.771;"/></g><text x="2489.792" y="165.611" fill="#0F172A" font-size="21.25" textLength="127.168" font-family="'Segoe UI'">id : uuid «PK»</text><line x1="2457.917" y1="178.028" x2="2790.149" y2="178.028" style="stroke:#2563EB;stroke-width:1.771;"/><g data-visibility-modifier="IE_MANDATORY"><ellipse cx="2475.625" cy="201.899" rx="5.313" ry="5.313" fill="#000" style="stroke:#000;stroke-width:1.771;"/></g><text x="2489.792" y="208.042" fill="#0F172A" font-size="21.25" textLength="272.691" font-family="'Segoe UI'">idempotency_key : text «UQ»</text><g data-visibility-modifier="IE_MANDATORY"><ellipse cx="2475.625" cy="230.163" rx="5.313" ry="5.313" fill="#000" style="stroke:#000;stroke-width:1.771;"/></g><text x="2489.792" y="236.306" fill="#0F172A" font-size="21.25" textLength="123.983" font-family="'Segoe UI'">user_id : uuid</text><g data-visibility-modifier="IE_MANDATORY"><ellipse cx="2475.625" cy="258.428" rx="5.313" ry="5.313" fill="#000" style="stroke:#000;stroke-width:1.771;"/></g><text x="2489.792" y="264.57" fill="#0F172A" font-size="21.25" textLength="137.876" font-family="'Segoe UI'">device_id : text</text><g data-visibility-modifier="IE_MANDATORY"><ellipse cx="2475.625" cy="286.692" rx="5.313" ry="5.313" fill="#000" style="stroke:#000;stroke-width:1.771;"/></g><text x="2489.792" y="292.834" fill="#0F172A" font-size="21.25" textLength="154.395" font-family="'Segoe UI'">entity_type : text</text><text x="2489.792" y="321.098" fill="#0F172A" font-size="21.25" textLength="137.409" font-family="'Segoe UI'">entity_id : uuid</text><g data-visibility-modifier="IE_MANDATORY"><ellipse cx="2475.625" cy="343.22" rx="5.313" ry="5.313" fill="#000" style="stroke:#000;stroke-width:1.771;"/></g><text x="2489.792" y="349.363" fill="#0F172A" font-size="21.25" textLength="290.413" font-family="'Segoe UI'">operation : SyncOperationType</text><text x="2489.792" y="377.627" fill="#0F172A" font-size="21.25" textLength="202.321" font-family="'Segoe UI'">base_version : integer</text><text x="2489.792" y="405.891" fill="#0F172A" font-size="21.25" textLength="240.463" font-family="'Segoe UI'">resulting_version : integer</text><g data-visibility-modifier="IE_MANDATORY"><ellipse cx="2475.625" cy="428.012" rx="5.313" ry="5.313" fill="#000" style="stroke:#000;stroke-width:1.771;"/></g><text x="2489.792" y="434.155" fill="#0F172A" font-size="21.25" textLength="168.765" font-family="'Segoe UI'">result : SyncResult</text><text x="2489.792" y="462.419" fill="#0F172A" font-size="21.25" textLength="196.386" font-family="'Segoe UI'">conflict_detail : jsonb</text><g data-visibility-modifier="IE_MANDATORY"><ellipse cx="2475.625" cy="484.541" rx="5.313" ry="5.313" fill="#000" style="stroke:#000;stroke-width:1.771;"/></g><text x="2489.792" y="490.683" fill="#0F172A" font-size="21.25" textLength="291.503" font-family="'Segoe UI'">client_timestamp : timestamptz</text><g data-visibility-modifier="IE_MANDATORY"><ellipse cx="2475.625" cy="512.805" rx="5.313" ry="5.313" fill="#000" style="stroke:#000;stroke-width:1.771;"/></g><text x="2489.792" y="518.948" fill="#0F172A" font-size="21.25" textLength="237.859" font-family="'Segoe UI'">received_at : timestamptz</text></g><!--class audit_logs--><g class="entity" data-qualified-name="audit_logs" id="ent0006" data-source-line="72"><rect x="3159.131" y="89.624" width="286.259" height="441.74" fill="#FFF7ED" style="stroke:#2563EB;stroke-width:0.885;" rx="10.625" ry="10.625"/><text x="3254.438" y="121.409" fill="#0F172A" font-size="21.25" textLength="95.646" font-family="'Segoe UI'">audit_logs</text><line x1="3160.902" y1="135.597" x2="3443.62" y2="135.597" style="stroke:#2563EB;stroke-width:0.885;"/><g data-visibility-modifier="IE_MANDATORY"><ellipse cx="3178.61" cy="159.468" rx="5.313" ry="5.313" fill="#000" style="stroke:#000;stroke-width:1.771;"/></g><text x="3192.777" y="165.611" fill="#0F172A" font-size="21.25" textLength="154.965" font-family="'Segoe UI'">seq : bigint «PK»</text><line x1="3160.902" y1="178.028" x2="3443.62" y2="178.028" style="stroke:#2563EB;stroke-width:1.771;"/><g data-visibility-modifier="IE_MANDATORY"><ellipse cx="3178.61" cy="201.899" rx="5.313" ry="5.313" fill="#000" style="stroke:#000;stroke-width:1.771;"/></g><text x="3192.777" y="208.042" fill="#0F172A" font-size="21.25" textLength="241.989" font-family="'Segoe UI'">occurred_at : timestamptz</text><text x="3192.777" y="236.306" fill="#0F172A" font-size="21.25" textLength="180.469" font-family="'Segoe UI'">actor_user_id : uuid</text><text x="3192.777" y="264.57" fill="#0F172A" font-size="21.25" textLength="144.102" font-family="'Segoe UI'">actor_role : text</text><g data-visibility-modifier="IE_MANDATORY"><ellipse cx="3178.61" cy="286.692" rx="5.313" ry="5.313" fill="#000" style="stroke:#000;stroke-width:1.771;"/></g><text x="3192.777" y="292.834" fill="#0F172A" font-size="21.25" textLength="108.969" font-family="'Segoe UI'">action : text</text><g data-visibility-modifier="IE_MANDATORY"><ellipse cx="3178.61" cy="314.956" rx="5.313" ry="5.313" fill="#000" style="stroke:#000;stroke-width:1.771;"/></g><text x="3192.777" y="321.098" fill="#0F172A" font-size="21.25" textLength="154.395" font-family="'Segoe UI'">entity_type : text</text><text x="3192.777" y="349.363" fill="#0F172A" font-size="21.25" textLength="130.966" font-family="'Segoe UI'">entity_id : text</text><g data-visibility-modifier="IE_MANDATORY"><ellipse cx="3178.61" cy="371.484" rx="5.313" ry="5.313" fill="#000" style="stroke:#000;stroke-width:1.771;"/></g><text x="3192.777" y="377.627" fill="#0F172A" font-size="21.25" textLength="237.133" font-family="'Segoe UI'">outcome : AuditOutcome</text><text x="3192.777" y="405.891" fill="#0F172A" font-size="21.25" textLength="148.366" font-family="'Segoe UI'">request_id : text</text><text x="3192.777" y="434.155" fill="#0F172A" font-size="21.25" textLength="69.156" font-family="'Segoe UI'">ip : text</text><text x="3192.777" y="462.419" fill="#0F172A" font-size="21.25" textLength="128.33" font-family="'Segoe UI'">details : jsonb</text><g data-visibility-modifier="IE_MANDATORY"><ellipse cx="3178.61" cy="484.541" rx="5.313" ry="5.313" fill="#000" style="stroke:#000;stroke-width:1.771;"/></g><text x="3192.777" y="490.683" fill="#0F172A" font-size="21.25" textLength="145.388" font-family="'Segoe UI'">prev_hash : text</text><g data-visibility-modifier="IE_MANDATORY"><ellipse cx="3178.61" cy="512.805" rx="5.313" ry="5.313" fill="#000" style="stroke:#000;stroke-width:1.771;"/></g><text x="3192.777" y="518.948" fill="#0F172A" font-size="21.25" textLength="139.412" font-family="'Segoe UI'">row_hash : text</text></g><!--class users--><g class="entity" data-qualified-name="users" id="ent0007" data-source-line="88"><rect x="2076.125" y="796.576" width="171.439" height="88.403" fill="#F1F5F9" style="stroke:#2563EB;stroke-width:0.885;" rx="10.625" ry="10.625"/><text x="2137.565" y="828.361" fill="#0F172A" font-size="21.25" textLength="48.56" font-family="'Segoe UI'">users</text><line x1="2077.896" y1="842.549" x2="2245.793" y2="842.549" style="stroke:#2563EB;stroke-width:0.885;"/><g data-visibility-modifier="IE_MANDATORY"><ellipse cx="2095.604" cy="866.42" rx="5.313" ry="5.313" fill="#000" style="stroke:#000;stroke-width:1.771;"/></g><text x="2109.771" y="872.563" fill="#0F172A" font-size="21.25" textLength="127.168" font-family="'Segoe UI'">id : uuid «PK»</text></g><!--class patients--><g class="entity" data-qualified-name="patients" id="ent0008" data-source-line="91"><rect x="1231.438" y="1178.457" width="171.439" height="88.403" fill="#F1F5F9" style="stroke:#2563EB;stroke-width:0.885;" rx="10.625" ry="10.625"/><text x="1279.653" y="1210.242" fill="#0F172A" font-size="21.25" textLength="75.008" font-family="'Segoe UI'">patients</text><line x1="1233.208" y1="1224.429" x2="1401.105" y2="1224.429" style="stroke:#2563EB;stroke-width:0.885;"/><g data-visibility-modifier="IE_MANDATORY"><ellipse cx="1250.917" cy="1248.301" rx="5.313" ry="5.313" fill="#000" style="stroke:#000;stroke-width:1.771;"/></g><text x="1265.083" y="1254.443" fill="#0F172A" font-size="21.25" textLength="127.168" font-family="'Segoe UI'">id : uuid «PK»</text></g><!--class AiJobStatus--><g class="entity" data-qualified-name="AiJobStatus" id="ent0013" data-source-line="98"><rect x="43.474" y="209.758" width="135.5" height="201.46" fill="#FFF" style="stroke:#2563EB;stroke-width:0.885;" rx="10.625" ry="10.625"/><rect x="43.474" y="209.758" width="135.5" height="45.972" fill="#DBEAFE" style="stroke:#DBEAFE;stroke-width:0.885;" rx="10.625" ry="10.625"/><rect x="43.474" y="245.105" width="135.5" height="10.625" fill="#DBEAFE" style="stroke:#DBEAFE;stroke-width:0.885;"/><rect x="43.474" y="209.758" width="135.5" height="201.46" fill="none" style="stroke:#2563EB;stroke-width:0.885;" rx="10.625" ry="10.625"/><text x="56.76" y="241.543" fill="#0F172A" font-size="21.25" textLength="108.927" font-family="'Segoe UI'">AiJobStatus</text><line x1="45.245" y1="255.73" x2="177.203" y2="255.73" style="stroke:#2563EB;stroke-width:0.885;"/><text x="54.099" y="285.744" fill="#0F172A" font-size="21.25" textLength="81.617" font-family="'Segoe UI'">QUEUED</text><text x="54.099" y="314.008" fill="#0F172A" font-size="21.25" textLength="95.231" font-family="'Segoe UI'">RUNNING</text><text x="54.099" y="342.273" fill="#0F172A" font-size="21.25" textLength="114.25" font-family="'Segoe UI'">SUCCEEDED</text><text x="54.099" y="370.537" fill="#0F172A" font-size="21.25" textLength="65.389" font-family="'Segoe UI'">FAILED</text><text x="54.099" y="398.801" fill="#0F172A" font-size="21.25" textLength="112.092" font-family="'Segoe UI'">TIMED_OUT</text></g><!--class AuditOutcome--><g class="entity" data-qualified-name="AuditOutcome" id="ent0014" data-source-line="105"><rect x="249.652" y="238.02" width="148.148" height="144.932" fill="#FFF" style="stroke:#2563EB;stroke-width:0.885;" rx="10.625" ry="10.625"/><rect x="249.652" y="238.02" width="148.148" height="45.972" fill="#DBEAFE" style="stroke:#DBEAFE;stroke-width:0.885;" rx="10.625" ry="10.625"/><rect x="249.652" y="273.368" width="148.148" height="10.625" fill="#DBEAFE" style="stroke:#DBEAFE;stroke-width:0.885;"/><rect x="249.652" y="238.02" width="148.148" height="144.932" fill="none" style="stroke:#2563EB;stroke-width:0.885;" rx="10.625" ry="10.625"/><text x="254.965" y="269.805" fill="#0F172A" font-size="21.25" textLength="137.523" font-family="'Segoe UI'">AuditOutcome</text><line x1="251.423" y1="283.993" x2="396.029" y2="283.993" style="stroke:#2563EB;stroke-width:0.885;"/><text x="260.277" y="314.007" fill="#0F172A" font-size="21.25" textLength="85.529" font-family="'Segoe UI'">SUCCESS</text><text x="260.277" y="342.271" fill="#0F172A" font-size="21.25" textLength="72.85" font-family="'Segoe UI'">DENIED</text><text x="260.277" y="370.535" fill="#0F172A" font-size="21.25" textLength="77.799" font-family="'Segoe UI'">FAILURE</text></g><!--class ExplanationKind--><g class="entity" data-qualified-name="ExplanationKind" id="ent0015" data-source-line="110"><rect x="469.412" y="238.02" width="176.132" height="144.932" fill="#FFF" style="stroke:#2563EB;stroke-width:0.885;" rx="10.625" ry="10.625"/><rect x="469.412" y="238.02" width="176.132" height="45.972" fill="#DBEAFE" style="stroke:#DBEAFE;stroke-width:0.885;" rx="10.625" ry="10.625"/><rect x="469.412" y="273.368" width="176.132" height="10.625" fill="#DBEAFE" style="stroke:#DBEAFE;stroke-width:0.885;"/><rect x="469.412" y="238.02" width="176.132" height="144.932" fill="none" style="stroke:#2563EB;stroke-width:0.885;" rx="10.625" ry="10.625"/><text x="482.165" y="269.805" fill="#0F172A" font-size="21.25" textLength="150.628" font-family="'Segoe UI'">ExplanationKind</text><line x1="471.183" y1="283.993" x2="643.774" y2="283.993" style="stroke:#2563EB;stroke-width:0.885;"/><text x="480.037" y="314.007" fill="#0F172A" font-size="21.25" textLength="101.84" font-family="'Segoe UI'">GRADCAM</text><text x="480.037" y="342.271" fill="#0F172A" font-size="21.25" textLength="51.984" font-family="'Segoe UI'">SHAP</text><text x="480.037" y="370.535" fill="#0F172A" font-size="21.25" textLength="154.882" font-family="'Segoe UI'">MIL_ATTENTION</text></g><!--class ModelArchitecture--><g class="entity" data-qualified-name="ModelArchitecture" id="ent0016" data-source-line="115"><rect x="12.396" y="740.051" width="197.662" height="201.46" fill="#FFF" style="stroke:#2563EB;stroke-width:0.885;" rx="10.625" ry="10.625"/><rect x="12.396" y="740.051" width="197.662" height="45.972" fill="#DBEAFE" style="stroke:#DBEAFE;stroke-width:0.885;" rx="10.625" ry="10.625"/><rect x="12.396" y="775.399" width="197.662" height="10.625" fill="#DBEAFE" style="stroke:#DBEAFE;stroke-width:0.885;"/><rect x="12.396" y="740.051" width="197.662" height="201.46" fill="none" style="stroke:#2563EB;stroke-width:0.885;" rx="10.625" ry="10.625"/><text x="24.105" y="771.836" fill="#0F172A" font-size="21.25" textLength="174.244" font-family="'Segoe UI'">ModelArchitecture</text><line x1="14.167" y1="786.024" x2="208.287" y2="786.024" style="stroke:#2563EB;stroke-width:0.885;"/><text x="23.021" y="816.038" fill="#0F172A" font-size="21.25" textLength="52.378" font-family="'Segoe UI'">UNET</text><text x="23.021" y="844.302" fill="#0F172A" font-size="21.25" textLength="95.438" font-family="'Segoe UI'">RESNET50</text><text x="23.021" y="872.566" fill="#0F172A" font-size="21.25" textLength="45.499" font-family="'Segoe UI'">ANN</text><text x="23.021" y="900.831" fill="#0F172A" font-size="21.25" textLength="162.311" font-family="'Segoe UI'">PATCH_CNN_MIL</text><text x="23.021" y="929.095" fill="#0F172A" font-size="21.25" textLength="176.412" font-family="'Segoe UI'">XGBOOST_FUSION</text></g><!--class ModelProvenance--><g class="entity" data-qualified-name="ModelProvenance" id="ent0017" data-source-line="122"><rect x="281.669" y="782.445" width="200.983" height="116.667" fill="#FFF" style="stroke:#2563EB;stroke-width:0.885;" rx="10.625" ry="10.625"/><rect x="281.669" y="782.445" width="200.983" height="45.972" fill="#DBEAFE" style="stroke:#DBEAFE;stroke-width:0.885;" rx="10.625" ry="10.625"/><rect x="281.669" y="817.793" width="200.983" height="10.625" fill="#DBEAFE" style="stroke:#DBEAFE;stroke-width:0.885;"/><rect x="281.669" y="782.445" width="200.983" height="116.667" fill="none" style="stroke:#2563EB;stroke-width:0.885;" rx="10.625" ry="10.625"/><text x="297.596" y="814.23" fill="#0F172A" font-size="21.25" textLength="169.128" font-family="'Segoe UI'">ModelProvenance</text><line x1="283.44" y1="828.418" x2="480.881" y2="828.418" style="stroke:#2563EB;stroke-width:0.885;"/><text x="292.294" y="858.432" fill="#0F172A" font-size="21.25" textLength="60.585" font-family="'Segoe UI'">MOCK</text><text x="292.294" y="886.696" fill="#0F172A" font-size="21.25" textLength="179.733" font-family="'Segoe UI'">RESEARCH_MODEL</text></g><!--class ModelStatus--><g class="entity" data-qualified-name="ModelStatus" id="ent0018" data-source-line="126"><rect x="552.996" y="768.314" width="136.475" height="144.932" fill="#FFF" style="stroke:#2563EB;stroke-width:0.885;" rx="10.625" ry="10.625"/><rect x="552.996" y="768.314" width="136.475" height="45.972" fill="#DBEAFE" style="stroke:#DBEAFE;stroke-width:0.885;" rx="10.625" ry="10.625"/><rect x="552.996" y="803.661" width="136.475" height="10.625" fill="#DBEAFE" style="stroke:#DBEAFE;stroke-width:0.885;"/><rect x="552.996" y="768.314" width="136.475" height="144.932" fill="none" style="stroke:#2563EB;stroke-width:0.885;" rx="10.625" ry="10.625"/><text x="562.308" y="800.099" fill="#0F172A" font-size="21.25" textLength="117.85" font-family="'Segoe UI'">ModelStatus</text><line x1="554.767" y1="814.286" x2="687.7" y2="814.286" style="stroke:#2563EB;stroke-width:0.885;"/><text x="563.621" y="844.301" fill="#0F172A" font-size="21.25" textLength="115.225" font-family="'Segoe UI'">REGISTERED</text><text x="563.621" y="872.565" fill="#0F172A" font-size="21.25" textLength="67.599" font-family="'Segoe UI'">ACTIVE</text><text x="563.621" y="900.829" fill="#0F172A" font-size="21.25" textLength="78.608" font-family="'Segoe UI'">RETIRED</text></g><!--class SyncOperationType--><g class="entity" data-qualified-name="SyncOperationType" id="ent0019" data-source-line="131"><rect x="14.379" y="1164.325" width="193.709" height="116.667" fill="#FFF" style="stroke:#2563EB;stroke-width:0.885;" rx="10.625" ry="10.625"/><rect x="14.379" y="1164.325" width="193.709" height="45.972" fill="#DBEAFE" style="stroke:#DBEAFE;stroke-width:0.885;" rx="10.625" ry="10.625"/><rect x="14.379" y="1199.673" width="193.709" height="10.625" fill="#DBEAFE" style="stroke:#DBEAFE;stroke-width:0.885;"/><rect x="14.379" y="1164.325" width="193.709" height="116.667" fill="none" style="stroke:#2563EB;stroke-width:0.885;" rx="10.625" ry="10.625"/><text x="19.692" y="1196.11" fill="#0F172A" font-size="21.25" textLength="183.084" font-family="'Segoe UI'">SyncOperationType</text><line x1="16.15" y1="1210.298" x2="206.317" y2="1210.298" style="stroke:#2563EB;stroke-width:0.885;"/><text x="25.004" y="1240.312" fill="#0F172A" font-size="21.25" textLength="72.206" font-family="'Segoe UI'">CREATE</text><text x="25.004" y="1268.576" fill="#0F172A" font-size="21.25" textLength="76.99" font-family="'Segoe UI'">UPDATE</text></g><!--class SyncResult--><g class="entity" data-qualified-name="SyncResult" id="ent0020" data-source-line="135"><rect x="279.579" y="1150.194" width="116.647" height="144.932" fill="#FFF" style="stroke:#2563EB;stroke-width:0.885;" rx="10.625" ry="10.625"/><rect x="279.579" y="1150.194" width="116.647" height="45.972" fill="#DBEAFE" style="stroke:#DBEAFE;stroke-width:0.885;" rx="10.625" ry="10.625"/><rect x="279.579" y="1185.542" width="116.647" height="10.625" fill="#DBEAFE" style="stroke:#DBEAFE;stroke-width:0.885;"/><rect x="279.579" y="1150.194" width="116.647" height="144.932" fill="none" style="stroke:#2563EB;stroke-width:0.885;" rx="10.625" ry="10.625"/><text x="287.589" y="1181.979" fill="#0F172A" font-size="21.25" textLength="100.626" font-family="'Segoe UI'">SyncResult</text><line x1="281.35" y1="1196.167" x2="394.455" y2="1196.167" style="stroke:#2563EB;stroke-width:0.885;"/><text x="290.204" y="1226.181" fill="#0F172A" font-size="21.25" textLength="78.816" font-family="'Segoe UI'">APPLIED</text><text x="290.204" y="1254.445" fill="#0F172A" font-size="21.25" textLength="95.397" font-family="'Segoe UI'">CONFLICT</text><text x="290.204" y="1282.709" fill="#0F172A" font-size="21.25" textLength="91.734" font-family="'Segoe UI'">REJECTED</text></g><g class="entity" data-qualified-name="GMN21" id="ent0022" data-source-line="141"><path d="M1528.69,814.285 L1528.69,867.271 A10.625,10.625 0 0 0 1539.315,877.896 L1994.592,877.896 A10.625,10.625 0 0 0 2005.217,867.271 L2005.217,821.368 L1987.508,803.66 L1539.315,803.66 A10.625,10.625 0 0 0 1528.69,814.285" style="stroke:#D97706;stroke-width:0.885;" fill="#FFFBEB"/><path d="M1987.508,803.66 L1987.508,816.055 A5.313,5.313 0 0 0 1992.821,821.368 L2005.217,821.368 L1987.508,803.66" style="stroke:#D97706;stroke-width:1.771;" fill="#FFFBEB"/><text x="1539.315" y="835.445" fill="#0F172A" font-size="21.25" textLength="439.34" font-family="'Segoe UI'">Either a stored artifact or an explicit reason it is</text><text x="1539.315" y="863.709" fill="#0F172A" font-size="21.25" textLength="199.354" font-family="'Segoe UI'">unavailable (NFR-09).</text></g><g class="entity" data-qualified-name="GMN24" id="ent0025" data-source-line="145"><path d="M2318.623,814.285 L2318.623,867.271 A10.625,10.625 0 0 0 2329.248,877.896 L2918.821,877.896 A10.625,10.625 0 0 0 2929.446,867.271 L2929.446,821.368 L2911.738,803.66 L2631.122,803.66 L2624.039,531.536 L2616.955,803.66 L2329.248,803.66 A10.625,10.625 0 0 0 2318.623,814.285" style="stroke:#D97706;stroke-width:0.885;" fill="#FFFBEB"/><path d="M2911.738,803.66 L2911.738,816.055 A5.313,5.313 0 0 0 2917.05,821.368 L2929.446,821.368 L2911.738,803.66" style="stroke:#D97706;stroke-width:0.885;" fill="#FFFBEB"/><text x="2329.248" y="835.445" fill="#0F172A" font-size="21.25" textLength="573.636" font-family="'Segoe UI'">One row per client operation. idempotency_key makes retries</text><text x="2329.248" y="863.709" fill="#0F172A" font-size="21.25" textLength="120.009" font-family="'Segoe UI'">safe (UC-02).</text></g><g class="entity" data-qualified-name="GMN27" id="ent0028" data-source-line="149"><path d="M2999.986,800.153 L2999.986,881.404 A10.625,10.625 0 0 0 3010.611,892.029 L3593.938,892.029 A10.625,10.625 0 0 0 3604.563,881.404 L3604.563,807.237 L3586.855,789.528 L3309.351,789.528 L3302.268,531.536 L3295.184,789.528 L3010.611,789.528 A10.625,10.625 0 0 0 2999.986,800.153" style="stroke:#D97706;stroke-width:0.885;" fill="#FFFBEB"/><path d="M3586.855,789.528 L3586.855,801.924 A5.313,5.313 0 0 0 3592.168,807.237 L3604.563,807.237 L3586.855,789.528" style="stroke:#D97706;stroke-width:0.885;" fill="#FFFBEB"/><text x="3010.611" y="821.313" fill="#0F172A" font-size="21.25" textLength="567.39" font-family="'Segoe UI'">Append-only (UPDATE/DELETE blocked by trigger). Each row</text><text x="3010.611" y="849.578" fill="#0F172A" font-size="21.25" textLength="564.858" font-family="'Segoe UI'">stores the previous row's hash; seq, prev_hash and row_hash</text><text x="3010.611" y="877.842" fill="#0F172A" font-size="21.25" textLength="388.072" font-family="'Segoe UI'">are assigned by a BEFORE INSERT trigger.</text></g><!--link ai_jobs to patients--><g class="link" data-entity-1="ent0002" data-entity-2="ent0008" id="lnk9" data-source-line="94" data-link-type="crowfoot"><path d="M1317.164,1094.236 C1317.164,1138.329 1317.164,1134.133 1317.164,1164.007" style="stroke:#475569;stroke-width:2.125;" fill="none" id="ai_jobs-patients" codeLine="94"/><line x1="1317.164" y1="1076.527" x2="1306.539" y2="1062.361" style="stroke:#475569;stroke-width:2.125;"/><line x1="1317.164" y1="1076.527" x2="1327.789" y2="1062.361" style="stroke:#475569;stroke-width:2.125;"/><line x1="1317.164" y1="1076.527" x2="1317.164" y2="1062.361" style="stroke:#475569;stroke-width:2.125;"/><ellipse cx="1317.164" cy="1087.152" rx="7.083" ry="7.083" fill="none" style="stroke:#475569;stroke-width:2.125;"/><line x1="1324.247" y1="1171.09" x2="1310.08" y2="1171.09" style="stroke:#475569;stroke-width:2.125;"/><line x1="1324.247" y1="1165.777" x2="1310.08" y2="1165.777" style="stroke:#475569;stroke-width:2.125;"/><line x1="1317.164" y1="1164.007" x2="1317.164" y2="1178.173" style="stroke:#475569;stroke-width:2.125;"/><text x="1232.164" y="1114.724" fill="#334155" font-size="19.479" textLength="84.765" font-family="'Segoe UI'">patient_id</text></g><!--link explainability_artifacts to ai_jobs--><g class="link" data-entity-1="ent0003" data-entity-2="ent0002" id="lnk10" data-source-line="95" data-link-type="crowfoot"><path d="M1317.164,478.924 C1317.164,531.412 1317.164,546.712 1317.164,605.132" style="stroke:#475569;stroke-width:2.125;" fill="none" id="explainability_artifacts-ai_jobs" codeLine="95"/><line x1="1317.164" y1="461.216" x2="1306.539" y2="447.049" style="stroke:#475569;stroke-width:2.125;"/><line x1="1317.164" y1="461.216" x2="1327.789" y2="447.049" style="stroke:#475569;stroke-width:2.125;"/><line x1="1317.164" y1="461.216" x2="1317.164" y2="447.049" style="stroke:#475569;stroke-width:2.125;"/><ellipse cx="1317.164" cy="471.841" rx="7.083" ry="7.083" fill="none" style="stroke:#475569;stroke-width:2.125;"/><line x1="1324.247" y1="612.215" x2="1310.08" y2="612.215" style="stroke:#475569;stroke-width:2.125;"/><line x1="1324.247" y1="606.902" x2="1310.08" y2="606.902" style="stroke:#475569;stroke-width:2.125;"/><line x1="1317.164" y1="605.132" x2="1317.164" y2="619.298" style="stroke:#475569;stroke-width:2.125;"/><text x="1264.039" y="527.64" fill="#334155" font-size="19.479" textLength="51.856" font-family="'Segoe UI'">job_id</text></g><!--link explainability_artifacts to ai_models--><g class="link" data-entity-1="ent0003" data-entity-2="ent0001" id="lnk11" data-source-line="96" data-link-type="crowfoot"><path d="M1147.642,429.182 C1037.39,429.182 932.893,429.182 932.893,429.182 C932.893,429.182 932.893,534.67 932.893,649.172" style="stroke:#475569;stroke-width:2.125;" fill="none" id="explainability_artifacts-ai_models" codeLine="96"/><line x1="1165.35" y1="429.182" x2="1179.517" y2="418.557" style="stroke:#475569;stroke-width:2.125;"/><line x1="1165.35" y1="429.182" x2="1179.517" y2="439.807" style="stroke:#475569;stroke-width:2.125;"/><line x1="1165.35" y1="429.182" x2="1179.517" y2="429.182" style="stroke:#475569;stroke-width:2.125;"/><ellipse cx="1154.725" cy="429.182" rx="7.083" ry="7.083" fill="none" style="stroke:#475569;stroke-width:2.125;"/><line x1="932.893" y1="655.901" x2="932.893" y2="675.735" style="stroke:#475569;stroke-width:2.125;"/><ellipse cx="932.893" cy="655.901" rx="7.438" ry="7.438" fill="none" style="stroke:#475569;stroke-width:2.125;"/><line x1="940.33" y1="668.651" x2="925.455" y2="668.651" style="stroke:#475569;stroke-width:2.125;"/><text x="853.241" y="423.639" fill="#334155" font-size="19.479" textLength="78.839" font-family="'Segoe UI'">model_id</text></g><!--link notifications to users--><g class="link" data-entity-1="ent0004" data-entity-2="ent0007" id="lnk12" data-source-line="97" data-link-type="crowfoot"><path d="M2161.851,478.924 C2161.851,594.011 2161.851,705.679 2161.851,781.843" style="stroke:#475569;stroke-width:2.125;" fill="none" id="notifications-users" codeLine="97"/><line x1="2161.851" y1="461.216" x2="2151.226" y2="447.049" style="stroke:#475569;stroke-width:2.125;"/><line x1="2161.851" y1="461.216" x2="2172.476" y2="447.049" style="stroke:#475569;stroke-width:2.125;"/><line x1="2161.851" y1="461.216" x2="2161.851" y2="447.049" style="stroke:#475569;stroke-width:2.125;"/><ellipse cx="2161.851" cy="471.841" rx="7.083" ry="7.083" fill="none" style="stroke:#475569;stroke-width:2.125;"/><line x1="2168.934" y1="788.926" x2="2154.768" y2="788.926" style="stroke:#475569;stroke-width:2.125;"/><line x1="2168.934" y1="783.614" x2="2154.768" y2="783.614" style="stroke:#475569;stroke-width:2.125;"/><line x1="2161.851" y1="781.843" x2="2161.851" y2="796.01" style="stroke:#475569;stroke-width:2.125;"/><text x="2099.872" y="615.987" fill="#334155" font-size="19.479" textLength="60.52" font-family="'Segoe UI'">user_id</text></g><!--link explainability_artifacts to GMN21--><g class="link" data-entity-1="ent0003" data-entity-2="ent0022" id="lnk23" data-source-line="141" data-link-type="association"><path d="M1454.563,310.536 C1586.844,310.536 1766.955,310.536 1766.955,310.536 C1766.955,310.536 1766.955,682.8 1766.955,803.483" style="stroke:#475569;stroke-width:2.125;stroke-dasharray:12.396,12.396;" fill="none" id="explainability_artifacts-GMN21"/></g><g class="legend" data-source-line="153"><rect x="2934.396" y="1332.313" width="663.084" height="45.972" fill="#F8FAFC" style="stroke:#CBD5E1;stroke-width:1.771;" rx="10.625" ry="10.625"/><ellipse cx="2952.99" cy="1356.15" rx="4.427" ry="4.427" fill="#0F172A"/><text x="2964.501" y="1364.098" fill="#0F172A" font-size="21.25" textLength="624.125" font-family="'Segoe UI'">required (NOT NULL)   PK primary key   FK foreign key   UQ unique</text></g><?plantuml-src bLVVSzis37xNNu5r3qrojPsrrzlLw_LEjPNKZICxjhJRcuwMQ9kDHAeavTLR-xyFf7vOSfmcUqb840213zG7-2LSKqubqJI1rHuI4Qk1fBcGUg25IEjDFz_3cT8qXuIHZIIPEeUr51cywP4yJrbCD1EybueDYmSh4jzJdWnooLH61YhUqepqorqVnWAuq40JfllEBup7QP5GwFS7IkzJscT5bZgAQb0q9nYNaAZEgRDbg1Kp6QVLccQvtaD6zLOaob7tZ1lz35B6gTxd533ihN0qqoc5kL1w8-doRZe4Tm9Vn4gzCc6mTHKwRjMUnrifE5DM0eGdeBSKI86X0gRcK8xUzl22i2WJ2KtL2o0AcXtykdwxVhDUmxyEm0Mm18PG5FZl_VlvpOSFAEprx0ad6SKpJRzfkoSotZ9DOrr88xyrtjoMp2hjg5Gch9PTBiMESiBZnchUIAo2qaGNgZvSsXqU0Dw8gPDOHuLa1uy0T4VIean_25-Ku2lh9vRKl928QAFCCegE4Vv_d1zjJ0ogDI9c_MmyShmH_KHjZQjIum8a_LhWVNZxQd_GwARdiizYrQI7L_6yqAgL0e0jKLI1s3qgdtZfkq72keZmYT2kCfKIdsHB4OEG9x4nXsk6psbx-lGdi9h38a-Umfn-orF2E5cn5FTHNTIo28yTFhigMC9J5QcXF5ai_0gDs3DtS_kERb1IuIGasT3edkxRy1MSx0XBoIgb4SAXkY_y6G-lynNRp3iIJ7Uz_XtPxQbq2qNbwQGicxI2AYcb9LY9f9CJ1lr_Atx8nz1G97B3oKr6Hx9dvuGycUNuX7cyR-6EQk5TbLitQojAw8x5jFCvN40PNTI50cfnrq4JA0gN6FcitWTeRSrMHD7eG6YCQxgXii9E5QbcV7Fo_A8whpmlxCRQnOAliG_fAA4QtrENlb9BBmtU9meZQKpPxWcACuqWmaPGiLopFQg7eb_HnufjCEu79H5nN4Zv65_W1ofazA0ezO4KtOU7qgEMy8mwDRgYqB6mdSWrgSpARLK5Ixh7d9YtToNGgeDqBkaksXArRTyZnTyTsG5HasW9fbqXZhyXERrxx5qV3AkEKThMcwVDwyRqG_HwtxyV38Uj5kGyIfoLLUraM37apmt4zzQ0C6ouq-cILEMwH65OVvMORf6rcvlDx2xqGc-CYqNe-nF_6bVBS3JolB6LNhcJgLq4arjl7Ct2mE9c7BMgR3rPi-KILsFFdpJMuSAhJOw8t5fTBzpnoBqrzf_SEVwxdKmZDmWyFvZC_DhomH1ZRKFV2qpatX8NRoznwVe-_fsxmUXJDFBz29tX_g_hZxFPCeYkmkMnpyE8OptUpaOtfKVFNQ2FszdOctOCMj0jlEl9Cl0MDbLt54p-zAmqc1XHPVI0igpfQE6vWT4EvsEpQ2cNB6IrtFbyMW8vclbNqycepFQpDmhi1MQUm7QXDOxEOlreZtOyXfEd16Ax9X9BVO93BSwbrex5E9LM7HDNJ3cjLWfd_jMYT_dkl8zX9gOZqkExZtgAC-FKVAc0aeem3qJUVz19CdAFWv6aMZAAqpTPuvNXg7Vv-YSt7WZJSVCSjNg2f_YxeaHqW7Np0WzMgS2V3_RN23hV8E-Vzy4ZyTP4vrWyb9tB3TSmWPL5-Ki5Xc7-CDpxgiL2PeQlwSSX-0Y9Kcp3I_S4FdfNiuK74t_fBOBwkbO2AROTuu5jjhePHfafo9a_2y0FfzDpPCBv3Lx9CYBtOB31h-W6rXWdtbG9mZiST1Xogl5TUlqF?></g></svg>