<svg xmlns="http://www.w3.org/2000/svg" xmlns:xlink="http://www.w3.org/1999/xlink" version="1.1" data-diagram-type="STATE" style="width:961px;height:945px;background:#FFFFFF;" width="961.563px" height="945.625px" viewBox="0 0 961 945" zoomAndPan="magnify" preserveAspectRatio="none" contentStyleType="text/css"><?plantuml 1.2026.8?><defs/><g font-family="sans-serif" lengthAdjust="spacing"><g class="title" data-source-line="2"><text x="132.971" y="50.194" fill="#1E3A8A" font-size="30.104" textLength="683.503" font-weight="700" font-family="'Segoe UI'">An AI analysis job (state machine, ai_jobs.status)</text></g><g class="start_entity" data-qualified-name=".start." id="ent0001" data-source-line="5"><ellipse cx="481.454" cy="105.562" rx="17.708" ry="17.708" fill="#1D4ED8" style="stroke:#222;stroke-width:1.771;"/></g><rect x="428.382" y="292.385" width="106.127" height="70.833" fill="#EFF6FF" style="stroke:#2563EB;stroke-width:0.885;" rx="10.625" ry="10.625"/><text x="437.236" y="337.333" fill="#0F172A" font-size="23.021" textLength="88.419" font-family="'Segoe UI'">QUEUED</text><rect x="421.016" y="507.541" width="120.875" height="70.833" fill="#EFF6FF" style="stroke:#2563EB;stroke-width:0.885;" rx="10.625" ry="10.625"/><text x="429.87" y="552.49" fill="#0F172A" font-size="23.021" textLength="103.167" font-family="'Segoe UI'">RUNNING</text><rect x="95.501" y="721.812" width="141.479" height="70.833" fill="#EFF6FF" style="stroke:#2563EB;stroke-width:0.885;" rx="10.625" ry="10.625"/><text x="104.355" y="766.76" fill="#0F172A" font-size="23.021" textLength="123.771" font-family="'Segoe UI'">SUCCEEDED</text><rect x="405.308" y="721.812" width="88.547" height="70.833" fill="#EFF6FF" style="stroke:#2563EB;stroke-width:0.885;" rx="10.625" ry="10.625"/><text x="414.162" y="766.76" fill="#0F172A" font-size="23.021" textLength="70.839" font-family="'Segoe UI'">FAILED</text><rect x="732.399" y="721.812" width="139.141" height="70.833" fill="#EFF6FF" style="stroke:#2563EB;stroke-width:0.885;" rx="10.625" ry="10.625"/><text x="741.253" y="766.76" fill="#0F172A" font-size="23.021" textLength="121.433" font-family="'Segoe UI'">TIMED_OUT</text><g class="end_entity" data-qualified-name=".end." id="ent0014" data-source-line="12"><ellipse cx="449.579" cy="902.437" rx="19.479" ry="19.479" fill="none" style="stroke:#1D4ED8;stroke-width:1.771;"/><ellipse cx="449.579" cy="902.437" rx="10.625" ry="10.625" fill="#222" style="stroke:#1D4ED8;stroke-width:1.771;"/></g><!--link *start* to QUEUED--><g class="link" data-entity-1="ent0001" data-entity-2="ent0002" id="lnk3" data-source-line="5" data-link-type="dependency"><path d="M481.454,123.766 C481.454,159.324 481.454,235.204 481.454,282.946" style="stroke:#475569;stroke-width:2.125;" fill="none" id="*start*-to-QUEUED"/><polygon points="481.454,291.8,488.537,275.863,481.454,282.946,474.371,275.863,481.454,291.8" fill="#475569" style="stroke:#475569;stroke-width:2.125;stroke-linejoin:miter;stroke-miterlimit:10;"/><text x="495.438" y="190.332" fill="#334155" font-size="19.479" textLength="200.46" font-family="'Segoe UI'">request accepted (202):</text><text x="483.225" y="216.241" fill="#334155" font-size="19.479" textLength="224.885" font-family="'Segoe UI'">consent, screening record,</text><text x="506.128" y="242.149" fill="#334155" font-size="19.479" textLength="179.079" font-family="'Segoe UI'">no other job running</text></g><!--link QUEUED to RUNNING--><g class="link" data-entity-1="ent0002" data-entity-2="ent0004" id="lnk5" data-source-line="6" data-link-type="dependency"><path d="M481.454,364.05 C481.454,403.398 481.454,458.524 481.454,497.872" style="stroke:#475569;stroke-width:2.125;" fill="none" id="QUEUED-to-RUNNING"/><polygon points="481.454,506.726,488.537,490.789,481.454,497.872,474.371,490.789,481.454,506.726" fill="#475569" style="stroke:#475569;stroke-width:2.125;stroke-linejoin:miter;stroke-miterlimit:10;"/><text x="483.225" y="431.165" fill="#334155" font-size="19.479" textLength="118.13" font-family="'Segoe UI'">queue worker</text><text x="511.64" y="457.074" fill="#334155" font-size="19.479" textLength="61.3" font-family="'Segoe UI'">takes it</text></g><!--link RUNNING to SUCCEEDED--><g class="link" data-entity-1="ent0004" data-entity-2="ent0006" id="lnk7" data-source-line="7" data-link-type="dependency"><path d="M420.52,545.844 C308.355,549.333 76.093,563.659 26.35,622.645 C10.625,641.292 13.99,656.503 26.35,677.541 C41.561,703.43 60.776,717.661 87.232,729.721" style="stroke:#475569;stroke-width:2.125;" fill="none" id="RUNNING-to-SUCCEEDED"/><polygon points="95.289,733.393,83.724,720.337,87.232,729.721,77.849,733.228,95.289,733.393" fill="#475569" style="stroke:#475569;stroke-width:2.125;stroke-linejoin:miter;stroke-miterlimit:10;"/><text x="62.457" y="645.436" fill="#334155" font-size="19.479" textLength="231.382" font-family="'Segoe UI'">valid result: report saved in</text><text x="28.121" y="671.345" fill="#334155" font-size="19.479" textLength="300.053" font-family="'Segoe UI'">MongoDB, explanations or reasons</text></g><!--link RUNNING to FAILED--><g class="link" data-entity-1="ent0004" data-entity-2="ent0008" id="lnk9" data-source-line="8" data-link-type="dependency"><path d="M420.148,567.094 C395.533,579.454 369.715,597.517 355.725,622.645 C343.86,643.966 345.348,655.459 355.725,677.541 C365.978,699.393 378.461,712.177 397.196,725.246" style="stroke:#475569;stroke-width:2.125;" fill="none" id="RUNNING-to-FAILED"/><polygon points="404.458,730.312,395.439,715.384,397.196,725.246,387.334,727.003,404.458,730.312" fill="#475569" style="stroke:#475569;stroke-width:2.125;stroke-linejoin:miter;stroke-miterlimit:10;"/><text x="357.496" y="645.436" fill="#334155" font-size="19.479" textLength="152.314" font-family="'Segoe UI'">AI service error or</text><text x="372.923" y="671.345" fill="#334155" font-size="19.479" textLength="121.459" font-family="'Segoe UI'">invalid answer</text></g><!--link RUNNING to FAILED--><g class="link" data-entity-1="ent0004" data-entity-2="ent0008" id="lnk12" data-source-line="10" data-link-type="dependency"><path d="M504.688,579.065 C520.023,606.194 535.075,644.78 522.183,677.541 C515.684,694.063 510.062,702.854 497.808,715.249" style="stroke:#475569;stroke-width:2.125;" fill="none" id="RUNNING-to-FAILED-1"/><polygon points="491.583,721.546,507.825,715.192,497.808,715.249,497.751,705.232,491.583,721.546" fill="#475569" style="stroke:#475569;stroke-width:2.125;stroke-linejoin:miter;stroke-miterlimit:10;"/><text x="528.824" y="645.436" fill="#334155" font-size="19.479" textLength="204.883" font-family="'Segoe UI'">backend restarted while</text><text x="550.657" y="671.345" fill="#334155" font-size="19.479" textLength="161.217" font-family="'Segoe UI'">it ran too long ago</text></g><!--link RUNNING to TIMED_OUT--><g class="link" data-entity-1="ent0004" data-entity-2="ent0010" id="lnk11" data-source-line="9" data-link-type="dependency"><path d="M542.371,546.889 C602.88,552.201 694.733,569.29 752.392,622.645 C780.211,648.393 790.939,682.514 796.322,712.548" style="stroke:#475569;stroke-width:2.125;" fill="none" id="RUNNING-to-TIMED_OUT"/><polygon points="797.884,721.263,802.045,704.326,796.322,712.548,788.1,706.825,797.884,721.263" fill="#475569" style="stroke:#475569;stroke-width:2.125;stroke-linejoin:miter;stroke-miterlimit:10;"/><text x="788.003" y="645.436" fill="#334155" font-size="19.479" textLength="145.504" font-family="'Segoe UI'">no answer within</text><text x="803.606" y="671.345" fill="#334155" font-size="19.479" textLength="114.297" font-family="'Segoe UI'">the time limit</text></g><!--link QUEUED to QUEUED--><g class="link" data-entity-1="ent0002" data-entity-2="ent0002" id="lnk13" data-source-line="11" data-link-type="dependency"><path d="M534.933,309.332 C570.616,304.125 605.342,310.288 605.342,327.801 C605.342,345.315 579.377,352.756 543.695,347.549" style="stroke:#475569;stroke-width:2.125;" fill="none" id="QUEUED-to-QUEUED"/><polygon points="534.933,346.271,549.681,355.581,543.695,347.549,551.727,341.563,534.933,346.271" fill="#475569" style="stroke:#475569;stroke-width:2.125;stroke-linejoin:miter;stroke-miterlimit:10;"/><text x="615.967" y="323.144" fill="#334155" font-size="19.479" textLength="159.048" font-family="'Segoe UI'">backend restarted:</text><text x="636.625" y="349.053" fill="#334155" font-size="19.479" textLength="117.731" font-family="'Segoe UI'">queued again</text></g><!--link SUCCEEDED to *end*--><g class="link" data-entity-1="ent0006" data-entity-2="ent0014" id="lnk15" data-source-line="12" data-link-type="dependency"><path d="M234.83,793.3 C300.333,826.043 386.639,869.207 424.73,888.243" style="stroke:#475569;stroke-width:2.125;" fill="none" id="SUCCEEDED-to-*end*"/><polygon points="432.65,892.201,421.56,878.74,424.73,888.243,415.227,891.413,432.65,892.201" fill="#475569" style="stroke:#475569;stroke-width:2.125;stroke-linejoin:miter;stroke-miterlimit:10;"/></g><!--link FAILED to *end*--><g class="link" data-entity-1="ent0008" data-entity-2="ent0014" id="lnk16" data-source-line="13" data-link-type="dependency"><path d="M449.579,793.3 C449.579,821.457 449.579,851.401 449.579,873.82" style="stroke:#475569;stroke-width:2.125;" fill="none" id="FAILED-to-*end*"/><polygon points="449.579,882.674,456.662,866.737,449.579,873.82,442.496,866.737,449.579,882.674" fill="#475569" style="stroke:#475569;stroke-width:2.125;stroke-linejoin:miter;stroke-miterlimit:10;"/></g><!--link TIMED_OUT to *end*--><g class="link" data-entity-1="ent0010" data-entity-2="ent0014" id="lnk17" data-source-line="14" data-link-type="dependency"><path d="M732.346,786.996 C649.311,820.376 523.881,870.781 475.768,890.136" style="stroke:#475569;stroke-width:2.125;" fill="none" id="TIMED_OUT-to-*end*"/><polygon points="467.553,893.441,484.983,894.064,475.768,890.136,479.695,880.921,467.553,893.441" fill="#475569" style="stroke:#475569;stroke-width:2.125;stroke-linejoin:miter;stroke-miterlimit:10;"/></g><?plantuml-src PL5DJy904BttLumtD6WCHmycADMGA4Qb9p5atKxeo7Qsxav1_hsp1LJqriw-ULzpH6nTMo94sJWyexPscP0uX273S0o6ZTj4Yl3ktw0NnGX2RMn5Z7qmDDTnF4lZDXvd5IaHrerieCHe0pL2dhFivUGLJayluR78Ytm45n3meyKeOAp5Hh24tk1yS7mnO-iv8aiVT1kHYHUAjJwK_Hcp1oyLXivAQ3czPZlAnFvKJ2RZoQtIAtcBiFPXYM76OfOOWIJR0nBukRY-plDHvsPb79Mg4ridoLlZWq0qA_L5FEDxpmi_kke3VZPE-qYP8lYWI1Fryu3tPZY-wqYrkuXXHLOR2K7HNgqGRxKCnpM6WyNf-3uVpH-AgUvgqYq2rYHLyg2vGQX6S5J_IVAj-6Ri4haB8YQaLjSLELHLWM0On7jmcWNCml_kxVig_mZq85sLQdXXYBEVqjAUNZNRYUz_VqBi9by0?></g></svg>