<svg xmlns="http://www.w3.org/2000/svg" xmlns:xlink="http://www.w3.org/1999/xlink" version="1.1" data-diagram-type="DESCRIPTION" style="width:1531px;height:3038px;background:#FFFFFF;" width="1531.771px" height="3038.75px" viewBox="0 0 1531 3038" zoomAndPan="magnify" preserveAspectRatio="none" contentStyleType="text/css"><?plantuml 1.2026.8?><defs/><g font-family="sans-serif" lengthAdjust="spacing"><g class="title" data-source-line="2"><text x="527.832" y="50.194" fill="#1E3A8A" font-size="30.104" textLength="464.527" font-weight="700" font-family="'Segoe UI'">The phone app: use cases by role</text></g><!--cluster PCa mHealth phone app--><g class="cluster" data-qualified-name="PCa mHealth phone app" id="ent0006" data-source-line="11"><rect x="208.923" y="276.819" width="1039.55" height="2362.292" fill="#F8FAFC" style="stroke:#94A3B8;stroke-width:1.771;" rx="10.625" ry="10.625"/><text x="597.497" y="305.203" fill="#1E3A8A" font-size="23.021" textLength="262.402" font-weight="700" font-family="'Segoe UI'">PCa mHealth phone app</text></g><!--cluster Every signed-in person--><g class="cluster" data-qualified-name="PCa mHealth phone app.Every signed-in person" id="ent0007" data-source-line="12"><path d="M279.969,1038.277 L516.132,1038.277 A15.938,15.938 0 0 1 526.757,1048.902 L539.153,1079.522 L678.937,1079.522 A10.625,10.625 0 0 1 689.562,1090.147 L689.562,1378.277 A10.625,10.625 0 0 1 678.937,1388.902 L279.969,1388.902 A10.625,10.625 0 0 1 269.344,1378.277 L269.344,1048.902 A10.625,10.625 0 0 1 279.969,1038.277" style="stroke:#94A3B8;stroke-width:2.656;" fill="#F8FAFC"/><line x1="269.344" y1="1079.522" x2="539.153" y2="1079.522" style="stroke:#94A3B8;stroke-width:2.656;"/><text x="276.427" y="1066.661" fill="#1E3A8A" font-size="23.021" textLength="246.788" font-weight="700" font-family="'Segoe UI'">Every signed-in person</text></g><!--cluster Patients--><g class="cluster" data-qualified-name="PCa mHealth phone app.Patients" id="ent0010" data-source-line="16"><path d="M262.048,354.736 L338.92,354.736 A15.938,15.938 0 0 1 349.545,365.361 L361.941,395.98 L1187.84,395.98 A10.625,10.625 0 0 1 1198.465,406.605 L1198.465,985.152 A10.625,10.625 0 0 1 1187.84,995.777 L262.048,995.777 A10.625,10.625 0 0 1 251.423,985.152 L251.423,365.361 A10.625,10.625 0 0 1 262.048,354.736" style="stroke:#94A3B8;stroke-width:2.656;" fill="#F8FAFC"/><line x1="251.423" y1="395.98" x2="361.941" y2="395.98" style="stroke:#94A3B8;stroke-width:2.656;"/><text x="258.506" y="383.119" fill="#1E3A8A" font-size="23.021" textLength="87.497" font-weight="700" font-family="'Segoe UI'">Patients</text></g><!--cluster Clinicians and pathologists--><g class="cluster" data-qualified-name="PCa mHealth phone app.Clinicians and pathologists" id="ent0017" data-source-line="24"><path d="M314.394,1431.402 L593.17,1431.402 A15.938,15.938 0 0 1 603.795,1442.027 L616.191,1472.647 L1195.348,1472.647 A10.625,10.625 0 0 1 1205.973,1483.272 L1205.973,2585.986 A10.625,10.625 0 0 1 1195.348,2596.611 L314.394,2596.611 A10.625,10.625 0 0 1 303.769,2585.986 L303.769,1442.027 A10.625,10.625 0 0 1 314.394,1431.402" style="stroke:#94A3B8;stroke-width:2.656;" fill="#F8FAFC"/><line x1="303.769" y1="1472.647" x2="616.191" y2="1472.647" style="stroke:#94A3B8;stroke-width:2.656;"/><text x="310.852" y="1459.786" fill="#1E3A8A" font-size="23.021" textLength="289.402" font-weight="700" font-family="'Segoe UI'">Clinicians and pathologists</text></g><!--entity UCsign--><g class="entity" data-qualified-name="PCa mHealth phone app.Every signed-in person.UCsign" id="ent0008" data-source-line="13"><ellipse cx="479.457" cy="1314.529" rx="181.78" ry="46.503" fill="#EFF6FF" style="stroke:#2563EB;stroke-width:2.479;"/><text x="348.279" y="1311.398" fill="#0F172A" font-size="23.021" textLength="262.357" font-family="'Segoe UI'">Sign in; change password;</text><text x="377.904" y="1342.017" fill="#0F172A" font-size="23.021" textLength="203.107" font-family="'Segoe UI'">choose light or dark</text></g><!--entity UCchat--><g class="entity" data-qualified-name="PCa mHealth phone app.Every signed-in person.UCchat" id="ent0009" data-source-line="14"><ellipse cx="479.446" cy="1149.833" rx="130.291" ry="47.982" fill="#EFF6FF" style="stroke:#2563EB;stroke-width:2.479;"/><text x="395.209" y="1142.733" fill="#0F172A" font-size="23.021" textLength="168.475" font-family="'Segoe UI'">Ask the assistant</text><text x="389.763" y="1173.353" fill="#0F172A" font-size="23.021" textLength="179.367" font-family="'Segoe UI'">(typed or spoken)</text></g><!--entity UCregister--><g class="entity" data-qualified-name="PCa mHealth phone app.Patients.UCregister" id="ent0011" data-source-line="17"><ellipse cx="479.457" cy="464.534" rx="199.701" ry="45.41" fill="#EFF6FF" style="stroke:#2563EB;stroke-width:2.479;"/><text x="387.694" y="453.606" fill="#0F172A" font-size="23.021" textLength="183.526" font-family="'Segoe UI'">Create an account</text><text x="331.019" y="484.226" fill="#0F172A" font-size="23.021" textLength="296.877" font-family="'Segoe UI'">(phone and NRC or passport)</text></g><!--entity UCresults--><g class="entity" data-qualified-name="PCa mHealth phone app.Patients.UCresults" id="ent0012" data-source-line="18"><ellipse cx="1015.17" cy="820.464" rx="154.97" ry="47.316" fill="#EFF6FF" style="stroke:#2563EB;stroke-width:2.479;"/><text x="920.299" y="812.4" fill="#0F172A" font-size="23.021" textLength="189.742" font-family="'Segoe UI'">See own screening</text><text x="906.074" y="843.02" fill="#0F172A" font-size="23.021" textLength="218.192" font-family="'Segoe UI'">history and messages</text></g><!--entity UCread--><g class="entity" data-qualified-name="PCa mHealth phone app.Patients.UCread" id="ent0013" data-source-line="19"><ellipse cx="1015.174" cy="597.345" rx="130.448" ry="30.34" fill="#EFF6FF" style="stroke:#2563EB;stroke-width:2.479;"/><text x="916.183" y="606.457" fill="#0F172A" font-size="23.021" textLength="197.981" font-family="'Segoe UI'">Read health articles</text></g><!--entity UClisten--><g class="entity" data-qualified-name="PCa mHealth phone app.Patients.UClisten" id="ent0014" data-source-line="20"><ellipse cx="479.446" cy="758.494" rx="127.529" ry="45.695" fill="#EFF6FF" style="stroke:#2563EB;stroke-width:2.479;"/><text x="386.778" y="756.586" fill="#0F172A" font-size="23.021" textLength="185.336" font-family="'Segoe UI'">Listen to an article</text><text x="418.011" y="787.206" fill="#0F172A" font-size="23.021" textLength="122.871" font-family="'Segoe UI'">(read aloud)</text></g><!--entity UCwithdraw--><g class="entity" data-qualified-name="PCa mHealth phone app.Patients.UCwithdraw" id="ent0015" data-source-line="21"><ellipse cx="479.452" cy="611.506" rx="132.014" ry="30.653" fill="#EFF6FF" style="stroke:#2563EB;stroke-width:2.479;"/><text x="378.488" y="620.618" fill="#0F172A" font-size="23.021" textLength="201.927" font-family="'Segoe UI'">Withdraw a consent</text></g><!--entity UCpush--><g class="entity" data-qualified-name="PCa mHealth phone app.Patients.UCpush" id="ent0016" data-source-line="22"><ellipse cx="479.453" cy="921.399" rx="161.89" ry="46.906" fill="#EFF6FF" style="stroke:#2563EB;stroke-width:2.479;"/><text x="364.186" y="917.67" fill="#0F172A" font-size="23.021" textLength="230.534" font-family="'Segoe UI'">Get a push notification</text><text x="384.582" y="948.29" fill="#0F172A" font-size="23.021" textLength="189.742" font-family="'Segoe UI'">for a new message</text></g><!--entity UCpatient--><g class="entity" data-qualified-name="PCa mHealth phone app.Clinicians and pathologists.UCpatient" id="ent0018" data-source-line="25"><ellipse cx="479.453" cy="1649.222" rx="122.843" ry="28.819" fill="#EFF6FF" style="stroke:#2563EB;stroke-width:2.479;"/><text x="390.27" y="1658.334" fill="#0F172A" font-size="23.021" textLength="178.366" font-family="'Segoe UI'">Register a patient</text></g><!--entity UCrecord--><g class="entity" data-qualified-name="PCa mHealth phone app.Clinicians and pathologists.UCrecord" id="ent0019" data-source-line="26"><ellipse cx="479.449" cy="1796.192" rx="147.347" ry="48.111" fill="#EFF6FF" style="stroke:#2563EB;stroke-width:2.479;"/><text x="382.706" y="1789.277" fill="#0F172A" font-size="23.021" textLength="193.485" font-family="'Segoe UI'">Record a screening</text><text x="377.834" y="1819.897" fill="#0F172A" font-size="23.021" textLength="203.231" font-family="'Segoe UI'">(PSA, DRE, PI-RADS)</text></g><!--entity UCsync--><g class="entity" data-qualified-name="PCa mHealth phone app.Clinicians and pathologists.UCsync" id="ent0020" data-source-line="27"><ellipse cx="1015.168" cy="1973.286" rx="162.476" ry="46.263" fill="#EFF6FF" style="stroke:#2563EB;stroke-width:2.479;"/><text x="897.653" y="1970.516" fill="#0F172A" font-size="23.021" textLength="235.031" font-family="'Segoe UI'">Save on the phone and</text><text x="927.845" y="2001.136" fill="#0F172A" font-size="23.021" textLength="174.646" font-family="'Segoe UI'">sync when online</text></g><!--entity UCconflict--><g class="entity" data-qualified-name="PCa mHealth phone app.Clinicians and pathologists.UCconflict" id="ent0021" data-source-line="28"><ellipse cx="479.459" cy="2072.452" rx="142.151" ry="32.68" fill="#EFF6FF" style="stroke:#2563EB;stroke-width:2.479;"/><text x="366.035" y="2081.564" fill="#0F172A" font-size="23.021" textLength="226.847" font-family="'Segoe UI'">Resolve a sync conflict</text></g><!--entity UCconsent--><g class="entity" data-qualified-name="PCa mHealth phone app.Clinicians and pathologists.UCconsent" id="ent0022" data-source-line="29"><ellipse cx="479.462" cy="1521.709" rx="115.166" ry="27.283" fill="#EFF6FF" style="stroke:#2563EB;stroke-width:2.479;"/><text x="400.671" y="1530.821" fill="#0F172A" font-size="23.021" textLength="157.583" font-family="'Segoe UI'">Record consent</text></g><!--entity UCscan--><g class="entity" data-qualified-name="PCa mHealth phone app.Clinicians and pathologists.UCscan" id="ent0023" data-source-line="30"><ellipse cx="479.454" cy="1941.396" rx="106.535" ry="26.964" fill="#EFF6FF" style="stroke:#2563EB;stroke-width:2.479;"/><text x="407.88" y="1950.508" fill="#0F172A" font-size="23.021" textLength="143.15" font-family="'Segoe UI'">Upload a scan</text></g><!--entity UCai--><g class="entity" data-qualified-name="PCa mHealth phone app.Clinicians and pathologists.UCai" id="ent0024" data-source-line="31"><ellipse cx="479.456" cy="2208.806" rx="141.35" ry="32.52" fill="#EFF6FF" style="stroke:#2563EB;stroke-width:2.479;"/><text x="366.999" y="2217.918" fill="#0F172A" font-size="23.021" textLength="224.914" font-family="'Segoe UI'">Request an AI analysis</text></g><!--entity UCaiconsent--><g class="entity" data-qualified-name="PCa mHealth phone app.Clinicians and pathologists.UCaiconsent" id="ent0025" data-source-line="32"><ellipse cx="1015.17" cy="2208.799" rx="121.484" ry="28.547" fill="#EFF6FF" style="stroke:#2563EB;stroke-width:2.479;"/><text x="927.786" y="2217.911" fill="#0F172A" font-size="23.021" textLength="174.769" font-family="'Segoe UI'">Check AI consent</text></g><!--entity UCreport--><g class="entity" data-qualified-name="PCa mHealth phone app.Clinicians and pathologists.UCreport" id="ent0026" data-source-line="33"><ellipse cx="479.457" cy="2357.551" rx="118.968" ry="44.822" fill="#EFF6FF" style="stroke:#2563EB;stroke-width:2.479;"/><text x="391.375" y="2357.003" fill="#0F172A" font-size="23.021" textLength="176.163" font-family="'Segoe UI'">Read the labelled</text><text x="434.382" y="2387.622" fill="#0F172A" font-size="23.021" textLength="90.15" font-family="'Segoe UI'">AI report</text></g><!--entity UCreview--><g class="entity" data-qualified-name="PCa mHealth phone app.Clinicians and pathologists.UCreview" id="ent0027" data-source-line="34"><ellipse cx="479.456" cy="2520.46" rx="113.017" ry="47.719" fill="#EFF6FF" style="stroke:#2563EB;stroke-width:2.479;"/><text x="408.493" y="2512.98" fill="#0F172A" font-size="23.021" textLength="141.924" font-family="'Segoe UI'">Review a slide</text><text x="401.687" y="2543.6" fill="#0F172A" font-size="23.021" textLength="155.537" font-family="'Segoe UI'">(Gleason score)</text></g><!--entity patient--><g class="entity" data-qualified-name="patient" id="ent0001" data-source-line="5"><ellipse cx="72.578" cy="558.116" rx="14.167" ry="14.167" fill="#DBEAFE" style="stroke:#1D4ED8;stroke-width:0.885;"/><path d="M72.578,572.283 L72.578,620.095 M49.558,586.449 L95.599,586.449 M72.578,620.095 L49.558,646.658 M72.578,620.095 L95.599,646.658" style="stroke:#1D4ED8;stroke-width:0.885;" fill="none"/><text x="33.894" y="674.156" fill="#0F172A" font-size="23.021" textLength="77.369" font-weight="700" font-family="'Segoe UI'">Patient</text></g><!--entity clinician--><g class="entity" data-qualified-name="clinician" id="ent0002" data-source-line="6"><ellipse cx="72.581" cy="1638.324" rx="14.167" ry="14.167" fill="#DBEAFE" style="stroke:#1D4ED8;stroke-width:0.885;"/><path d="M72.581,1652.491 L72.581,1700.303 M49.56,1666.658 L95.602,1666.658 M72.581,1700.303 L49.56,1726.866 M72.581,1700.303 L95.602,1726.866" style="stroke:#1D4ED8;stroke-width:0.885;" fill="none"/><text x="26.669" y="1754.364" fill="#0F172A" font-size="23.021" textLength="91.825" font-weight="700" font-family="'Segoe UI'">Clinician</text></g><!--entity pathologist--><g class="entity" data-qualified-name="pathologist" id="ent0003" data-source-line="7"><ellipse cx="72.583" cy="2178.428" rx="14.167" ry="14.167" fill="#DBEAFE" style="stroke:#1D4ED8;stroke-width:0.885;"/><path d="M72.583,2192.595 L72.583,2240.408 M49.563,2206.762 L95.604,2206.762 M72.583,2240.408 L49.563,2266.97 M72.583,2240.408 L95.604,2266.97" style="stroke:#1D4ED8;stroke-width:0.885;" fill="none"/><text x="10.625" y="2294.468" fill="#0F172A" font-size="23.021" textLength="123.917" font-weight="700" font-family="'Segoe UI'">Pathologist</text></g><!--entity server--><g class="entity" data-qualified-name="server" id="ent0004" data-source-line="8"><ellipse cx="1414.437" cy="2894.998" rx="14.167" ry="14.167" fill="#DBEAFE" style="stroke:#1D4ED8;stroke-width:0.885;"/><path d="M1414.437,2909.165 L1414.437,2956.977 M1391.416,2923.331 L1437.457,2923.331 M1414.437,2956.977 L1391.416,2983.54 M1414.437,2956.977 L1437.457,2983.54" style="stroke:#1D4ED8;stroke-width:0.885;" fill="none"/><text x="1322.848" y="3011.038" fill="#0F172A" font-size="23.021" textLength="183.177" font-weight="700" font-family="'Segoe UI'">Server (backend)</text><text x="1363.488" y="2874.168" fill="#0F172A" font-size="23.021" textLength="101.896" font-weight="700" font-family="'Segoe UI'">«system»</text></g><!--entity fcm--><g class="entity" data-qualified-name="fcm" id="ent0005" data-source-line="9"><ellipse cx="1015.169" cy="2713.222" rx="14.167" ry="14.167" fill="#DBEAFE" style="stroke:#1D4ED8;stroke-width:0.885;"/><path d="M1015.169,2727.389 L1015.169,2775.201 M992.148,2741.555 L1038.19,2741.555 M1015.169,2775.201 L992.148,2801.764 M1015.169,2775.201 L1038.19,2801.764" style="stroke:#1D4ED8;stroke-width:0.885;" fill="none"/><text x="935.726" y="2829.262" fill="#0F172A" font-size="23.021" textLength="158.886" font-weight="700" font-family="'Segoe UI'">Firebase Cloud</text><text x="935.726" y="2859.881" fill="#0F172A" font-size="23.021" textLength="116.105" font-weight="700" font-family="'Segoe UI'">Messaging</text><text x="964.221" y="2692.392" fill="#0F172A" font-size="23.021" textLength="101.896" font-weight="700" font-family="'Segoe UI'">«system»</text></g><!--link patient to UCsign--><g class="link" data-entity-1="ent0001" data-entity-2="ent0008" id="lnk28" data-source-line="38" data-link-type="dependency"><path d="M78.784,680.392 C89.445,824.857 121.302,1152.779 194.756,1233.069 C224.595,1265.688 258.043,1283.168 300.56,1295.174" style="stroke:#475569;stroke-width:2.125;" fill="none" id="patient-to-UCsign"/><polygon points="309.081,1297.58,295.668,1286.433,300.56,1295.174,291.819,1300.066,309.081,1297.58" fill="#475569" style="stroke:#475569;stroke-width:2.125;stroke-linejoin:miter;stroke-miterlimit:10;"/></g><!--link patient to UCchat--><g class="link" data-entity-1="ent0001" data-entity-2="ent0009" id="lnk29" data-source-line="39" data-link-type="dependency"><path d="M79.935,680.658 C89.994,764.613 117.884,906.457 194.756,999.319 C242.285,1056.747 309.328,1092.091 370.298,1115.785" style="stroke:#475569;stroke-width:2.125;" fill="none" id="patient-to-UCchat"/><polygon points="378.551,1118.992,366.262,1106.617,370.298,1115.785,361.13,1119.821,378.551,1118.992" fill="#475569" style="stroke:#475569;stroke-width:2.125;stroke-linejoin:miter;stroke-miterlimit:10;"/></g><!--link patient to UCregister--><g class="link" data-entity-1="ent0001" data-entity-2="ent0011" id="lnk30" data-source-line="40" data-link-type="dependency"><path d="M111.81,588.362 C135.061,574.691 165.909,557.815 194.756,545.986 C241.099,526.967 284.875,512.929 331.82,499.948" style="stroke:#475569;stroke-width:2.125;" fill="none" id="patient-to-UCregister"/><polygon points="340.354,497.589,323.105,495.009,331.82,499.948,326.881,508.663,340.354,497.589" fill="#475569" style="stroke:#475569;stroke-width:2.125;stroke-linejoin:miter;stroke-miterlimit:10;"/></g><!--link patient to UCresults--><g class="link" data-entity-1="ent0001" data-entity-2="ent0012" id="lnk31" data-source-line="41" data-link-type="dependency"><path d="M90.065,542.692 C106.374,488.823 137.753,417.459 194.756,383.069 C388.432,266.212 509.805,266.619 703.729,383.069 C824.5,455.585 768.311,550.041 852.692,662.861 C884.053,704.794 920.011,740.113 953.444,769.881" style="stroke:#475569;stroke-width:2.125;" fill="none" id="patient-to-UCresults"/><polygon points="960.057,775.769,952.864,759.881,953.444,769.881,943.444,770.461,960.057,775.769" fill="#475569" style="stroke:#475569;stroke-width:2.125;stroke-linejoin:miter;stroke-miterlimit:10;"/></g><!--link patient to UCread--><g class="link" data-entity-1="ent0001" data-entity-2="ent0013" id="lnk32" data-source-line="42" data-link-type="dependency"><path d="M84.628,542.869 C100.176,449.475 132.795,290.012 178.819,255.569 C402.811,87.853 564.931,117.674 808.421,255.569 C929.44,324.1 984.471,487.164 1003.525,557.731" style="stroke:#475569;stroke-width:2.125;" fill="none" id="patient-to-UCread"/><polygon points="1005.833,566.279,1008.517,549.046,1003.525,557.731,994.84,552.739,1005.833,566.279" fill="#475569" style="stroke:#475569;stroke-width:2.125;stroke-linejoin:miter;stroke-miterlimit:10;"/></g><!--link patient to UCwithdraw--><g class="link" data-entity-1="ent0001" data-entity-2="ent0015" id="lnk33" data-source-line="43" data-link-type="dependency"><path d="M111.58,611.507 C164.617,611.507 255.779,611.507 337.875,611.507" style="stroke:#475569;stroke-width:2.125;" fill="none" id="patient-to-UCwithdraw"/><polygon points="346.729,611.507,330.792,604.423,337.875,611.507,330.792,618.59,346.729,611.507" fill="#475569" style="stroke:#475569;stroke-width:2.125;stroke-linejoin:miter;stroke-miterlimit:10;"/></g><!--link clinician to UCsign--><g class="link" data-entity-1="ent0002" data-entity-2="ent0008" id="lnk34" data-source-line="44" data-link-type="dependency"><path d="M98.14,1622.404 C117.831,1573.175 149.866,1508.115 194.756,1463.277 C244.216,1413.853 305.385,1380.537 363.026,1355.887" style="stroke:#475569;stroke-width:2.125;" fill="none" id="clinician-to-UCsign"/><polygon points="371.167,1352.405,353.728,1352.159,363.026,1355.887,359.298,1365.185,371.167,1352.405" fill="#475569" style="stroke:#475569;stroke-width:2.125;stroke-linejoin:miter;stroke-miterlimit:10;"/></g><!--link clinician to UCchat--><g class="link" data-entity-1="ent0002" data-entity-2="ent0009" id="lnk35" data-source-line="45" data-link-type="dependency"><path d="M84.061,1622.67 C101.398,1508.735 140.976,1288.443 194.756,1233.069 C235.592,1191.012 287.793,1171.58 342.654,1161.115" style="stroke:#475569;stroke-width:2.125;" fill="none" id="clinician-to-UCchat"/><polygon points="351.351,1159.455,334.369,1155.484,342.654,1161.115,337.023,1169.4,351.351,1159.455" fill="#475569" style="stroke:#475569;stroke-width:2.125;stroke-linejoin:miter;stroke-miterlimit:10;"/></g><!--link clinician to UCpatient--><g class="link" data-entity-1="ent0002" data-entity-2="ent0018" id="lnk36" data-source-line="46" data-link-type="dependency"><path d="M119.053,1687.004 C178.341,1680.753 276.139,1670.455 357.775,1661.848" style="stroke:#475569;stroke-width:2.125;" fill="none" id="clinician-to-UCpatient"/><polygon points="366.58,1660.92,349.988,1655.547,357.775,1661.848,351.473,1669.635,366.58,1660.92" fill="#475569" style="stroke:#475569;stroke-width:2.125;stroke-linejoin:miter;stroke-miterlimit:10;"/></g><!--link clinician to UCrecord--><g class="link" data-entity-1="ent0002" data-entity-2="ent0019" id="lnk37" data-source-line="47" data-link-type="dependency"><path d="M119.053,1703.296 C177.314,1718.384 272.708,1743.099 353.759,1764.083" style="stroke:#475569;stroke-width:2.125;" fill="none" id="clinician-to-UCrecord"/><polygon points="362.33,1766.302,348.677,1755.451,353.759,1764.083,345.126,1769.165,362.33,1766.302" fill="#475569" style="stroke:#475569;stroke-width:2.125;stroke-linejoin:miter;stroke-miterlimit:10;"/></g><!--link clinician to UCconsent--><g class="link" data-entity-1="ent0002" data-entity-2="ent0022" id="lnk38" data-source-line="48" data-link-type="dependency"><path d="M118.823,1642.716 C139.949,1622.174 166.706,1599.791 194.756,1585.465 C249.9,1557.291 308.625,1542.856 363.84,1534.037" style="stroke:#475569;stroke-width:2.125;" fill="none" id="clinician-to-UCconsent"/><polygon points="372.583,1532.641,355.728,1528.16,363.84,1534.037,357.962,1542.149,372.583,1532.641" fill="#475569" style="stroke:#475569;stroke-width:2.125;stroke-linejoin:miter;stroke-miterlimit:10;"/></g><!--link clinician to UCscan--><g class="link" data-entity-1="ent0002" data-entity-2="ent0023" id="lnk39" data-source-line="49" data-link-type="dependency"><path d="M117.654,1760.547 C150.946,1813.265 191.764,1877.351 194.756,1879.423 C246.748,1915.619 307.314,1930.202 364.335,1936.684" style="stroke:#475569;stroke-width:2.125;" fill="none" id="clinician-to-UCscan"/><polygon points="373.132,1937.684,358.097,1928.846,364.335,1936.684,356.497,1942.922,373.132,1937.684" fill="#475569" style="stroke:#475569;stroke-width:2.125;stroke-linejoin:miter;stroke-miterlimit:10;"/></g><!--link clinician to UCai--><g class="link" data-entity-1="ent0002" data-entity-2="ent0024" id="lnk40" data-source-line="50" data-link-type="dependency"><path d="M110.73,1760.6 C134.973,1809.989 165.13,1878.892 180.59,1943.173 C185.707,1964.459 180.607,2123.001 194.756,2139.736 C229.836,2181.244 276.596,2198.756 329.189,2206.636" style="stroke:#475569;stroke-width:2.125;" fill="none" id="clinician-to-UCai"/><polygon points="337.946,2207.948,323.234,2198.581,329.189,2206.636,321.135,2212.592,337.946,2207.948" fill="#475569" style="stroke:#475569;stroke-width:2.125;stroke-linejoin:miter;stroke-miterlimit:10;"/></g><!--link clinician to UCreport--><g class="link" data-entity-1="ent0002" data-entity-2="ent0026" id="lnk41" data-source-line="51" data-link-type="dependency"><path d="M88.134,1760.954 C118.805,1914.68 190.329,2271.326 194.756,2276.09 C237.115,2321.848 294.615,2341.122 352.344,2350.189" style="stroke:#475569;stroke-width:2.125;" fill="none" id="clinician-to-UCreport"/><polygon points="361.091,2351.563,346.445,2342.092,352.344,2350.189,344.247,2356.088,361.091,2351.563" fill="#475569" style="stroke:#475569;stroke-width:2.125;stroke-linejoin:miter;stroke-miterlimit:10;"/></g><!--link pathologist to UCsign--><g class="link" data-entity-1="ent0003" data-entity-2="ent0008" id="lnk42" data-source-line="52" data-link-type="dependency"><path d="M84.292,2163.075 C111.261,1977.191 184.521,1477.568 194.756,1463.277 C233.821,1408.665 290.934,1375.715 348.982,1352.695" style="stroke:#475569;stroke-width:2.125;" fill="none" id="pathologist-to-UCsign"/><polygon points="357.213,1349.43,339.786,1348.721,348.982,1352.695,345.009,1361.89,357.213,1349.43" fill="#475569" style="stroke:#475569;stroke-width:2.125;stroke-linejoin:miter;stroke-miterlimit:10;"/></g><!--link pathologist to UCscan--><g class="link" data-entity-1="ent0003" data-entity-2="ent0023" id="lnk43" data-source-line="53" data-link-type="dependency"><path d="M134.92,2172.992 C152.345,2152.822 169.575,2129.058 180.59,2104.319 C198.67,2063.625 164.546,2037.86 194.756,2005.152 C239.488,1956.685 303.696,1941.668 364.347,1938.02" style="stroke:#475569;stroke-width:2.125;" fill="none" id="pathologist-to-UCscan"/><polygon points="373.185,1937.489,356.851,1931.375,364.347,1938.02,357.702,1945.516,373.185,1937.489" fill="#475569" style="stroke:#475569;stroke-width:2.125;stroke-linejoin:miter;stroke-miterlimit:10;"/></g><!--link pathologist to UCai--><g class="link" data-entity-1="ent0003" data-entity-2="ent0024" id="lnk44" data-source-line="54" data-link-type="dependency"><path d="M134.743,2228.366 C189.231,2225.267 262.558,2221.08 332.807,2217.06" style="stroke:#475569;stroke-width:2.125;" fill="none" id="pathologist-to-UCai"/><polygon points="341.647,2216.554,325.331,2210.393,332.807,2217.06,326.14,2224.537,341.647,2216.554" fill="#475569" style="stroke:#475569;stroke-width:2.125;stroke-linejoin:miter;stroke-miterlimit:10;"/></g><!--link pathologist to UCreport--><g class="link" data-entity-1="ent0003" data-entity-2="ent0026" id="lnk45" data-source-line="55" data-link-type="dependency"><path d="M135.309,2255.194 C154.257,2262.207 175.277,2269.715 194.756,2276.09 C256.204,2296.207 317.478,2313.956 372.374,2329.185" style="stroke:#475569;stroke-width:2.125;" fill="none" id="pathologist-to-UCreport"/><polygon points="380.906,2331.552,367.442,2320.466,372.374,2329.185,363.655,2334.117,380.906,2331.552" fill="#475569" style="stroke:#475569;stroke-width:2.125;stroke-linejoin:miter;stroke-miterlimit:10;"/></g><!--link pathologist to UCreview--><g class="link" data-entity-1="ent0003" data-entity-2="ent0027" id="lnk46" data-source-line="56" data-link-type="dependency"><path d="M99.291,2301.112 C118.788,2345.985 150.131,2402.368 194.756,2437.236 C244.782,2476.336 304.019,2495.386 360.792,2506.4" style="stroke:#475569;stroke-width:2.125;" fill="none" id="pathologist-to-UCreview"/><polygon points="369.484,2508.087,355.188,2498.098,360.792,2506.4,352.49,2512.005,369.484,2508.087" fill="#475569" style="stroke:#475569;stroke-width:2.125;stroke-linejoin:miter;stroke-miterlimit:10;"/></g><!--link UClisten to UCread--><g class="link" data-entity-1="ent0014" data-entity-2="ent0013" id="lnk47" data-source-line="58" data-link-type="dependency"><path d="M578.213,729.108 C680.142,698.242 830.14,652.837 925.092,624.078" style="stroke:#475569;stroke-width:2.125;stroke-dasharray:12.396,12.396;" fill="none" id="UClisten-to-UCread"/><polygon points="933.566,621.512,916.259,619.352,925.092,624.078,920.366,632.911,933.566,621.512" fill="#475569" style="stroke:#475569;stroke-width:2.125;stroke-linejoin:miter;stroke-miterlimit:10;"/><text x="726.963" y="657.938" fill="#334155" font-size="19.479" textLength="78.116" font-family="'Segoe UI'">«extend»</text></g><!--link UCpatient to UCsync--><g class="link" data-entity-1="ent0018" data-entity-2="ent0020" id="lnk48" data-source-line="59" data-link-type="dependency"><path d="M577.168,1667.366 C617.72,1677.371 664.541,1692.104 703.729,1712.965 C811.608,1770.375 909.772,1863.622 965.5,1921.546" style="stroke:#475569;stroke-width:2.125;stroke-dasharray:12.396,12.396;" fill="none" id="UCpatient-to-UCsync"/><polygon points="971.639,1927.926,965.693,1911.53,965.5,1921.546,955.484,1921.352,971.639,1927.926" fill="#475569" style="stroke:#475569;stroke-width:2.125;stroke-linejoin:miter;stroke-miterlimit:10;"/><text x="725.192" y="1723.555" fill="#334155" font-size="19.479" textLength="81.845" font-family="'Segoe UI'">«include»</text></g><!--link UCrecord to UCsync--><g class="link" data-entity-1="ent0019" data-entity-2="ent0020" id="lnk49" data-source-line="60" data-link-type="dependency"><path d="M584.464,1830.548 C677.415,1861.467 805.031,1903.934 898.85,1935.154" style="stroke:#475569;stroke-width:2.125;stroke-dasharray:12.396,12.396;" fill="none" id="UCrecord-to-UCsync"/><polygon points="907.251,1937.949,894.365,1926.196,898.85,1935.154,889.892,1939.638,907.251,1937.949" fill="#475569" style="stroke:#475569;stroke-width:2.125;stroke-linejoin:miter;stroke-miterlimit:10;"/><text x="725.192" y="1873.881" fill="#334155" font-size="19.479" textLength="81.845" font-family="'Segoe UI'">«include»</text></g><!--link UCconflict to UCsync--><g class="link" data-entity-1="ent0021" data-entity-2="ent0020" id="lnk50" data-source-line="61" data-link-type="dependency"><path d="M592.131,2051.778 C675.148,2036.301 780.414,2016.691 868.885,2000.205" style="stroke:#475569;stroke-width:2.125;stroke-dasharray:12.396,12.396;" fill="none" id="UCconflict-to-UCsync"/><polygon points="877.59,1998.583,860.624,1994.539,868.885,2000.205,863.219,2008.466,877.59,1998.583" fill="#475569" style="stroke:#475569;stroke-width:2.125;stroke-linejoin:miter;stroke-miterlimit:10;"/><text x="726.963" y="2008.429" fill="#334155" font-size="19.479" textLength="78.116" font-family="'Segoe UI'">«extend»</text></g><!--link UCai to UCaiconsent--><g class="link" data-entity-1="ent0024" data-entity-2="ent0025" id="lnk51" data-source-line="62" data-link-type="dependency"><path d="M621.049,2208.798 C705.73,2208.798 803.781,2208.798 884.602,2208.798" style="stroke:#475569;stroke-width:2.125;stroke-dasharray:12.396,12.396;" fill="none" id="UCai-to-UCaiconsent"/><polygon points="893.456,2208.798,877.519,2201.715,884.602,2208.798,877.519,2215.882,893.456,2208.798" fill="#475569" style="stroke:#475569;stroke-width:2.125;stroke-linejoin:miter;stroke-miterlimit:10;"/><text x="725.192" y="2203.256" fill="#334155" font-size="19.479" textLength="81.845" font-family="'Segoe UI'">«include»</text></g><!--link UCsync to server--><g class="link" data-entity-1="ent0020" data-entity-2="ent0004" id="lnk52" data-source-line="63" data-link-type="dependency"><path d="M1104.132,2012.59 C1158.231,2041.525 1224.478,2086.062 1262.64,2145.048 C1337.652,2260.932 1385.559,2661.115 1403.763,2839.739" style="stroke:#475569;stroke-width:2.125;" fill="none" id="UCsync-to-server"/><polygon points="1404.66,2848.547,1410.091,2831.974,1403.763,2839.739,1395.998,2833.41,1404.66,2848.547" fill="#475569" style="stroke:#475569;stroke-width:2.125;stroke-linejoin:miter;stroke-miterlimit:10;"/></g><!--link UCai to server--><g class="link" data-entity-1="ent0024" data-entity-2="ent0004" id="lnk53" data-source-line="64" data-link-type="dependency"><path d="M610.725,2221.424 C646.213,2231.412 681.098,2248.571 703.729,2277.861 C732.523,2315.101 709.059,2656.252 723.421,2701.09 C755.721,2801.921 761.175,2847.945 852.692,2901.194 C999.14,2986.407 1196.471,2971.919 1313.452,2952.989" style="stroke:#475569;stroke-width:2.125;" fill="none" id="UCai-to-server"/><polygon points="1322.193,2951.574,1305.328,2947.128,1313.452,2952.989,1307.591,2961.113,1322.193,2951.574" fill="#475569" style="stroke:#475569;stroke-width:2.125;stroke-linejoin:miter;stroke-miterlimit:10;"/></g><!--link patient to UCpush--><g class="link" data-entity-1="ent0001" data-entity-2="ent0016" id="lnk54" data-source-line="65" data-link-type="dependency"><path d="M112.147,671.768 C133.857,707.893 160.668,755.21 180.59,799.215 C188.487,816.675 180.838,826.769 194.756,839.944 C230.562,873.855 270.984,891.651 318.159,903.321" style="stroke:#475569;stroke-width:2.125;" fill="none" id="patient-to-UCpush"/><polygon points="326.754,905.447,312.984,894.744,318.159,903.321,309.582,908.496,326.754,905.447" fill="#475569" style="stroke:#475569;stroke-width:2.125;stroke-linejoin:miter;stroke-miterlimit:10;"/></g><!--link UCpush to UCresults--><g class="link" data-entity-1="ent0016" data-entity-2="ent0012" id="lnk55" data-source-line="66" data-link-type="dependency"><path d="M616.197,895.796 C697.797,880.319 792.638,862.329 873.548,846.994" style="stroke:#475569;stroke-width:2.125;stroke-dasharray:12.396,12.396;" fill="none" id="UCpush-to-UCresults"/><polygon points="882.247,845.345,865.269,841.354,873.548,846.994,867.907,855.272,882.247,845.345" fill="#475569" style="stroke:#475569;stroke-width:2.125;stroke-linejoin:miter;stroke-miterlimit:10;"/><text x="726.963" y="856.342" fill="#334155" font-size="19.479" textLength="78.116" font-family="'Segoe UI'">«extend»</text></g><!--link UCpush to fcm--><g class="link" data-entity-1="ent0016" data-entity-2="ent0005" id="lnk56" data-source-line="67" data-link-type="dependency"><path d="M576.92,959.458 C624.042,983.612 676.476,1019.914 703.729,1070.152 C744.281,1144.864 680.354,2526.858 723.421,2600.152 C769.002,2677.715 857.294,2719.563 926.498,2742.743" style="stroke:#475569;stroke-width:2.125;" fill="none" id="UCpush-to-fcm"/><polygon points="934.894,2745.555,922.031,2733.777,926.498,2742.743,917.532,2747.21,934.894,2745.555" fill="#475569" style="stroke:#475569;stroke-width:2.125;stroke-linejoin:miter;stroke-miterlimit:10;"/></g><?plantuml-src VLLTRziw37tth-3jKmUi_G7RKA18zmLiGv6kk2zvOMKc5g98dgGqDxZOVnyfIwujRtjf8_gGEZeybFxHLfbZIn3YsT2rFXvC4tKq1DyxWhvpbW3x_WqS0u72G06Upk2TeSRGDa9quFMkYz1gJofgPvi6LNGUBkunQhBn0Z10F_mkdrP6MwqqslHHbTKaitF6xNGOiykwG1x8FvE7ooTKUxBjguGBG_3Tkt0EaGutDmNzWSazCNbO6NTiD_OhXO0xRNSfRQiEqvn63e9snnfStAyG3fy8JUnUnBY0_njWKcgFEyQyvptF4FJEKdkbBVJaWxC324GtaOqPCm2qVGkgu-AiBOPmShvzkx6gSuuX9Wd9V5lq-yJiSILbvtLkmnuYzuRJMG-qSMCluxcdLZ93xrYELpcPTugS_7FADdSbBFYjF67aiXPGANTCTVEHRGlVrYkfBwHxvsFPmPCqXNnrL29m9mj1UIBBCczinp37CacjGrAVmbWZ74qCyn9hmXQwGNZqKIipmMCx1tyH3bQyAEm7DBCN8A1qlD0r2JXF_bV7hlLu0WJbR2YEVLoTyeSv_2D5HlR7q85rKM-rGd7zncvP7WHBftA-N4QWTHD6_uSaoCJVoxwiiyIowsIYk72UgGgjs5ECdMX_UVzm-nhkrkzVm_tdg_NjtSDB-mHTDG-VkNisUMpi_yQ6irLmwbXcPvbzEPs4QmR16Ix152I5DTqQhGhfilmjwxd-UJL7FlR6uN2-V7im1_vPr_jnf1353hUV-I-QCmzBXgEkZD-HsWjklZtgtn98nXHj33wHCSJISAedcOfHLLdKQS-Qn6F1w5RC-T4GyZN1vt2UNleXgEIMdqsJ6mnNLpVb9fY7qdpFG-D0rk5XnkeeJz8yD9f-l9IdszV1HA0E5b_MyMosHOsiyc93wMeTvDujooQr9pDK2LQ7fUuop9MNmJ_MpergofK2rzT5K7Z3Zmdzny6M7vDHZen8Co68_EucoA3Ctn1bR6hCP1_K-UDet4MLb2O761xA8McodbiXNLp3l_5uoKMB4mf2SlWX_GK0?></g></svg>